# Created by Kenney (www.kenney.nl)

mtllib fenceFortified.mtl

g fenceFortified

v 1 0 -1
v 0.82888 0 -1
v 1 0 -0.8288803
v 0.82888 0 -0.8288803
v 1 0 0.82888
v 0.8288803 0 0.82888
v 1 0 0.9999999
v 0.8288803 0 0.9999999
v 0.9609402 0.413 0.833148
v 0.8679402 1.56 0.845001
v 0.8679402 0.413 0.8331479
v 0.8679402 1.653 0.8459621
v 0.9609402 1.56 0.845001
v 0.9609402 0.32 0.8321869
v 0.8502702 2.069867 0.85027
v 0.9786103 2.069867 0.8502699
v 0.9609402 1.653 0.845962
v 0.8679402 0.32 0.8321869
v 0.8502702 2.069867 0.97861
v 0.9786103 2.069867 0.97861
v 0.97861 2.069867 -0.9786103
v 0.97861 2.069867 -0.8502702
v 0.85027 2.069867 -0.9786103
v 0.85027 2.069867 -0.8502702
v 0.86794 1.653 -0.8459623
v 0.86794 1.56 -0.8450013
v 0.86794 0.413 -0.8331482
v 0.96094 0.413 -0.8331482
v 0.96094 1.56 -0.8450013
v 0.96094 0.32 -0.8321871
v 0.86794 0.32 -0.8321871
v 0.96094 1.653 -0.8459623
v 0.8679401 1.56 -0.7484254
v 0.8679401 1.56 -0.5419713
v 0.8679401 1.56 -0.4976229
v 0.8679401 1.56 -0.2911156
v 0.8679401 1.56 -0.2276254
v 0.8679401 1.56 -0.02117121
v 0.8679401 1.56 0.05519855
v 0.8679402 1.56 0.2618654
v 0.8679402 1.56 0.2830694
v 0.8679402 1.56 0.4895943
v 0.8679402 1.56 0.5673934
v 0.8679402 1.56 0.773928
v 0.8679401 1.653 -0.7484254
v 0.8679401 1.653 -0.5419713
v 0.8679401 1.653 -0.4995857
v 0.8679401 1.653 -0.2930784
v 0.8679401 1.653 -0.2276254
v 0.8679401 1.653 -0.02117121
v 0.8679401 1.653 0.05912608
v 0.8679402 1.653 0.2657929
v 0.8679402 1.653 0.2808046
v 0.8679402 1.653 0.4873295
v 0.8679402 1.653 0.5698093
v 0.8679402 1.653 0.7763439
v 0.8679401 0.32 -0.5419713
v 0.8679401 0.413 -0.5419713
v 0.8679401 0.32 -0.4714532
v 0.8679401 0.413 -0.4734159
v 0.8679401 0.413 -0.7484254
v 0.8679401 0.413 -0.2669086
v 0.8679401 0.413 -0.2276254
v 0.8679401 0.413 -0.02117121
v 0.8679401 0.413 0.006759524
v 0.8679402 0.413 0.2134264
v 0.8679402 0.413 0.3110022
v 0.8679402 0.413 0.5175272
v 0.8679402 0.413 0.5375975
v 0.8679402 0.413 0.7441321
v 0.8679401 0.32 -0.7484254
v 0.8679401 0.32 -0.3765
v 0.8679401 0.32 -0.2276254
v 0.8679401 0.32 -0.02117121
v 0.8679401 0.32 0.002832055
v 0.8679402 0.32 0.2094989
v 0.8679402 0.32 0.5351816
v 0.8679402 0.32 0.7417162
v 0.8679402 0.3573639 0.312357
v 0.8679402 0.3631751 0.5187405
v 0.8679401 0.3227206 -0.2650033
v 0.78794 1.813 -0.5419713
v 0.8679401 1.813 -0.5419713
v 0.78794 0.24 -0.5419713
v 0.8679401 0.24 -0.5419713
v 0.8679401 1.813 -0.7484254
v 0.78794 1.813 -0.7484254
v 0.8679401 0.24 -0.7484254
v 0.78794 0.24 -0.7484254
v 0.7879401 0.2 -0.02117121
v 0.78794 0.2 -0.2276254
v 0.7879401 1.773 -0.02117121
v 0.78794 1.773 -0.2276254
v 0.8679401 1.773 -0.02117121
v 0.8679401 0.2 -0.02117121
v 0.8679401 1.773 -0.2276254
v 0.8679401 0.2 -0.2276254
v 0.7879401 1.935636 0.4804465
v 0.8679402 1.935636 0.4804465
v 0.7879401 0.3631751 0.5187406
v 0.8679402 1.929825 0.2740631
v 0.7879401 1.929825 0.2740631
v 0.7879401 0.3573639 0.312357
v 0.8679402 0.2357745 0.205942
v 0.8679401 0.2458448 -0.0002995729
v 0.7879401 0.2357745 0.205942
v 0.7879401 0.2458448 -0.0002995729
v 0.7879401 1.807155 0.272303
v 0.7879401 1.817225 0.06606144
v 0.8679402 1.807155 0.2723032
v 0.8679401 1.817225 0.06606144
v 0.8679402 1.815793 0.5740381
v 0.8679402 1.809594 0.7804118
v 0.7879401 1.815793 0.5740381
v 0.7879402 1.809594 0.7804118
v 0.8679402 0.2434058 0.5331917
v 0.7879401 0.2434058 0.5331919
v 0.8679402 0.2372074 0.7395654
v 0.7879401 0.2372074 0.7395656
v 0.8679401 0.3176842 -0.4714043
v 0.78794 0.3176842 -0.4714043
v 0.78794 1.890279 -0.5045934
v 0.78794 0.3227206 -0.2650033
v 0.78794 1.895316 -0.2981923
v 0.8679401 1.890279 -0.5045934
v 0.8679401 1.895316 -0.2981923

vn 0 -1 0
vn -1.192093E-07 0.01033344 -0.9999467
vn 1.192093E-07 0.01033344 0.9999467
vn 0.9999467 0.01033344 -1.192093E-07
vn 0 1 0
vn -0.9999467 0.01033344 1.192093E-07
vn -1 0 1.192093E-07
vn 1 0 -1.192093E-07
vn 1.192093E-07 0 1
vn -1.192093E-07 0 -1
vn 1.192093E-07 0.02434569 0.9997037
vn -3.72529E-09 0.9996038 -0.02814575
vn 3.72529E-09 -0.9996038 0.02814575
vn -1.192093E-07 -0.02434569 -0.9997037
vn -7.450581E-09 -0.9988101 -0.04876957
vn 1.192093E-07 -0.04219344 0.9991096
vn 7.450581E-09 0.9988101 0.04876957
vn -1.192093E-07 0.04219344 -0.9991096
vn 3.72529E-09 0.9995492 0.03002144
vn -3.72529E-09 -0.9995492 -0.03002144
vn -1.192093E-07 0.02596849 -0.9996629
vn 1.192093E-07 -0.02596849 0.9996629
vn 3.72529E-09 -0.9997024 0.02439401
vn -1.192093E-07 -0.02109995 -0.9997775
vn -3.72529E-09 0.9997024 -0.02439401
vn 1.192093E-07 0.02109995 0.9997775

vt 9.84252 9.84252
vt 9.84252 8.158268
vt 8.158268 9.84252
vt 8.158268 8.158268
vt -8.158268 9.84252
vt -8.158268 8.158268
vt -9.84252 9.84252
vt -9.84252 8.158268
vt -9.458071 4.149481
vt -8.542717 15.43945
vt -8.542717 4.149481
vt -8.542717 16.35486
vt -9.458071 15.43945
vt -9.458071 3.234077
vt -8.368799 20.4581
vt -9.631989 20.4581
vt -9.458071 16.35486
vt -8.542717 3.234077
vt -8.158268 0.08430299
vt -9.84252 0.08430299
vt 8.158268 -0.1017071
vt 8.368799 20.27209
vt 9.84252 -0.1017071
vt 9.631989 20.27209
vt -8.158268 -0.1017071
vt -9.84252 -0.1017071
vt -8.368799 20.27209
vt -9.631989 20.27209
vt 8.368799 8.368799
vt 8.368799 9.631989
vt 9.631989 8.368799
vt 9.631989 9.631989
vt 9.84252 0.08430299
vt 8.158268 0.08430299
vt 9.631989 20.4581
vt 8.368799 20.4581
vt -9.631989 8.368799
vt -9.631989 9.631989
vt -8.368799 8.368799
vt -8.368799 9.631989
vt 8.542717 16.35486
vt 8.542717 15.43945
vt 8.542717 4.149481
vt 9.458071 4.149481
vt 9.458071 15.43945
vt 9.458071 3.234077
vt 8.542717 3.234077
vt 9.458071 16.35486
vt 8.316939 9.458071
vt 8.316939 8.542717
vt -8.316939 9.458071
vt 7.36639 8.542717
vt 5.334361 8.542717
vt 4.897862 8.542717
vt 2.865309 8.542717
vt 2.240406 8.542717
vt 0.2083767 8.542717
vt -0.5432941 8.542717
vt -2.577417 8.542717
vt -2.786117 8.542717
vt -4.818842 8.542717
vt -5.58458 8.542717
vt -7.617402 8.542717
vt -8.316939 8.542717
vt -8.326399 9.458071
vt 8.326399 9.458071
vt -8.326399 8.542717
vt -7.36639 8.542717
vt -5.334361 8.542717
vt -4.91718 8.542717
vt -2.884628 8.542717
vt -2.240406 8.542717
vt -0.2083767 8.542717
vt 0.5819504 8.542717
vt 2.616073 8.542717
vt 2.763825 8.542717
vt 4.796551 8.542717
vt 5.608359 8.542717
vt 7.641181 8.542717
vt 8.326399 8.542717
vt 4.818842 15.35433
vt 4.796551 16.26969
vt 5.58458 15.35433
vt 5.608359 16.26969
vt 8.316939 15.35433
vt -8.316939 15.35433
vt 8.326399 16.26969
vt -8.326399 16.26969
vt -5.334361 3.149606
vt -5.334361 4.06496
vt -4.640285 3.149606
vt -4.659604 4.06496
vt -8.200275 9.458071
vt 8.200275 9.458071
vt -8.200275 8.542717
vt -4.659604 8.542717
vt -2.627051 8.542717
vt 0.06653208 8.542717
vt 2.100655 8.542717
vt 3.061046 8.542717
vt 5.093771 8.542717
vt 5.291314 8.542717
vt 7.324135 8.542717
vt 8.200275 8.542717
vt 8.190816 9.458071
vt 8.190816 8.542717
vt -8.190816 9.458071
vt 4.640285 8.542717
vt 3.705707 8.542717
vt -0.0278757 8.542717
vt -2.061999 8.542717
vt -5.267535 8.542717
vt -7.300357 8.542717
vt -8.190816 8.542717
vt 8.190816 3.149606
vt -8.190816 3.149606
vt 8.200275 4.06496
vt -8.200275 4.06496
vt -7.36639 15.35433
vt -7.36639 16.26969
vt -7.36639 3.149606
vt -7.36639 4.06496
vt -2.865309 15.35433
vt -2.884628 16.26969
vt -2.240406 15.35433
vt -2.240406 16.26969
vt 2.577417 15.35433
vt 2.616073 16.26969
vt 2.786117 15.35433
vt 2.763825 16.26969
vt -0.2083767 3.149606
vt -0.2083767 4.06496
vt 0.02787564 3.149606
vt 0.06653202 4.06496
vt -0.2083767 15.35433
vt -0.2083767 16.26969
vt 0.5432941 15.35433
vt 0.5819504 16.26969
vt 7.300357 3.149606
vt 7.324135 4.06496
vt 7.617402 15.35433
vt 7.641181 16.26969
vt 3.074381 3.517362
vt 5.105714 3.574558
vt 5.267535 3.149606
vt 5.291314 4.06496
vt 5.093771 4.06496
vt 2.061999 3.149606
vt 2.100655 4.06496
vt 3.061046 4.06496
vt -3.705707 3.149606
vt -2.608298 3.176384
vt -2.240406 3.149606
vt -2.240406 4.06496
vt -2.627051 4.06496
vt -5.334361 15.35433
vt -5.334361 16.26969
vt -4.897862 15.35433
vt -4.91718 16.26969
vt 7.755315 17.84449
vt 8.542717 17.84449
vt 7.755315 2.362205
vt 8.542717 4.06496
vt 8.542717 2.362205
vt 8.542717 16.26969
vt 8.542717 3.149606
vt 8.542717 15.35433
vt -7.36639 7.755315
vt -5.334361 7.755315
vt 7.36639 7.755315
vt 5.334361 7.755315
vt -8.542717 16.26969
vt -8.542717 4.06496
vt -8.542717 15.35433
vt -8.542717 17.84449
vt -7.755315 2.362205
vt -7.755315 17.84449
vt -8.542717 2.362205
vt -8.542717 3.149606
vt 7.36639 2.362205
vt 5.334361 2.362205
vt 7.36639 3.149606
vt 5.334361 3.149606
vt -5.334361 2.362205
vt -7.36639 2.362205
vt -5.334361 17.84449
vt -7.36639 17.84449
vt 7.36639 16.26969
vt 5.334361 16.26969
vt 7.36639 17.84449
vt 5.334361 17.84449
vt 7.36639 4.06496
vt 5.334361 4.06496
vt 7.36639 15.35433
vt 5.334361 15.35433
vt -0.2083767 1.968504
vt -2.240406 1.968504
vt -0.2083767 17.45079
vt -2.240406 17.45079
vt 7.755315 17.45079
vt 8.542717 17.45079
vt 7.755315 1.968504
vt 8.542717 1.968504
vt -2.240406 7.755315
vt -0.2083767 7.755315
vt -7.755315 17.45079
vt -7.755315 1.968504
vt -8.542717 17.45079
vt -8.542717 1.968504
vt 2.240406 7.755315
vt 0.2083767 7.755315
vt 2.240406 1.968504
vt 0.2083766 1.968504
vt 2.240406 3.149606
vt 0.2083766 3.149606
vt 2.240406 16.26969
vt 0.2083767 16.26969
vt 2.240406 17.45079
vt 0.2083767 17.45079
vt 2.240406 4.06496
vt 0.2083767 4.06496
vt 2.240406 15.35433
vt 0.2083767 15.35433
vt 7.755315 18.93076
vt 8.542717 18.93076
vt 7.755315 3.449196
vt 8.542717 3.939744
vt 8.542717 3.449196
vt 8.542717 16.14809
vt 8.542717 15.23246
vt -8.542717 3.231013
vt -8.542716 5.263151
vt -7.755315 3.231013
vt -7.755315 5.263151
vt 8.542717 3.172162
vt 7.755315 3.172162
vt 8.542716 5.2043
vt 7.755315 5.2043
vt -7.755315 18.92304
vt -7.755315 3.441471
vt -8.542717 18.92304
vt -8.542717 3.441471
vt -8.542717 16.19757
vt -8.542717 15.28195
vt -8.542717 3.989233
vt 2.697472 18.99434
vt 4.728805 19.05154
vt -2.763825 16.26969
vt -4.796551 16.26969
vt -2.697472 18.99434
vt -4.728805 19.05154
vt -3.061046 4.06496
vt -5.093771 4.06496
vt -2.786117 15.35433
vt -4.818842 15.35433
vt -2.026989 2.320615
vt -2.061999 3.149606
vt 0.002947632 2.419732
vt -0.02787572 3.149606
vt 2.026989 2.320615
vt -0.002947639 2.419732
vt 2.68015 17.78696
vt 0.6502124 17.88608
vt -8.542717 0.1209535
vt -7.755315 0.1209535
vt -8.542717 -1.911402
vt -7.755315 -1.911402
vt 7.755315 17.8842
vt 8.542717 17.8842
vt 7.755315 2.404074
vt 8.542717 4.149974
vt 8.542717 2.404074
vt 8.542717 16.36558
vt 8.542717 15.44941
vt 8.542717 3.233804
vt 8.542717 0.2228577
vt 8.542717 -1.809498
vt 7.755315 0.2228577
vt 7.755315 -1.809498
vt -7.755315 17.89758
vt -7.755315 2.417453
vt -8.542717 17.89758
vt -8.542717 2.417453
vt -8.542717 16.27975
vt -8.542717 15.36358
vt -8.542717 4.064148
vt -8.542717 3.147978
vt -0.06653208 4.06496
vt -2.100655 4.06496
vt -0.5432941 15.35433
vt -2.577417 15.35433
vt -0.5819504 16.26969
vt -2.616073 16.26969
vt -0.6502124 17.88608
vt -2.68015 17.78696
vt 8.542717 -5.110893
vt 8.542717 -7.143045
vt 7.755315 -5.110893
vt 7.755315 -7.143045
vt -8.542717 -5.173663
vt -7.755315 -5.173663
vt -8.542717 -7.205816
vt -7.755315 -7.205816
vt 7.279189 2.334719
vt 5.247952 2.395727
vt 7.681219 17.81097
vt 5.649982 17.87197
vt -7.755315 18.01267
vt -7.755315 2.5312
vt -8.542717 18.01267
vt -8.542717 2.5312
vt -8.542717 16.40984
vt -8.542717 15.49418
vt -8.542717 4.200997
vt -8.542717 3.285334
vt -7.279189 2.334719
vt -7.300357 3.149606
vt -5.247952 2.395727
vt -5.267535 3.149606
vt 7.755315 18.00443
vt 8.542717 18.00443
vt 7.755315 2.522961
vt 8.542717 4.253787
vt 8.542717 2.522961
vt 8.542717 16.46263
vt 8.542717 15.54696
vt 8.542717 3.338123
vt -5.608359 16.26969
vt -7.641181 16.26969
vt -5.649982 17.87197
vt -7.681219 17.81097
vt -5.291314 4.06496
vt -7.324135 4.06496
vt -5.58458 15.35433
vt -7.617402 15.35433
vt 4.640285 3.149607
vt 4.639804 3.126814
vt 3.705707 3.149607
vt -4.639804 3.126813
vt -4.966468 18.60511
vt -2.934962 18.65468
vt 8.542717 -4.562148
vt 7.755315 -4.562148
vt 8.542717 -3.627772
vt 7.755315 -2.530037
vt 8.542717 -2.530037
vt -7.755315 18.70576
vt -7.755315 3.224017
vt -8.542717 18.70576
vt -8.542717 3.224017
vt -8.542717 16.36982
vt -8.542717 15.45426
vt -8.542717 4.162373
vt -8.542717 3.246815
vt -8.542717 -4.511137
vt -8.542717 -2.479027
vt -7.755315 -4.511137
vt -7.755315 -2.479027
vt 7.755315 18.71246
vt 8.542717 18.71246
vt 7.755315 3.230712
vt 8.542717 4.119486
vt 8.542717 3.230712
vt 8.542717 16.32693
vt 8.542717 15.41137
vt 4.91718 16.26969
vt 2.884628 16.26969
vt 4.966468 18.60511
vt 2.934962 18.65468
vt 4.659604 4.06496
vt 2.627051 4.06496
vt 4.897862 15.35433
vt 2.865309 15.35433

usemtl wood

f 3/3/1 2/2/1 1/1/1
f 2/2/1 3/3/1 4/4/1
f 7/7/1 6/6/1 5/5/1
f 6/6/1 7/7/1 8/8/1
f 11/11/2 10/10/2 9/9/2
f 10/10/2 11/11/2 12/12/2
f 9/9/2 10/10/2 13/13/2
f 9/9/2 13/13/2 14/14/2
f 15/15/2 12/12/2 11/11/2
f 12/12/2 15/15/2 16/16/2
f 12/12/2 16/16/2 17/17/2
f 17/17/2 16/16/2 13/13/2
f 18/18/2 15/15/2 11/11/2
f 18/18/2 6/19/2 15/15/2
f 6/19/2 18/18/2 5/20/2
f 5/20/2 18/18/2 14/14/2
f 5/20/2 14/14/2 13/13/2
f 5/20/2 13/13/2 16/16/2
f 7/23/3 19/22/3 8/21/3
f 19/22/3 7/23/3 20/24/3
f 16/27/4 7/26/4 5/25/4
f 7/26/4 16/27/4 20/28/4
f 19/31/5 16/30/5 15/29/5
f 16/30/5 19/31/5 20/32/5
f 19/35/6 6/34/6 8/33/6
f 6/34/6 19/35/6 15/36/6
f 21/24/4 3/21/4 1/23/4
f 3/21/4 21/24/4 22/22/4
f 24/39/5 21/38/5 23/37/5
f 21/38/5 24/39/5 22/40/5
f 23/27/2 1/26/2 2/25/2
f 1/26/2 23/27/2 21/28/2
f 27/43/3 26/42/3 25/41/3
f 26/42/3 27/43/3 28/44/3
f 26/42/3 28/44/3 29/45/3
f 29/45/3 28/44/3 30/46/3
f 24/36/3 27/43/3 25/41/3
f 24/36/3 31/47/3 27/43/3
f 4/34/3 31/47/3 24/36/3
f 31/47/3 4/34/3 3/33/3
f 31/47/3 3/33/3 30/46/3
f 30/46/3 3/33/3 22/35/3
f 25/41/3 22/35/3 24/36/3
f 22/35/3 29/45/3 30/46/3
f 22/35/3 25/41/3 32/48/3
f 22/35/3 32/48/3 29/45/3
f 24/15/6 2/20/6 4/19/6
f 2/20/6 24/15/6 23/16/6
f 13/51/1 26/50/1 29/49/1
f 26/50/1 13/51/1 33/52/1
f 33/52/1 13/51/1 34/53/1
f 34/53/1 13/51/1 35/54/1
f 35/54/1 13/51/1 36/55/1
f 36/55/1 13/51/1 37/56/1
f 37/56/1 13/51/1 38/57/1
f 38/57/1 13/51/1 39/58/1
f 39/58/1 13/51/1 40/59/1
f 40/59/1 13/51/1 41/60/1
f 41/60/1 13/51/1 42/61/1
f 42/61/1 13/51/1 43/62/1
f 43/62/1 13/51/1 44/63/1
f 44/63/1 13/51/1 10/64/1
f 25/67/5 17/66/5 32/65/5
f 17/66/5 25/67/5 45/68/5
f 17/66/5 45/68/5 46/69/5
f 17/66/5 46/69/5 47/70/5
f 17/66/5 47/70/5 48/71/5
f 17/66/5 48/71/5 49/72/5
f 17/66/5 49/72/5 50/73/5
f 17/66/5 50/73/5 51/74/5
f 17/66/5 51/74/5 52/75/5
f 17/66/5 52/75/5 53/76/5
f 17/66/5 53/76/5 54/77/5
f 17/66/5 54/77/5 55/78/5
f 17/66/5 55/78/5 56/79/5
f 17/66/5 56/79/5 12/80/5
f 43/83/7 54/82/7 42/81/7
f 54/82/7 43/83/7 55/84/7
f 32/87/8 13/86/8 29/85/8
f 13/86/8 32/87/8 17/88/8
f 59/91/7 58/90/7 57/89/7
f 58/90/7 59/91/7 60/92/7
f 27/95/5 9/94/5 28/93/5
f 9/94/5 27/95/5 61/68/5
f 9/94/5 61/68/5 58/69/5
f 9/94/5 58/69/5 60/96/5
f 9/94/5 60/96/5 62/97/5
f 9/94/5 62/97/5 63/72/5
f 9/94/5 63/72/5 64/73/5
f 9/94/5 64/73/5 65/98/5
f 9/94/5 65/98/5 66/99/5
f 9/94/5 66/99/5 67/100/5
f 9/94/5 67/100/5 68/101/5
f 9/94/5 68/101/5 69/102/5
f 9/94/5 69/102/5 70/103/5
f 9/94/5 70/103/5 11/104/5
f 14/107/1 31/106/1 30/105/1
f 31/106/1 14/107/1 71/52/1
f 71/52/1 14/107/1 57/53/1
f 57/53/1 14/107/1 59/108/1
f 59/108/1 14/107/1 72/109/1
f 72/109/1 14/107/1 73/56/1
f 73/56/1 14/107/1 74/57/1
f 74/57/1 14/107/1 75/110/1
f 75/110/1 14/107/1 76/111/1
f 76/111/1 14/107/1 77/112/1
f 77/112/1 14/107/1 78/113/1
f 78/113/1 14/107/1 18/114/1
f 28/117/8 14/116/8 30/115/8
f 14/116/8 28/117/8 9/118/8
f 33/119/7 25/88/7 26/86/7
f 25/88/7 33/119/7 45/120/7
f 71/121/7 27/118/7 31/116/7
f 27/118/7 71/121/7 61/122/7
f 37/125/7 48/124/7 36/123/7
f 48/124/7 37/125/7 49/126/7
f 41/129/7 52/128/7 40/127/7
f 52/128/7 41/129/7 53/130/7
f 75/133/7 64/132/7 74/131/7
f 64/132/7 75/133/7 65/134/7
f 39/137/7 50/136/7 38/135/7
f 50/136/7 39/137/7 51/138/7
f 18/115/7 70/140/7 78/139/7
f 70/140/7 18/115/7 11/117/7
f 10/85/7 56/142/7 44/141/7
f 56/142/7 10/85/7 12/87/7
f 77/145/7 80/144/7 79/143/7
f 80/144/7 77/145/7 69/146/7
f 80/144/7 69/146/7 68/147/7
f 79/143/7 76/148/7 77/145/7
f 76/148/7 79/143/7 66/149/7
f 66/149/7 79/143/7 67/150/7
f 73/153/7 81/152/7 72/151/7
f 81/152/7 73/153/7 63/154/7
f 81/152/7 63/154/7 62/155/7
f 35/158/7 46/157/7 34/156/7
f 46/157/7 35/158/7 47/159/7

usemtl woodDark

f 84/162/9 83/161/9 82/160/9
f 83/161/9 84/162/9 58/163/9
f 58/163/9 84/162/9 85/164/9
f 83/161/9 58/163/9 46/165/9
f 58/163/9 85/164/9 57/166/9
f 34/167/9 46/165/9 58/163/9
f 87/168/5 83/69/5 86/68/5
f 83/69/5 87/168/5 82/169/5
f 85/53/1 89/170/1 88/52/1
f 89/170/1 85/53/1 84/171/1
f 33/174/10 61/173/10 45/172/10
f 61/173/10 86/175/10 45/172/10
f 89/176/10 86/175/10 61/173/10
f 86/175/10 89/176/10 87/177/10
f 89/176/10 61/173/10 88/178/10
f 88/178/10 61/173/10 71/179/10
f 71/182/8 85/181/8 88/180/8
f 85/181/8 71/182/8 57/183/8
f 82/186/7 89/185/7 84/184/7
f 89/185/7 82/186/7 87/187/7
f 86/190/8 46/189/8 45/188/8
f 46/189/8 86/190/8 83/191/8
f 33/194/8 58/193/8 61/192/8
f 58/193/8 33/194/8 34/195/8
f 92/198/7 91/197/7 90/196/7
f 91/197/7 92/198/7 93/199/7
f 90/202/9 94/201/9 92/200/9
f 94/201/9 90/202/9 64/163/9
f 64/163/9 90/202/9 95/203/9
f 94/201/9 64/163/9 50/165/9
f 50/165/9 64/163/9 38/167/9
f 64/163/9 95/203/9 74/166/9
f 93/204/5 94/73/5 96/72/5
f 94/73/5 93/204/5 92/205/5
f 96/208/10 91/207/10 93/206/10
f 91/207/10 96/208/10 97/209/10
f 97/209/10 96/208/10 49/172/10
f 97/209/10 49/172/10 37/174/10
f 97/209/10 37/174/10 63/173/10
f 73/179/10 97/209/10 63/173/10
f 95/57/1 91/210/1 97/56/1
f 91/210/1 95/57/1 90/211/1
f 73/214/8 95/213/8 97/212/8
f 95/213/8 73/214/8 74/215/8
f 96/218/8 50/217/8 49/216/8
f 50/217/8 96/218/8 94/219/8
f 37/222/8 64/221/8 63/220/8
f 64/221/8 37/222/8 38/223/8
f 100/226/11 99/225/11 98/224/11
f 99/225/11 100/226/11 68/227/11
f 68/227/11 100/226/11 80/228/11
f 99/225/11 68/227/11 54/229/11
f 54/229/11 68/227/11 42/230/11
f 102/233/12 99/232/12 101/231/12
f 99/232/12 102/233/12 98/234/12
f 80/237/13 103/236/13 79/235/13
f 103/236/13 80/237/13 100/238/13
f 101/241/14 103/240/14 102/239/14
f 103/240/14 101/241/14 79/242/14
f 79/242/14 101/241/14 53/243/14
f 79/242/14 53/243/14 41/244/14
f 79/242/14 41/244/14 67/245/14
f 100/144/7 102/246/7 103/143/7
f 102/246/7 100/144/7 98/247/7
f 101/250/8 54/249/8 53/248/8
f 54/249/8 101/250/8 99/251/8
f 41/254/8 68/253/8 67/252/8
f 68/253/8 41/254/8 42/255/8
f 105/258/8 76/257/8 104/256/8
f 76/257/8 105/258/8 75/259/8
f 108/262/7 107/261/7 106/260/7
f 107/261/7 108/262/7 109/263/7
f 104/266/15 107/265/15 105/264/15
f 107/265/15 104/266/15 106/267/15
f 106/270/16 110/269/16 108/268/16
f 110/269/16 106/270/16 66/271/16
f 66/271/16 106/270/16 104/272/16
f 110/269/16 66/271/16 52/273/16
f 52/273/16 66/271/16 40/274/16
f 66/271/16 104/272/16 76/275/16
f 109/278/17 110/277/17 111/276/17
f 110/277/17 109/278/17 108/279/17
f 111/282/18 107/281/18 109/280/18
f 107/281/18 111/282/18 105/283/18
f 105/283/18 111/282/18 51/284/18
f 105/283/18 51/284/18 39/285/18
f 105/283/18 39/285/18 65/286/18
f 105/283/18 65/286/18 75/287/18
f 39/290/8 66/289/8 65/288/8
f 66/289/8 39/290/8 40/291/8
f 111/294/8 52/293/8 51/292/8
f 52/293/8 111/294/8 110/295/8
f 114/298/19 113/297/19 112/296/19
f 113/297/19 114/298/19 115/299/19
f 118/302/20 117/301/20 116/300/20
f 117/301/20 118/302/20 119/303/20
f 115/306/7 117/305/7 119/304/7
f 117/305/7 115/306/7 114/307/7
f 112/310/21 117/309/21 114/308/21
f 117/309/21 112/310/21 116/311/21
f 116/311/21 112/310/21 55/312/21
f 116/311/21 55/312/21 43/313/21
f 116/311/21 43/313/21 69/314/21
f 116/311/21 69/314/21 77/315/21
f 116/318/8 78/317/8 118/316/8
f 78/317/8 116/318/8 77/319/8
f 119/322/22 113/321/22 115/320/22
f 113/321/22 119/322/22 70/323/22
f 70/323/22 119/322/22 118/324/22
f 113/321/22 70/323/22 56/325/22
f 56/325/22 70/323/22 44/326/22
f 70/323/22 118/324/22 78/327/22
f 112/330/8 56/329/8 55/328/8
f 56/329/8 112/330/8 113/331/8
f 43/334/8 70/333/8 69/332/8
f 70/333/8 43/334/8 44/335/8
f 72/338/8 120/337/8 59/336/8
f 123/152/7 122/340/7 121/339/7
f 122/340/7 123/152/7 124/341/7
f 72/344/23 121/343/23 120/342/23
f 121/343/23 72/344/23 123/345/23
f 123/345/23 72/344/23 81/346/23
f 125/349/24 121/348/24 122/347/24
f 121/348/24 125/349/24 120/350/24
f 120/350/24 125/349/24 47/351/24
f 120/350/24 47/351/24 35/352/24
f 120/350/24 35/352/24 60/353/24
f 59/354/24 120/350/24 60/353/24
f 122/357/25 126/356/25 125/355/25
f 126/356/25 122/357/25 124/358/25
f 123/361/26 126/360/26 124/359/26
f 126/360/26 123/361/26 62/362/26
f 62/362/26 123/361/26 81/363/26
f 126/360/26 62/362/26 48/364/26
f 48/364/26 62/362/26 36/365/26
f 125/368/8 48/367/8 47/366/8
f 48/367/8 125/368/8 126/369/8
f 35/372/8 62/371/8 60/370/8
f 62/371/8 35/372/8 36/373/8

