# Created by Kenney (www.kenney.nl)

mtllib fence.mtl

g fence

v 1 0 -1
v 0.82888 0 -1
v 1 0 -0.8288803
v 0.82888 0 -0.8288803
v 1 0 0.82888
v 0.8288803 0 0.82888
v 1 0 0.9999999
v 0.8288803 0 0.9999999
v 0.9609402 0.413 0.833148
v 0.8679402 1.56 0.845001
v 0.8679402 0.413 0.8331479
v 0.8679402 1.653 0.8459621
v 0.9609402 1.56 0.845001
v 0.9609402 0.32 0.8321869
v 0.8502702 2.069867 0.85027
v 0.9786103 2.069867 0.8502699
v 0.9609402 1.653 0.845962
v 0.8679402 0.32 0.8321869
v 0.8502702 2.069867 0.97861
v 0.9786103 2.069867 0.97861
v 0.97861 2.069867 -0.9786103
v 0.97861 2.069867 -0.8502702
v 0.85027 2.069867 -0.9786103
v 0.85027 2.069867 -0.8502702
v 0.86794 1.653 -0.8459623
v 0.86794 1.56 -0.8450013
v 0.86794 0.413 -0.8331482
v 0.96094 0.413 -0.8331482
v 0.96094 1.56 -0.8450013
v 0.96094 0.32 -0.8321871
v 0.86794 0.32 -0.8321871
v 0.96094 1.653 -0.8459623

vn 0 -1 0
vn -1.192093E-07 0.01033344 -0.9999467
vn 1.192093E-07 0.01033344 0.9999467
vn 0.9999467 0.01033344 -1.192093E-07
vn 0 1 0
vn -0.9999467 0.01033344 1.192093E-07
vn -1 0 1.192093E-07
vn 1 0 -1.192093E-07

vt 9.84252 9.84252
vt 9.84252 8.158268
vt 8.158268 9.84252
vt 8.158268 8.158268
vt -8.158268 9.84252
vt -8.158268 8.158268
vt -9.84252 9.84252
vt -9.84252 8.158268
vt -9.458071 4.149481
vt -8.542717 15.43945
vt -8.542717 4.149481
vt -8.542717 16.35486
vt -9.458071 15.43945
vt -9.458071 3.234077
vt -8.368799 20.4581
vt -9.631989 20.4581
vt -9.458071 16.35486
vt -8.542717 3.234077
vt -8.158268 0.08430299
vt -9.84252 0.08430299
vt 8.158268 -0.1017071
vt 8.368799 20.27209
vt 9.84252 -0.1017071
vt 9.631989 20.27209
vt -8.158268 -0.1017071
vt -9.84252 -0.1017071
vt -8.368799 20.27209
vt -9.631989 20.27209
vt 8.368799 8.368799
vt 8.368799 9.631989
vt 9.631989 8.368799
vt 9.631989 9.631989
vt 9.84252 0.08430299
vt 8.158268 0.08430299
vt 9.631989 20.4581
vt 8.368799 20.4581
vt -9.631989 8.368799
vt -9.631989 9.631989
vt -8.368799 8.368799
vt -8.368799 9.631989
vt 8.542717 16.35486
vt 8.542717 15.43945
vt 8.542717 4.149481
vt 9.458071 4.149481
vt 9.458071 15.43945
vt 9.458071 3.234077
vt 8.542717 3.234077
vt 9.458071 16.35486
vt 8.316939 9.458071
vt 8.316939 8.542717
vt -8.316939 9.458071
vt -8.316939 8.542717
vt -8.326399 9.458071
vt 8.326399 9.458071
vt -8.326399 8.542717
vt 8.326399 8.542717
vt -8.316939 15.35433
vt -8.326399 16.26969
vt 8.316939 15.35433
vt 8.326399 16.26969
vt -8.190816 3.149606
vt -8.200275 4.06496
vt 8.190816 3.149606
vt 8.200275 4.06496
vt -8.200275 9.458071
vt 8.200275 9.458071
vt -8.200275 8.542717
vt 8.200275 8.542717
vt 8.190816 9.458071
vt 8.190816 8.542717
vt -8.190816 9.458071
vt -8.190816 8.542717

usemtl wood

f 3/3/1 2/2/1 1/1/1
f 2/2/1 3/3/1 4/4/1
f 7/7/1 6/6/1 5/5/1
f 6/6/1 7/7/1 8/8/1
f 11/11/2 10/10/2 9/9/2
f 10/10/2 11/11/2 12/12/2
f 9/9/2 10/10/2 13/13/2
f 9/9/2 13/13/2 14/14/2
f 15/15/2 12/12/2 11/11/2
f 12/12/2 15/15/2 16/16/2
f 12/12/2 16/16/2 17/17/2
f 17/17/2 16/16/2 13/13/2
f 18/18/2 15/15/2 11/11/2
f 18/18/2 6/19/2 15/15/2
f 6/19/2 18/18/2 5/20/2
f 5/20/2 18/18/2 14/14/2
f 5/20/2 14/14/2 13/13/2
f 5/20/2 13/13/2 16/16/2
f 7/23/3 19/22/3 8/21/3
f 19/22/3 7/23/3 20/24/3
f 16/27/4 7/26/4 5/25/4
f 7/26/4 16/27/4 20/28/4
f 19/31/5 16/30/5 15/29/5
f 16/30/5 19/31/5 20/32/5
f 19/35/6 6/34/6 8/33/6
f 6/34/6 19/35/6 15/36/6
f 21/24/4 3/21/4 1/23/4
f 3/21/4 21/24/4 22/22/4
f 24/39/5 21/38/5 23/37/5
f 21/38/5 24/39/5 22/40/5
f 23/27/2 1/26/2 2/25/2
f 1/26/2 23/27/2 21/28/2
f 27/43/3 26/42/3 25/41/3
f 26/42/3 27/43/3 28/44/3
f 26/42/3 28/44/3 29/45/3
f 29/45/3 28/44/3 30/46/3
f 24/36/3 27/43/3 25/41/3
f 24/36/3 31/47/3 27/43/3
f 4/34/3 31/47/3 24/36/3
f 31/47/3 4/34/3 3/33/3
f 31/47/3 3/33/3 30/46/3
f 30/46/3 3/33/3 22/35/3
f 25/41/3 22/35/3 24/36/3
f 22/35/3 29/45/3 30/46/3
f 22/35/3 25/41/3 32/48/3
f 22/35/3 32/48/3 29/45/3
f 24/15/6 2/20/6 4/19/6
f 2/20/6 24/15/6 23/16/6
f 13/51/1 26/50/1 29/49/1
f 26/50/1 13/51/1 10/52/1
f 25/55/5 17/54/5 32/53/5
f 17/54/5 25/55/5 12/56/5
f 10/59/7 25/58/7 26/57/7
f 25/58/7 10/59/7 12/60/7
f 32/60/8 13/57/8 29/59/8
f 13/57/8 32/60/8 17/58/8
f 18/63/7 27/62/7 31/61/7
f 27/62/7 18/63/7 11/64/7
f 27/67/5 9/66/5 28/65/5
f 9/66/5 27/67/5 11/68/5
f 14/71/1 31/70/1 30/69/1
f 31/70/1 14/71/1 18/72/1
f 28/64/8 14/61/8 30/63/8
f 14/61/8 28/64/8 9/62/8

