# Created by Kenney (www.kenney.nl)

mtllib grass.mtl

g grass

v 0.1171198 0.27 0.468972
v -0.1138803 0.27 0.0688683
v -0.08154028 0.57 0.3169326
v 0.1381198 7.219114E-16 0.432599
v -0.0718803 7.219114E-16 0.06886829
v -0.3644135 0.1728 -0.06886825
v -0.1334135 0.1728 -0.4689721
v -0.3320735 0.3648 -0.3169325
v -0.3224134 0 -0.06886825
v -0.1124135 0 -0.432599
v -0.5146165 0.1728 0.1162988
v -0.3625771 0.3648 0.3149588
v -0.1145128 0.1728 0.3472988
v -0.4782435 7.219114E-16 0.09529883
v -0.1145128 7.219114E-16 0.3052988
v 0.0343031 0 -0.2192956
v 0.2443032 0 0.144435
v 0.0553031 0.1728 -0.2556687
v 0.2863032 0.1728 0.144435
v 0.2539631 0.3648 -0.1036293
v 0.08574896 0.57 -0.4333019
v -0.145251 0.27 -0.337277
v 0.316749 0.27 -0.337277
v -0.124251 7.219114E-16 -0.3009039
v 0.295749 7.219114E-16 -0.300904
v 0.5146165 0.27 0.04671812
v 0.2836166 0.27 0.4468219
v 0.4822766 0.57 0.2947825
v 0.4726166 7.219114E-16 0.04671812
v 0.2626166 7.219114E-16 0.4104489

vn -0.6363521 -0.1502486 0.3673981
vn -0.6186028 -0.2286356 0.3571506
vn 0.6186028 0.2286356 -0.3571506
vn 0.6363521 0.1502486 -0.3673981
vn -0.6437043 -0.1001318 0.3716429
vn 0.6437043 0.1001318 -0.3716429
vn -0.6215667 -0.2176545 -0.3588616
vn -0.5809175 -0.3354798 -0.3353928
vn 0.5809175 0.3354798 0.3353928
vn 0.6215667 0.2176545 0.3588616
vn -0.6355911 -0.1544839 -0.3669587
vn 0.6355911 0.1544839 0.3669587
vn -0.3588616 -0.2176545 0.6215667
vn -0.3353928 -0.3354798 0.5809175
vn 0.3588616 0.2176545 -0.6215667
vn 0.3353928 0.3354798 -0.5809175
vn -0.3669586 -0.1544839 0.6355911
vn 0.3669586 0.1544839 -0.6355911
vn 0.635591 -0.1544839 -0.3669588
vn 0.6215665 -0.2176545 -0.3588617
vn -0.6215665 0.2176545 0.3588617
vn -0.635591 0.1544839 0.3669588
vn 0.5809174 -0.3354798 -0.3353929
vn -0.5809174 0.3354798 0.3353929
vn -5.960464E-08 -0.2286355 -0.714301
vn -5.960464E-08 -0.1502486 -0.7347962
vn 5.960464E-08 0.1502486 0.7347962
vn 5.960464E-08 0.2286355 0.714301
vn -5.960464E-08 -0.1001318 -0.7432857
vn 5.960464E-08 0.1001318 0.7432857
vn 0.6363522 -0.1502486 0.367398
vn 0.6186028 -0.2286356 0.3571504
vn -0.6186028 0.2286356 -0.3571504
vn -0.6363522 0.1502486 -0.367398
vn 0.6437044 -0.1001318 0.3716429
vn -0.6437044 0.1001318 -0.3716429

vt 6.098445 3.906962
vt 0.03545307 3.906962
vt 3.066949 8.040732
vt 5.822855 0.1693993
vt 0.3110436 0.1693993
vt 6.098445 3.744714
vt 0.03545307 3.744714
vt 1.608465 4.082908
vt -4.454527 4.082908
vt -1.423031 6.900148
vt 1.332875 0.8478435
vt -4.178936 0.8478435
vt 1.608465 3.165253
vt -4.454527 3.165253
vt -5.085586 4.129872
vt -2.054089 6.947112
vt 0.9774067 4.129872
vt -5.085586 3.18688
vt 0.9774067 3.18688
vt -4.809995 0.8694699
vt 0.7018162 0.8694699
vt 2.267244 0.3766953
vt -3.244567 0.3766953
vt 2.542835 2.694105
vt -3.520157 2.694105
vt 2.542835 3.059756
vt -3.520157 3.059756
vt -0.4886613 5.876995
vt -1.125315 8.857738
vt 1.906181 4.723968
vt -4.156811 4.723968
vt 1.906181 4.102525
vt 1.63059 0.5272099
vt -4.156811 4.102525
vt -3.881221 0.5272099
vt 2.845789 5.251062
vt -3.217203 5.251062
vt -0.185707 9.384832
vt 2.570199 0.7580528
vt -2.941612 0.7580528
vt 2.845789 4.333367
vt -3.217203 4.333367

usemtl foliage

f 3/3/2 2/2/1 1/1/1
f 1/1/4 2/2/4 3/3/3
f 1/6/1 5/5/5 4/4/5
f 5/5/5 1/6/1 2/7/1
f 4/4/6 5/5/6 1/6/4
f 2/7/4 1/6/4 5/5/6
f 8/10/8 7/9/7 6/8/7
f 6/8/10 7/9/10 8/10/9
f 6/13/7 10/12/11 9/11/11
f 10/12/11 6/13/7 7/14/7
f 9/11/12 10/12/12 6/13/10
f 7/14/10 6/13/10 10/12/12
f 13/17/13 12/16/14 11/15/13
f 11/15/15 12/16/16 13/17/15
f 14/20/17 13/19/13 11/18/13
f 13/19/13 14/20/17 15/21/17
f 11/18/15 13/19/15 14/20/18
f 15/21/18 14/20/18 13/19/15
f 18/24/20 17/23/19 16/22/19
f 17/23/19 18/24/20 19/25/20
f 16/22/22 17/23/22 18/24/21
f 19/25/21 18/24/21 17/23/22
f 20/28/23 19/27/20 18/26/20
f 18/26/21 19/27/21 20/28/24
f 23/31/26 22/30/26 21/29/25
f 21/29/28 22/30/27 23/31/27
f 23/34/26 24/33/29 22/32/26
f 24/33/29 23/34/26 25/35/29
f 22/32/27 24/33/30 23/34/27
f 25/35/30 23/34/27 24/33/30
f 28/38/32 27/37/31 26/36/31
f 26/36/34 27/37/34 28/38/33
f 26/41/31 30/40/35 29/39/35
f 30/40/35 26/41/31 27/42/31
f 29/39/36 30/40/36 26/41/34
f 27/42/34 26/41/34 30/40/36

