# Created by Kenney (www.kenney.nl)

mtllib rockA.mtl

g rockA

v -0.4480706 0 0.1733909
v -0.7628547 0 -0.2739283
v -0.2731584 0.3166664 0.1040325
v -0.6948683 0.09560545 -0.2732996
v -0.4371938 0.3166664 -0.1290674
v 0.08098379 0 -1.020727
v 0.9212642 0 -0.7955748
v 0.112018 0.533621 -0.9253122
v 0.3721412 1.5708 -0.686321
v 0.7017147 1.5708 -0.598012
v -0.3393185 0 -0.9848531
v -0.270841 0.3166664 -0.7197285
v -0.4483128 0.3166664 -0.4218341
v -0.001156074 0 -0.8942428
v -0.09065362 0.3166664 -0.6714475
v 0.8953965 0 0.1005617
v 0.9047104 0 0.78071
v 0.64277 0.6970425 0.1023023
v 0.6500896 0.6970425 0.6368275
v 1.192093E-07 0 1.2
v 0.08012222 0.6970425 0.9009804
v 0.3706322 1.5708 0.08738884
v 0.7237448 1.5708 -0.1776536
v 0.8833737 0.5543021 0.02944511
v -0.573857 0 0.3845292
v -0.45552 0.2820523 0.3856235
v -0.1006428 0.6970425 0.644107
v 0.9667925 0 0.07315534
v -0.04728984 0.6970425 -0.00574401
v 0.1830935 0.6970425 0.2787556
v -0.2055669 0.6970425 0.2599312
v 0.05967864 1.5708 -0.5663778
v -0.3390527 0.3166664 -0.2889464
v -0.1261519 1.5708 -0.2802238
v -0.1662037 0.3166664 -0.07549576
v 0.2187478 1.5708 0.1456918

vn -0.7081105 0.5002703 0.4983063
vn 0.255661 0.1557376 -0.9541402
vn -0.732018 0.523416 -0.4361026
vn 0.2067829 0.6014 -0.7717246
vn 0.9400702 0.3407383 -0.01287317
vn 0.3980007 0.3226512 0.8587735
vn 0.4428201 0.1732202 0.8797189
vn 0.5813778 0.2491057 0.7745622
vn 0.3854648 0.1424685 0.9116578
vn -0.7740653 0.3226512 0.5447195
vn 0 -1 0
vn 0 1 0
vn -0.3427793 0.2917306 -0.8929702
vn -0.8298536 0.1446235 -0.538913
vn -0.8048151 0.5513238 0.219807
vn -0.8076882 0.3407383 -0.4811834
vn 0.9881308 0.1446235 -0.05178589
vn 0.355488 0.1265256 0.9260777
vn -0.6589546 0.7517663 0.0250265
vn -0.7709004 0.1265256 0.6242629

vt -1.142365 -2.295628
vt -6.525993 -2.295628
vt -0.7098827 1.303986
vt -6.135834 -1.208861
vt -3.515314 1.303986
vt 1.830307 -1.543438
vt -6.73192 -1.543438
vt 1.292197 3.773614
vt -1.789645 14.10817
vt -5.147908 14.10817
vt 1.526635 -4.098546
vt -6.618291 -4.098546
vt 1.189469 -2.994187
vt -4.721436 -0.4406667
vt -1.308518 -0.4406667
vt 5.734794 -5.111148
vt 2.289012 -5.111148
vt 4.408382 -1.210024
vt 2.572323 -1.210024
vt -1.110359 -2.998013
vt -7.805359 -2.998013
vt -1.093444 4.299328
vt -6.355011 4.299328
vt -4.966407 -3.457566
vt -3.013364 3.790742
vt 4.848045 -3.457566
vt 3.16974 3.790742
vt 2.401204 14.25638
vt 6.746828 14.25638
vt 6.779756 3.925825
vt 9.659091 -2.193132
vt -0.1553604 -2.193132
vt 7.706048 5.055177
vt 0.5237511 0.7398348
vt 4.614496 5.055177
vt 10.04653 0.7970856
vt 8.801601 -0.01137751
vt 7.830458 9.067561
vt 2.696146 -7.508411
vt 9.693436 -3.339748
vt -0.7200336 9.515674
vt -1.706602 -4.410143
vt -0.989781 8.812957
vt -7.684154 8.904628
vt -3.784735 -5.648199
vt -11.81102 0
vt -0.05653561 -0.4654511
vt 2.743658 1.802101
vt 2.558378 -2.023296
vt 6.339635 -0.9905794
vt 6.267988 6.398519
vt 8.867916 0.7886034
vt 1.006913 6.326476
vt -2.546127 13.33125
vt -4.293111 2.658538
vt -5.840346 13.33125
vt -0.5676137 2.45525
vt -5.056592 2.45525
vt -1.636892 14.93024
vt -8.238598 4.613318
vt -4.995154 14.93024
vt -8.859849 -0.694661
vt -7.375447 -0.694661
vt 5.854665 4.276089
vt 2.48017 -0.6197415
vt 1.934919 4.276089
vt -7.083942 -2.665757
vt -6.608735 -0.8922594
vt -4.15191 -4.412527
vt -2.843961 -3.337132
vt -1.270349 -4.303088
vt -0.7430686 -1.635863
vt 1.023942 -2.688567
vt 6.14227 -0.9933499
vt 3.723299 -0.9933499
vt 5.555398 1.959457
vt 2.255705 2.321832
vt 3.233443 6.303991
vt 0.1988843 2.321832
vt 0.1896534 6.303991
vt -6.755127 3.662807
vt -5.885944 6.906641
vt -5.574584 0.5873888
vt -1.748558 7.123472
vt -2.758108 -1.241652
vt 1.433975 2.153029
vt 0.8601266 3.647955
vt 7.345168 -1.368854
vt -1.217059 -1.368854
vt 5.516412 14.25604
vt -0.7444592 4.144842
vt 1.373348 14.25604
vt 0.699167 6.39972
vt 1.496135 15.06937
vt 5.545428 6.39972
vt 3.097417 15.06937
vt 8.013268 4.983412
vt 7.872899 -0.5165182
vt 8.625609 -0.5165182
vt -2.947581 -4.440548
vt -4.316382 -1.141035
vt -1.432743 -1.141035
vt 3.266321 6.764252
vt -0.3368543 6.764252
vt 2.469353 15.4339
vt -2.92485 15.4339
vt -1.606955 2.990061
vt -4.310298 2.990061

usemtl rock

f 3/3/1 2/2/1 1/1/1
f 2/2/1 3/3/1 4/4/1
f 4/4/1 3/3/1 5/5/1
f 8/8/2 7/7/2 6/6/2
f 7/7/2 8/8/2 9/9/2
f 7/7/2 9/9/2 10/10/2
f 4/13/3 11/12/3 2/11/3
f 11/12/3 4/13/3 12/14/3
f 12/14/3 4/13/3 13/15/3
f 12/18/4 14/17/4 11/16/4
f 14/17/4 12/18/4 15/19/4
f 18/22/5 17/21/5 16/20/5
f 17/21/5 18/22/5 19/23/5
f 17/26/6 21/25/6 20/24/6
f 21/25/6 17/26/6 19/27/6
f 24/30/9 23/29/8 22/28/7
f 21/33/10 25/32/10 20/31/10
f 25/32/10 21/33/10 26/34/10
f 26/34/10 21/33/10 27/35/10
f 7/38/11 14/37/11 6/36/11
f 2/39/11 14/37/11 7/38/11
f 14/37/11 2/39/11 11/40/11
f 2/39/11 7/38/11 28/41/11
f 2/39/11 28/41/11 1/42/11
f 1/42/11 28/41/11 16/43/11
f 1/42/11 16/43/11 17/44/11
f 1/42/11 17/44/11 25/45/11
f 25/45/11 17/44/11 20/46/11
f 31/49/12 30/48/12 29/47/12
f 30/48/12 31/49/12 27/50/12
f 30/48/12 27/50/12 19/51/12
f 19/51/12 27/50/12 21/52/12
f 19/51/12 18/53/12 30/48/12
f 9/56/13 8/55/13 32/54/13
f 34/59/14 15/58/14 33/57/14
f 15/58/14 34/59/14 8/60/14
f 8/60/14 34/59/14 32/61/14
f 6/62/14 15/58/14 8/60/14
f 15/58/14 6/62/14 14/63/14
f 31/66/15 26/65/15 27/64/15
f 13/69/12 15/68/12 12/67/12
f 15/68/12 13/69/12 33/70/12
f 33/70/12 13/69/12 5/71/12
f 33/70/12 5/71/12 35/72/12
f 35/72/12 5/71/12 3/73/12
f 26/76/16 1/75/16 25/74/16
f 1/75/16 26/76/16 3/77/16
f 3/77/16 26/76/16 31/78/16
f 3/77/16 31/78/16 35/79/16
f 35/79/16 31/78/16 29/80/16
f 32/83/12 10/82/12 9/81/12
f 10/82/12 32/83/12 23/84/12
f 23/84/12 32/83/12 34/85/12
f 23/84/12 34/85/12 36/86/12
f 23/84/12 36/86/12 22/87/12
f 10/90/17 28/89/17 7/88/17
f 28/89/17 10/90/17 24/91/17
f 24/91/17 10/90/17 23/92/17
f 18/95/18 36/94/18 30/93/18
f 36/94/18 18/95/18 22/96/7
f 22/96/7 18/95/18 24/97/9
f 24/97/9 18/95/18 16/98/18
f 24/97/9 16/98/18 28/99/18
f 5/102/19 13/101/19 4/100/19
f 36/105/20 29/104/20 30/103/20
f 34/106/20 29/104/20 36/105/20
f 34/106/20 35/107/20 29/104/20
f 35/107/20 34/106/20 33/108/20

