# Created by Kenney (www.kenney.nl)

mtllib rockFlat.mtl

g rockFlat

v 1.402526 0.33 2.713684
v 1.614877 0.33 2.836284
v 1.443508 7.614717E-16 2.876827
v 1.614877 7.670309E-16 2.975766
v -1.894789 6.767919E-16 -2.908467
v -1.30074 6.767919E-16 -2.565493
v -1.894789 0.33 -2.576367
v -1.300468 0.33 -2.233236
v -1.658316 0.33 1.478524
v -1.482969 0.33 1.377288
v -1.658316 0 1.618006
v -1.557081 3.835154E-16 1.559558
v 0.9954688 0.33 -3.338601
v 1.244372 0.33 -3.059321
v 0.5117435 0.33 -3.059321
v 1.513872 0.33 -3.039301
v 1.513872 0.33 -2.592535
v -1.678588 6.767919E-16 2.970577
v -1.678588 6.767919E-16 1.740577
v -1.390981 0.33 2.804527
v -1.390981 0.33 1.906627
v -2.105705 0 0.843106
v -1.658316 0 0.584806
v -1.98491 0.33 0.912847
v -1.658316 0.33 0.724288
v -2.96 6.767919E-16 -2.293467
v -2.672394 0.33 -2.127417
v -0.6133764 0.33 3.253477
v -0.6133764 6.767919E-16 3.585577
v 1.94147 0.33 2.647725
v 2.062265 7.670309E-16 2.717466
v -1.65581 6.882267E-16 -0.5864414
v -1.655539 0.33 -0.9186982
v -1.272706 7.219114E-16 0.07711399
v -0.8990569 0.66 0.0588395
v -1.857478 0.33 -1.268467
v -1.665378 0.66 -1.268467
v -1.500921 5.401433E-16 1.638001
v -1.187929 0.33 1.789395
v -1.412281 0.66 1.190236
v -1.603464 0.33 1.208982
v -0.3203346 0.66 2.715451
v -0.3996919 0.33 2.890393
v 2.062265 7.670309E-16 2.200866
v 1.94147 0.33 2.270607
v 2.278323 0.33 -1.268468
v 1.984561 0.33 -0.7596582
v 2.086223 0.66 -1.268468
v 1.522403 0.66 -0.2919031
v 1.917767 7.219114E-16 -0.3112397
v 2.032768 6.946573E-16 -0.5104265
v -2.672393 0.33 -1.229517
v -1.894789 0.33 -0.7805669
v 0.4164174 6.767919E-16 -3.225685
v 0.9954688 6.767919E-16 -3.560001
v -2.105705 0 1.359706
v -1.98491 0.33 1.289965
v 2.703781 7.670309E-16 0.7866526
v 2.321414 0.66 0.8241439
v 1.867359 0.33 2.227819
v 1.546513 0.66 2.532404
v 1.658339 0.33 2.688601
v -1.440613 0.33 0.8499787
v 0.444565 7.219114E-16 2.974774
v 0.1004404 0.33 2.841355
v 1.70561 6.767919E-16 -3.150001
v -0.7274778 0.66 -2.892958
v -0.9195782 6.767919E-16 -3.225685
v 1.148322 0.66 -2.892958
v -2.96 6.767919E-16 -1.063467
v -1.894789 6.767919E-16 -0.448467
v 1.70561 6.767919E-16 -2.593162
v -1.535239 3.723031E-16 0.6558647
v 2.121216 0.33 -1.877961
v 2.639619 0.33 -1.578661
v 1.975128 0.33 -1.793617
v 2.639619 0.33 -0.9800606
v 2.121216 0.33 -0.6807605
v 2.121216 6.767919E-16 -2.099361
v 2.023334 6.767919E-16 -2.042848
v 2.831357 6.767919E-16 -1.689361
v 2.831357 6.767919E-16 -0.8693607
v 2.121216 6.767919E-16 -0.4593606

vn -0.4695323 0.3437403 0.8132541
vn 0.3769346 0.6570245 -0.65287
vn 0.4695325 0.3437403 0.8132539
vn 0 1 0
vn -0.7538694 0.6570245 1.192093E-07
vn -0.4695325 0.3437403 -0.8132539
vn -0.3769347 0.6570245 -0.6528699
vn -0.3769346 0.6570245 0.65287
vn -0.7733144 0.4501627 0.4464734
vn 0.7733144 -0.4501627 -0.4464734
vn -0.7260555 0.4501627 0.5198048
vn 0.7260555 -0.4501627 -0.5198048
vn 0.9390649 0.3437403 -1.192093E-07
vn 0.7733145 0.4501627 0.4464731
vn -0.7733145 -0.4501627 -0.4464731
vn -0.4323234 0.5023807 -0.7488059
vn -0.9390649 0.3437403 1.192093E-07
vn 0.813192 0.4501627 0.3688801
vn -0.813192 -0.4501627 -0.3688801
vn 0.08713648 0.4501627 0.888685
vn -0.08713648 -0.4501627 -0.888685
vn 0.4323233 0.5023807 -0.748806
vn -0.7733145 0.4501627 -0.4464731
vn 0.7733145 -0.4501627 0.4464731
vn 0.4695323 0.3437403 -0.8132541
vn -1.192093E-07 0.4501628 -0.8929467
vn 1.192093E-07 -0.4501628 0.8929467
vn 0.8646467 0.5023807 -1.192093E-07
vn -0.813192 0.4501627 -0.3688801
vn 0.813192 -0.4501627 0.3688801
vn 0.3769347 0.6570245 0.6528699
vn 0 -1 0
vn 0.7733144 0.4501627 -0.4464734
vn -0.7733144 -0.4501627 0.4464734
vn 0.4323234 0.5023807 0.7488059
vn -0.4323233 0.5023807 0.748806
vn 0.7260555 0.4501627 -0.5198048
vn -0.7260555 -0.4501627 0.5198048

vt 25.3097 -2.528414
vt 27.72309 -2.528414
vt 26.46189 -5.987208
vt 28.40952 -5.987208
vt 30.46426 -10.16197
vt 23.71279 -10.16197
vt 28.82991 -5.853489
vt 22.07536 -5.853489
vt -21.41147 1.523306
vt -19.41863 1.523306
vt -22.0979 -1.935488
vt -20.94734 -1.935488
vt -32.86024 9.797925
vt -30.11143 12.24776
vt -30.11143 5.036849
vt -29.91437 14.90031
vt -25.51707 14.90032
vt 29.23796 -10.85505
vt 17.13166 -10.85505
vt 27.60361 -6.546573
vt 18.76601 -6.546573
vt 22.0979 -1.091787
vt 17.01326 -1.091787
vt 21.41147 2.367007
vt 17.69968 2.367007
vt 1.837614 -22.41515
vt 3.471965 -18.10666
vt 13.94391 -22.41515
vt 12.30956 -18.10666
vt 1.945261 -17.75544
vt 10.78286 -17.75544
vt 0.3109107 -22.06392
vt 12.41721 -22.06392
vt -0.1930949 -7.991976
vt 3.518696 -7.991976
vt -0.8795221 -11.45077
vt 4.205123 -11.45077
vt -13.14742 -5.054373
vt -15.9782 -1.416942
vt -5.606008 -5.054373
vt -3.922953 2.220489
vt -19.95338 -1.416942
vt -19.00801 2.220489
vt 3.559693 -9.632053
vt 2.525617 -5.994623
vt 4.509243 -9.632053
vt 7.514148 -5.994623
vt 1.433668 -2.357192
vt 0.4882939 -5.994623
vt 19.89627 -2.357192
vt 20.84164 -5.994623
vt -21.66207 -6.977199
vt -26.74672 -6.977199
vt -22.3485 -3.518405
vt -26.06029 -3.518405
vt 22.02447 -3.031779
vt 16.24177 -3.031779
vt 21.07909 0.6056525
vt 9.980283 0.6056525
vt 12.09079 -6.669209
vt 14.35458 -6.669209
vt -25.35794 -18.6495
vt -21.98067 -12.79988
vt -20.93914 -26.30308
vt -12.48491 -18.28226
vt -12.10155 -26.30308
vt -9.042307 -16.29467
vt -7.682747 -18.6495
vt -19.42393 -12.78359
vt -26.00494 -12.78359
vt -19.41775 -9.027105
vt -24.91537 -9.027105
vt 13.38293 -7.124169
vt 8.298285 -7.124169
vt 12.6965 -3.665375
vt 8.984712 -3.665375
vt 3.942439 -12.3496
vt -11.34215 -12.3496
vt 2.051691 -5.074742
vt -12.37622 -8.712173
vt -16.41091 -5.074742
vt -17.35628 -8.712173
vt 21.92735 18.37951
vt 22.3485 19.10896
vt 26.46261 16.32223
vt 26.06029 19.10896
vt 27.91618 15.89445
vt 26.70949 13.80439
vt 7.128816 -16.32201
vt 8.365931 -14.17926
vt 8.984712 -19.53651
vt 11.89943 -15.78213
vt 12.6965 -19.53651
vt 13.55598 -14.59616
vt 14.5524 -16.32201
vt 20.85468 4.320387
vt 18.93184 8.628869
vt 22.8739 4.320387
vt 21.23955 8.628869
vt 1.497597 -13.30975
vt 11.13212 -9.672315
vt 11.37687 -13.30975
vt 12.71666 -6.034883
vt -1.745147 -9.672315
vt -5.74594 -6.034883
vt -6.691314 -9.672315
vt 13.66203 -9.672315
vt 17.61215 -11.69222
vt 28.44875 -3.933977
vt 18.76601 -13.69076
vt 27.60361 -13.69076
vt 32.02241 -6.037173
vt 27.96609 0.9885837
vt 9.034432 -17.70588
vt 0.9635666 -17.70588
vt 7.944866 -13.94939
vt 2.053133 -13.94939
vt -1.671122 -7.037184
vt -12.63588 -7.037184
vt -2.616496 -3.399753
vt -21.07909 -3.399753
vt -22.96984 -10.67461
vt -15.46665 -10.67461
vt -27.72309 6.418728
vt -26.8808 6.418728
vt -28.40952 2.959934
vt 9.05096 -14.29215
vt -4.098601 -14.29215
vt 7.160212 -7.017292
vt -5.03685 -10.65472
vt -11.30239 -7.017292
vt -12.24776 -10.65472
vt -11.25729 -7.54602
vt -10.57087 -4.087225
vt -6.172648 -7.54602
vt -6.859076 -4.087225
vt -28.82991 0.6934857
vt -19.99231 0.6934857
vt -30.46426 -3.614996
vt -18.35796 -3.614996
vt 31.00394 -8.433716
vt 25.52324 -8.433716
vt 29.91437 -4.677231
vt 25.51707 -4.677231
vt 17.35628 -1.356789
vt 13.47623 -1.356789
vt 16.41091 2.280642
vt 4.182956 2.280642
vt 5.866012 -4.994221
vt 12.12105 -4.994221
vt -18.48386 20.87811
vt -15.53799 25.9805
vt -17.6537 19.44023
vt -12.48491 22.42443
vt -9.646262 25.9805
vt -7.476948 19.53308
vt -6.700396 20.87811
vt -9.590445 12.94666
vt -11.22788 8.63818
vt -12.30956 12.94666
vt -13.94391 8.63818
vt 20.66299 20.87811
vt 20.10677 19.9147
vt 16.62756 27.86769
vt 10.4672 -29.13386
vt 22.5735 -29.13386
vt 25.25091 -12.80255
vt 25.52324 16.7875
vt 31.00394 16.7875
vt 31.74886 -9.050961
vt 31.74886 4.098601
vt 35.03937 9.797925
vt 8.556696 27.86769
vt 5.772063 -16.29734
vt 4.414046 -18.6495
vt 28.62664 -18.6495
vt 5.02388 20.00755
vt 4.521262 20.87811
vt -0.7589949 -12.52663
vt 3.06338 18.87566
vt -7.742645 26.61201
vt -6.455359 -15.11062
vt -8.298285 -20.72544
vt -5.755961 -16.32201
vt -21.66207 20.29788
vt -13.38293 -20.72544
vt -15.34997 -15.3256
vt -16.12205 -14.77284
vt -17.13166 -16.52154
vt -29.23796 -16.52154
vt -26.74671 20.29788
vt -28.31522 14.20776
vt -29.28904 15.89445
vt -29.27927 4.375637
vt -35.29111 -6.037173
vt -15.92525 -16.32201
vt 19.95338 -8.65202
vt 14.64827 -8.65202
vt 19.00801 -5.01459
vt 5.568438 -8.65202
vt 0.5454087 -5.01459
vt -0.3999653 -8.65202
vt 7.455623 -12.28945
vt 13.71002 -12.28945
vt -28.47399 11.30239
vt -12.48491 20.53369
vt -28.47399 -7.160212
vt -12.48491 -16.39151
vt -2.87306 14.98428
vt 0.5791277 -8.848984
vt 8.111654 22.84856
vt 11.71492 -13.9004
vt 24.92524 15.22158
vt 26.72688 -3.152901
vt -13.12691 -13.78887
vt -10.85022 -18.09735
vt -21.23955 -13.78887
vt -22.8739 -18.09735
vt -7.749477 -14.23432
vt -15.82034 -14.23432
vt -8.839044 -10.47784
vt -14.73078 -10.47784
vt -10.4672 -19.14166
vt -22.5735 -19.14166
vt -12.10155 -14.83318
vt -20.93915 -14.83318
vt 21.43117 0.4791906
vt 27.3229 0.4791906
vt 20.3416 -3.277294
vt 28.41247 -3.277294
vt 11.25729 4.518745
vt 9.8585 4.518745
vt 10.57087 7.97754
vt 8.096637 7.97754
vt 16.62756 -14.00019
vt 8.556695 -14.00019
vt 15.53799 -10.2437
vt 9.646262 -10.2437
vt 13.17767 10.96795
vt 14.73078 10.96795
vt 14.81511 7.211465
vt 15.82034 7.211465
vt -25.66259 0.01092385
vt -27.30002 -3.745561
vt -27.3229 0.01092385
vt -28.41247 -3.745561
vt -8.497118 -7.711771
vt -21.78701 -7.711771
vt -6.386607 -0.436909
vt -19.89627 -0.436909

usemtl rock

f 3/3/1 2/2/1 1/1/1
f 2/2/1 3/3/1 4/4/1
f 7/7/2 6/6/2 5/5/2
f 6/6/2 7/7/2 8/8/2
f 11/11/3 10/10/3 9/9/3
f 10/10/3 11/11/3 12/12/3
f 15/15/4 14/14/4 13/13/4
f 14/14/4 16/16/4 13/13/4
f 16/16/4 14/14/4 17/17/4
f 20/20/5 19/19/5 18/18/5
f 19/19/5 20/20/5 21/21/5
f 24/24/6 23/23/6 22/22/6
f 23/23/6 24/24/6 25/25/6
f 26/28/7 7/27/7 5/26/7
f 7/27/7 26/28/7 27/29/7
f 18/32/8 28/31/8 20/30/8
f 28/31/8 18/32/8 29/33/8
f 4/36/3 30/35/3 2/34/3
f 30/35/3 4/36/3 31/37/3
f 34/40/9 33/39/9 32/38/9
f 33/39/9 34/40/9 35/41/9
f 33/39/9 35/41/9 36/42/9
f 36/42/9 35/41/9 37/43/9
f 32/38/10 33/39/10 34/40/10
f 35/41/10 34/40/10 33/39/10
f 36/42/10 35/41/10 33/39/10
f 37/43/10 35/41/10 36/42/10
f 38/46/11 10/45/11 12/44/11
f 10/45/11 38/46/11 39/47/11
f 40/48/11 10/45/11 39/47/11
f 10/45/11 40/48/11 41/49/11
f 40/48/11 39/47/11 42/50/11
f 42/50/11 39/47/11 43/51/11
f 12/44/12 10/45/12 38/46/12
f 39/47/12 38/46/12 10/45/12
f 39/47/12 10/45/12 40/48/12
f 41/49/12 40/48/12 10/45/12
f 42/50/12 39/47/12 40/48/12
f 43/51/12 39/47/12 42/50/12
f 45/54/13 31/53/13 44/52/13
f 31/53/13 45/54/13 30/55/13
f 48/58/14 47/57/14 46/56/14
f 49/59/14 47/57/14 48/58/14
f 50/60/14 47/57/14 49/59/14
f 47/57/14 50/60/14 51/61/14
f 46/56/15 47/57/15 48/58/15
f 48/58/15 47/57/15 49/59/15
f 49/59/15 47/57/15 50/60/15
f 51/61/15 50/60/15 47/57/15
f 27/64/4 8/63/4 7/62/4
f 8/63/4 27/64/4 36/65/4
f 36/65/4 27/64/4 52/66/4
f 36/65/4 52/66/4 33/67/4
f 33/67/4 52/66/4 53/68/4
f 15/71/16 55/70/16 54/69/16
f 55/70/16 15/71/16 13/72/16
f 57/75/17 22/74/17 56/73/17
f 22/74/17 57/75/17 24/76/17
f 59/79/18 44/78/18 58/77/18
f 44/78/18 59/79/18 60/80/18
f 61/81/18 60/80/18 59/79/18
f 60/80/18 61/81/18 62/82/18
f 58/77/19 44/78/19 59/79/19
f 60/80/19 59/79/19 44/78/19
f 59/79/19 60/80/19 61/81/19
f 62/82/19 61/81/19 60/80/19
f 62/85/4 45/84/4 60/83/4
f 45/84/4 62/85/4 30/86/4
f 30/86/4 62/85/4 2/87/4
f 2/87/4 62/85/4 1/88/4
f 24/91/4 63/90/4 25/89/4
f 63/90/4 24/91/4 41/92/4
f 41/92/4 24/91/4 57/93/4
f 41/92/4 57/93/4 10/94/4
f 10/94/4 57/93/4 9/95/4
f 19/98/7 39/97/7 38/96/7
f 39/97/7 19/98/7 21/99/7
f 3/102/20 1/101/20 64/100/20
f 61/103/20 64/100/20 1/101/20
f 61/103/20 65/104/20 64/100/20
f 42/105/20 65/104/20 61/103/20
f 65/104/20 42/105/20 43/106/20
f 61/103/20 1/101/20 62/107/20
f 64/100/21 1/101/21 3/102/21
f 1/101/21 64/100/21 61/103/21
f 64/100/21 65/104/21 61/103/21
f 61/103/21 65/104/21 42/105/21
f 43/106/21 42/105/21 65/104/21
f 62/107/21 1/101/21 61/103/21
f 21/110/4 43/109/4 39/108/4
f 43/109/4 21/110/4 20/111/4
f 43/109/4 20/111/4 28/112/4
f 28/112/4 65/113/4 43/109/4
f 13/116/22 66/115/22 55/114/22
f 66/115/22 13/116/22 16/117/22
f 37/120/23 8/119/23 36/118/23
f 67/121/23 8/119/23 37/120/23
f 68/122/23 8/119/23 67/121/23
f 8/119/23 68/122/23 6/123/23
f 36/118/24 8/119/24 37/120/24
f 37/120/24 8/119/24 67/121/24
f 67/121/24 8/119/24 68/122/24
f 6/123/24 68/122/24 8/119/24
f 44/126/25 60/125/25 45/124/25
f 67/129/26 54/128/26 68/127/26
f 54/128/26 67/129/26 15/130/26
f 15/130/26 67/129/26 69/131/26
f 15/130/26 69/131/26 14/132/26
f 68/127/27 54/128/27 67/129/27
f 15/130/27 67/129/27 54/128/27
f 69/131/27 67/129/27 15/130/27
f 14/132/27 69/131/27 15/130/27
f 11/135/1 57/134/1 56/133/1
f 57/134/1 11/135/1 9/136/1
f 70/139/8 53/138/8 52/137/8
f 53/138/8 70/139/8 71/140/8
f 16/143/28 72/142/28 66/141/28
f 72/142/28 16/143/28 17/144/28
f 40/147/29 63/146/29 41/145/29
f 35/148/29 63/146/29 40/147/29
f 34/149/29 63/146/29 35/148/29
f 63/146/29 34/149/29 73/150/29
f 41/145/30 63/146/30 40/147/30
f 40/147/30 63/146/30 35/148/30
f 35/148/30 63/146/30 34/149/30
f 73/150/30 34/149/30 63/146/30
f 76/153/4 75/152/4 74/151/4
f 75/152/4 76/153/4 46/154/4
f 75/152/4 46/154/4 77/155/4
f 77/155/4 46/154/4 47/156/4
f 77/155/4 47/156/4 78/157/4
f 53/160/31 32/159/31 33/158/31
f 32/159/31 53/160/31 71/161/31
f 81/164/32 80/163/32 79/162/32
f 70/165/32 80/163/32 81/164/32
f 26/166/32 80/163/32 70/165/32
f 6/167/32 80/163/32 26/166/32
f 6/167/32 72/168/32 80/163/32
f 6/167/32 66/169/32 72/168/32
f 68/170/32 66/169/32 6/167/32
f 54/171/32 66/169/32 68/170/32
f 66/169/32 54/171/32 55/172/32
f 70/165/32 81/164/32 82/173/32
f 70/165/32 82/173/32 32/174/32
f 70/165/32 32/174/32 71/175/32
f 26/166/32 5/176/32 6/167/32
f 82/173/32 51/177/32 32/174/32
f 51/177/32 82/173/32 83/178/32
f 51/177/32 34/179/32 32/174/32
f 34/179/32 51/177/32 50/180/32
f 34/179/32 50/180/32 58/181/32
f 34/179/32 58/181/32 73/182/32
f 22/183/32 73/182/32 58/181/32
f 73/182/32 22/183/32 23/184/32
f 22/183/32 58/181/32 44/185/32
f 22/183/32 44/185/32 56/186/32
f 56/186/32 44/185/32 12/187/32
f 12/187/32 44/185/32 38/188/32
f 38/188/32 44/185/32 19/189/32
f 19/189/32 44/185/32 18/190/32
f 18/190/32 44/185/32 31/191/32
f 18/190/32 31/191/32 3/192/32
f 4/193/32 3/192/32 31/191/32
f 18/190/32 3/192/32 64/194/32
f 18/190/32 64/194/32 29/195/32
f 11/196/32 56/186/32 12/187/32
f 69/199/33 17/198/33 14/197/33
f 17/198/33 69/199/33 76/200/33
f 48/201/33 76/200/33 69/199/33
f 76/200/33 48/201/33 46/202/33
f 80/203/33 17/198/33 76/200/33
f 17/198/33 80/203/33 72/204/33
f 14/197/34 17/198/34 69/199/34
f 76/200/34 69/199/34 17/198/34
f 69/199/34 76/200/34 48/201/34
f 46/202/34 48/201/34 76/200/34
f 76/200/34 17/198/34 80/203/34
f 72/204/34 80/203/34 17/198/34
f 67/207/4 48/206/4 69/205/4
f 48/206/4 67/207/4 37/208/4
f 48/206/4 37/208/4 49/209/4
f 49/209/4 37/208/4 35/210/4
f 49/209/4 35/210/4 59/211/4
f 59/211/4 35/210/4 40/212/4
f 59/211/4 40/212/4 61/213/4
f 61/213/4 40/212/4 42/214/4
f 69/205/32 48/206/32 67/207/32
f 37/208/32 67/207/32 48/206/32
f 49/209/32 37/208/32 48/206/32
f 35/210/32 37/208/32 49/209/32
f 59/211/32 35/210/32 49/209/32
f 40/212/32 35/210/32 59/211/32
f 61/213/32 40/212/32 59/211/32
f 42/214/32 40/212/32 61/213/32
f 28/217/31 64/216/31 65/215/31
f 64/216/31 28/217/31 29/218/31
f 74/221/22 81/220/22 79/219/22
f 81/220/22 74/221/22 75/222/22
f 52/225/5 26/224/5 70/223/5
f 26/224/5 52/225/5 27/226/5
f 83/229/35 77/228/35 78/227/35
f 77/228/35 83/229/35 82/230/35
f 25/233/25 73/232/25 23/231/25
f 73/232/25 25/233/25 63/234/25
f 75/237/28 82/236/28 81/235/28
f 82/236/28 75/237/28 77/238/28
f 51/241/36 78/240/36 47/239/36
f 78/240/36 51/241/36 83/242/36
f 74/245/16 80/244/16 76/243/16
f 80/244/16 74/245/16 79/246/16
f 49/249/37 58/248/37 50/247/37
f 58/248/37 49/249/37 59/250/37
f 50/247/38 58/248/38 49/249/38
f 59/250/38 49/249/38 58/248/38

