# Created by Kenney (www.kenney.nl)

mtllib rockC.mtl

g rockC

v -0.5566332 2.166441E-15 -1.409639
v 0.3132891 2.166441E-15 -1.409639
v -0.4761654 1.02 -1.285812
v -0.1357332 2.04 -1.161985
v 0.1523535 2.04 -1.161985
v 0.684589 2.166441E-15 -0.8493133
v 0.49535 2.166441E-15 -0.8493133
v 1.025991 2.166441E-15 0.2014152
v -1.157235 2.166441E-15 -0.3340075
v -0.6964271 2.166441E-15 0.0007890463
v -0.7616146 2.166441E-15 0.2014154
v 0.7992249 1.805132E-15 0.3661706
v -0.5286723 1.805132E-15 0.3706577
v 1.029808 1.443823E-15 1.075833
v -0.7577978 1.443823E-15 1.075833
v 0.1360054 1.443823E-15 1.725219
v -0.9421518 2.166441E-15 -0.9959665
v -0.6910436 2.166441E-15 -0.9959666
v -0.7214879 0.8144816 -0.6056358
v -0.6590441 0.8144816 -0.7978182
v -0.5650546 2.04 -0.6407572
v -0.4760309 2.04 -0.9147439
v -0.9488897 0.8144816 -0.3807841
v -0.8133872 0.8144816 -0.7978181
v -0.6248003 0.5359099 0.1706986
v -0.5941392 0.4004686 -0.02232111
v -0.4230365 0.8144816 -0.2473563
v -0.3683159 1.2954 -0.06546989
v -0.2784279 1.2954 -0.3421169
v -0.3858563 0.8144816 -0.3617851
v 0.3002785 1.2954 -0.5347921
v 0.4565499 0.9836522 -0.6104839
v 0.4802008 1.2954 -0.5347921
v -0.1216719 2.04 -0.3186209
v -0.1216719 1.2954 -0.228227
v 0.3217106 2.04 -0.6407573
v 0.1321885 1.2954 0.53628
v 0.5314177 1.2954 0.2462229
v 0.1321885 0.6477 0.6935405
v 0.5098562 0.6477 0.4191489
v 0.9700297 0.2192059 0.1888509
v -0.5941392 0.8144816 -0.1230428
v 0.1360054 0.2192059 1.618773
v -0.2670407 0.6477 1.117868
v 0.3075502 0.6477 1.286063
v 0.6326929 1.2954 -0.06546998
v -0.4270906 0.6477 1.001585
v -0.2393036 0.6477 0.4236358
v 0.6991012 0.6477 1.001585
v -0.2670408 1.2954 0.246223

vn -1.192093E-07 0.1205144 -0.9927118
vn 0 -1 0
vn -0.9450902 0.1118372 -0.3070782
vn -0.9277538 0.2200083 -0.3014454
vn -0.927843 0.2195926 -0.3014743
vn -1.192093E-07 0.2359435 -0.9717668
vn -0.5849707 0.09774375 0.8051433
vn 0.584971 0.09774375 0.8051432
vn 0.5767638 0.1927448 0.793847
vn -0.5767209 0.193114 0.7937885
vn -0.2132455 0.651019 0.7284921
vn 0.8916293 0.3479466 0.2897078
vn 0 1 0
vn -0.5470821 0.3656516 0.7529942
vn 0.9278429 0.2195926 -0.3014745
vn -0.8672329 0.4104959 -0.2817809
vn 0.8672328 0.4104959 -0.2817811
vn -0.5767636 0.1927448 0.7938472
vn -1.192093E-07 0.2363867 -0.9716592
vn -0.5638593 0.2824081 -0.7760854
vn 0.5470824 0.3656516 0.752994
vn 0.5767211 0.193114 0.7937884
vn 0.9450902 0.1118372 -0.3070785
vn -0.8777108 0.3850884 0.2851856

vt 5.478671 -1.672065
vt -3.083555 -1.672065
vt 4.686665 8.441013
vt 1.335955 18.55409
vt -1.499543 18.55409
vt 8.359381 6.738081
vt 8.359381 4.875493
vt -1.982433 10.09834
vt 3.287477 -11.39011
vt -0.007765431 -6.854597
vt -1.982433 -7.496205
vt -3.604043 7.866385
vt -3.648205 -5.203468
vt -10.58891 10.13591
vt -10.58891 -7.45864
vt -16.9805 1.338633
vt 9.80282 -9.273146
vt 9.80282 -6.801608
vt 13.8744 -5.478671
vt 13.8744 3.083555
vt -3.474821 7.004936
vt -5.463724 7.004936
vt -4.279379 19.14327
vt -10.58796 9.040524
vt -7.114877 19.14327
vt -11.50234 -1.062225
vt -7.221223 -1.062225
vt 0.393161 -2.606773
vt -6.457476 -2.606773
vt -0.6783878 5.611133
vt -4.994289 5.611133
vt 4.201861 -1.431021
vt 2.125572 -1.431021
vt 3.498207 3.975651
vt 1.598134 2.609215
vt -1.028784 6.786097
vt 0.5073847 11.63797
vt -2.355645 11.63797
vt -2.213011 6.786097
vt -2.955498 11.14809
vt -4.493602 7.99056
vt -4.726386 11.14809
vt -4.875493 -1.972341
vt -6.738081 -1.972341
vt -9.248816 8.041553
vt -8.206361 20.16178
vt -5.165514 8.041553
vt -2.812159 20.16178
vt -4.196301 12.79778
vt -2.289204 12.79778
vt 0.3515143 12.93538
vt 0.8744689 20.29938
vt 5.484973 12.93538
vt 6.268672 20.29938
vt 7.167225 9.852235
vt -2.049948 11.54045
vt 2.807084 11.54045
vt -2.959746 5.043627
vt 1.634967 5.043627
vt 4.245636 -1.453195
vt 6.63156 0.7455727
vt 7.004484 -1.453195
vt -11.14712 -0.7792755
vt -9.758731 7.391072
vt -5.540921 -0.7792755
vt -5.44283 7.391072
vt -4.860126 3.237964
vt 5.760777 -8.0723
vt 0.5685027 -2.516147
vt 6.46124 -2.516147
vt 2.537189 9.961878
vt 1.182555 -1.336574
vt -0.6885318 9.961878
vt -7.852541 -8.005777
vt -7.852541 -6.486653
vt -3.747875 -9.339464
vt -5.960981 -7.101258
vt -3.560877 -3.797797
vt -1.211052 -5.847826
vt -2.43461 -4.163744
vt 0.1898383 -4.735439
vt 2.393633 2.113863
vt 11.06387 -4.735439
vt 4.340805 2.113863
vt 10.44805 -2.417378
vt -11.43686 1.499543
vt -6.306665 3.166443
vt -11.43686 -1.335955
vt -9.003385 -4.685342
vt -6.306665 -5.56156
vt -3.136033 -1.197558
vt 5.868062 -1.974464
vt -5.005965 -1.974464
vt 3.545543 11.09453
vt -4.718145 0.2370547
vt -1.311489 11.09453
vt 12.3755 -1.568684
vt 5.077609 -1.568684
vt 10.67463 5.422503
vt 4.693409 5.422503
vt -13.20282 -2.613901
vt -11.50195 4.377285
vt -5.858496 -2.613901
vt -5.474296 4.377285
vt -4.899312 -1.158393
vt -3.987598 4.217107
vt -2.065333 -1.158393
vt -0.7019125 11.83525
vt 0.5453354 5.338429
vt 4.155119 11.83525
vt 5.064917 5.338429
vt 9.273146 -2.317256
vt 6.801608 -2.317256
vt 8.005777 5.933119
vt 6.486653 5.933119
vt -1.501535 16.42665
vt -3.6472 5.961278
vt -5.641605 16.42665
vt -8.282092 -2.992789
vt -4.991297 1.538453
vt -8.897911 -5.310849
vt 1.976116 -5.310849
vt -0.2276791 1.538453
vt 4.169642 -2.355351
vt 6.826186 1.301067
vt 9.858118 -4.203649
vt 9.858118 6.880915
vt 12.6581 3.027067
vt 11.00264 -2.628354
vt 4.125481 5.018269
vt -4.601857 4.565533
vt -4.019153 8.71864
vt -1.937512 8.71864
vt 12.24247 -0.8074716
vt 6.443634 -0.8074716
vt 10.41371 19.39803
vt 4.326014 8.935266
vt 5.01951 19.39803
vt -3.367292 -2.740432
vt -2.246329 -1.197558
vt -0.6443889 -3.625157
vt -0.6443889 6.227292
vt 2.423454 5.230489
vt 2.423454 -2.628354
vt 5.278346 1.301067
vt -5.263701 2.955498
vt -5.263701 4.726386
vt 1.492636 10.51572
vt -0.3024602 2.415749
vt -1.733085 10.51572

usemtl rock

f 3/3/1 2/2/1 1/1/1
f 2/2/1 3/3/1 4/4/1
f 2/2/1 4/4/1 5/5/1
f 8/8/2 7/7/2 6/6/2
f 7/7/2 8/8/2 9/9/2
f 9/9/2 8/8/2 10/10/2
f 10/10/2 8/8/2 11/11/2
f 11/11/2 8/8/2 12/12/2
f 11/11/2 12/12/2 13/13/2
f 13/13/2 12/12/2 14/14/2
f 13/13/2 14/14/2 15/15/2
f 15/15/2 14/14/2 16/16/2
f 17/17/2 7/7/2 9/9/2
f 18/18/2 7/7/2 17/17/2
f 1/19/2 7/7/2 18/18/2
f 7/7/2 1/19/2 2/20/2
f 21/23/3 20/22/3 19/21/3
f 20/22/3 21/23/3 3/24/3
f 3/24/3 21/23/3 22/25/3
f 1/26/3 20/22/3 3/24/3
f 20/22/3 1/26/3 18/27/3
f 23/30/4 17/29/4 9/28/4
f 17/29/4 23/30/4 24/31/4
f 25/34/5 10/33/5 11/32/5
f 10/33/5 25/34/5 26/35/5
f 26/35/5 25/34/5 27/36/5
f 27/36/5 25/34/5 28/37/5
f 29/38/5 27/36/5 28/37/5
f 27/36/5 29/38/5 30/39/5
f 33/42/6 32/41/6 31/40/6
f 32/41/6 33/42/6 7/43/6
f 7/43/6 33/42/6 6/44/6
f 30/47/7 21/46/7 19/45/7
f 21/46/7 30/47/7 34/48/7
f 34/48/7 30/47/7 29/49/7
f 34/48/7 29/49/7 35/50/7
f 31/53/8 34/52/8 35/51/8
f 34/52/8 31/53/8 36/54/8
f 36/54/8 31/53/8 32/55/8
f 39/58/9 38/57/9 37/56/9
f 38/57/9 39/58/9 40/59/9
f 38/57/9 40/59/9 12/60/9
f 38/57/9 12/60/9 41/61/9
f 41/61/9 12/60/9 8/62/9
f 10/65/10 23/64/10 9/63/10
f 23/64/10 10/65/10 42/66/10
f 42/66/10 10/65/10 26/67/10
f 45/70/11 44/69/11 43/68/11
f 38/73/12 41/72/12 46/71/12
f 23/76/13 20/75/13 24/74/13
f 20/75/13 23/76/13 19/77/13
f 19/77/13 23/76/13 30/78/13
f 30/78/13 23/76/13 42/79/13
f 30/78/13 42/79/13 27/80/13
f 16/83/14 47/82/14 15/81/14
f 47/82/14 16/83/14 44/84/14
f 44/84/14 16/83/14 43/85/14
f 4/88/13 36/87/13 5/86/13
f 36/87/13 4/88/13 22/89/13
f 36/87/13 22/89/13 21/90/13
f 36/87/13 21/90/13 34/91/13
f 33/94/15 8/93/15 6/92/15
f 8/93/15 33/94/15 41/95/15
f 41/95/15 33/94/15 46/96/15
f 47/99/16 13/98/16 15/97/16
f 13/98/16 47/99/16 48/100/16
f 12/103/17 49/102/17 14/101/17
f 49/102/17 12/103/17 40/104/17
f 13/107/18 25/106/18 11/105/18
f 25/106/18 13/107/18 50/108/18
f 50/108/18 13/107/18 48/109/18
f 50/108/18 48/109/18 37/110/18
f 37/110/18 48/109/18 39/111/18
f 24/114/19 18/113/19 17/112/19
f 18/113/19 24/114/19 20/115/19
f 4/118/20 3/117/20 22/116/20
f 16/121/21 45/120/21 43/119/21
f 45/120/21 16/121/21 14/122/21
f 45/120/21 14/122/21 49/123/21
f 47/126/13 39/125/13 48/124/13
f 39/125/13 47/126/13 49/127/13
f 49/127/13 47/126/13 45/128/13
f 45/128/13 47/126/13 44/129/13
f 49/127/13 40/130/13 39/125/13
f 27/133/22 42/132/22 26/131/22
f 5/136/23 7/135/23 2/134/23
f 7/135/23 5/136/23 32/137/23
f 32/137/23 5/136/23 36/138/23
f 28/141/13 35/140/13 29/139/13
f 35/140/13 28/141/13 46/142/13
f 46/142/13 28/141/13 38/143/13
f 38/143/13 28/141/13 50/144/13
f 38/143/13 50/144/13 37/145/13
f 46/142/13 31/146/13 35/140/13
f 31/146/13 46/142/13 33/147/13
f 28/150/24 25/149/24 50/148/24

