# Created by Kenney (www.kenney.nl)

mtllib rockB.mtl

g rockB

v 0.4992872 0.3966631 1.092905
v 0.938596 0.3966631 0.837758
v 0.7444496 0.1983315 1.336596
v 0.8077716 0 -1.034959
v 1.338223 0 -0.3048557
v 0.7968073 0.1983315 -0.9861234
v 1.081306 1.097088 -0.3048557
v 0.8365992 1.097088 -0.6416657
v -0.6949411 0.6252204 -0.4646332
v 0.1179281 0.6252204 -0.7287504
v -0.5180335 1.674432 -0.3496715
v 0.07616585 1.674432 -0.5427387
v 0.1126833 0.7569906 0.6308241
v -0.2998693 1.674432 0.3459923
v 0.1649358 1.674432 0.3459923
v -0.340182 3.731391E-18 0.839748
v -0.2276275 0.1326542 0.6228627
v -0.340182 7.462781E-18 1.148211
v -0.003621106 0.3966631 0.9295
v -0.003621166 0.3966631 0.6522558
v 0.1530344 0.8692042 -0.6238089
v 0.1535797 0.6252204 -0.6796802
v 0.2064004 1.097088 -0.5891296
v 0.3376542 0.6252204 -0.7394897
v 0.6023443 1.097088 -0.7177796
v 0.5560008 1.147755E-20 -0.9531537
v -0.6727232 0.7569906 0.3756301
v -0.5180334 1.674432 0.2751066
v -0.3387401 0.7569906 0.4841478
v 0.1270256 0.3966631 0.6947055
v -1.419765 0 -0.03699684
v -1.222101 0 -0.1012219
v -1.162849 0.7569906 0.1299577
v -1.066998 0.2595769 -0.06574321
v -0.6727233 0.7569906 -0.02929378
v -0.7142739 0.5105601 -0.09731871
v -1.419765 0 0.8654605
v -1.377136 0.1256048 0.8377583
v -1.162849 0.7569906 0.4581861
v 0.2064004 1.097088 -0.4974717
v 0.5407473 1.097088 -0.03728265
v 0.4434013 1.674432 -0.03728262
v 0.02593515 0 -1.682726
v -0.06225563 0.6252204 -1.289918
v -0.694941 0.6252204 -0.1578197
v -1.222101 0 -1.277214
v 1.09552 3.731391E-18 0.02919555
v 1.479066 7.462781E-18 0.5571009
v 0.7841753 7.462781E-18 1.513536
v -0.5614774 0 1.144335
v -1.103594 0.1983315 -1.200204
v -0.4673215 0.6252204 -1.158304
v -0.8485187 0.6252204 -0.8600687
v 0.8807945 0.3966631 0.1968871
v 0.7471218 1.097088 0.1551095
v 0.7858431 0.3966631 0.3275764
v -0.6221272 0.7569906 0.8741968
v 0.4670761 1.097088 0.0641171
v 0.4686415 0.3966631 0.2245114
v -0.8485186 0.6252204 -0.20772
v 1.142505 0.3966631 0.5571009
v -0.934291 0.7569906 0.7727687

vn 0.2565081 0.8597364 0.4416526
vn 0.7948774 0.1861449 -0.5775123
vn -0.3053098 0.1544348 -0.9396468
vn -0.2634756 0.1759882 0.9484771
vn -0.1972121 0.208707 0.9578878
vn 1.192093E-07 0.2965023 0.9550323
vn -0.7625109 0.6469755 1.192093E-07
vn -0.3019827 0.2121554 -0.9294068
vn -0.3053096 0.1544348 0.9396468
vn -0.294771 0.3001288 -0.9072116
vn -0.9469481 0.3213868 1.192093E-07
vn 0.8015937 0.1351567 -0.5823921
vn 0 1 0
vn 0.7283771 0.435221 -0.529197
vn -0.9860815 0.1662632 1.192093E-07
vn 0 -1 0
vn -0.436644 0.7055908 -0.5581071
vn 0.7948775 0.1861449 0.5775121
vn 0.7801436 0.2647746 0.5668073
vn -0.3019824 0.2121554 0.9294068
vn -0.2703154 0.4845579 0.8319455
vn -0.9736584 0.2280119 1.192093E-07
vn -0.8584303 0.5129305 1.192093E-07
vn -0.2703156 0.4845579 -0.8319455
vn -0.6851398 0.531785 0.4977834
vn 0.2915935 0.3310403 -0.8974329
vn 0.6669953 0.5659325 -0.4846006
vn -0.2947708 0.3001288 0.9072117
vn -0.242883 0.6182444 0.747517
vn 0.8015938 0.1351567 0.5823919
vn 0.6669954 0.5659325 0.4846005

vt -1.152944 -8.125066
vt 3.847326 -8.125066
vt -0.2709434 -11.94715
vt 3.567943 -2.31185
vt -5.31451 -2.31185
vt 3.242508 -0.3250432
vt -3.828173 8.678342
vt 0.2694656 8.678342
vt 5.092014 5.081804
vt -3.320399 5.081804
vt 3.785675 15.53409
vt -2.363716 15.53409
vt 1.109087 5.274701
vt -2.95147 14.72981
vt 1.623384 14.72981
vt 8.265235 -2.166235
vt 6.130538 -0.4539289
vt 11.30128 -2.166235
vt 9.148622 2.953908
vt 6.41984 2.953908
vt -3.329842 7.22031
vt -3.504879 4.762955
vt -3.723912 9.515507
vt -5.409873 4.762955
vt -7.821551 9.515507
vt -8.103631 -1.534136
vt -10.70922 -1.534136
vt -10.45805 0.4634184
vt -5.154741 6.502298
vt -4.012465 15.64188
vt -1.698338 6.502298
vt -1.754677 15.64188
vt -0.2363341 0.2826375
vt 2.973459 6.502298
vt 1.949942 2.912703
vt 3.30201 2.912703
vt 13.1776 -1.399965
vt 11.13197 -1.399965
vt 11.28045 6.410818
vt 9.78799 1.278403
vt 6.208125 6.410818
vt 6.390174 3.868098
vt 8.51831 -4.491081
vt -0.3641439 -4.491081
vt 8.24565 -3.185552
vt 1.27911 3.377033
vt 4.509704 3.377033
vt 5.12062 5.400537
vt 4.523631 5.400537
vt 3.881059 15.82306
vt 4.081895 7.824191
vt 2.767164 10.08791
vt -2.831506 10.08791
vt -2.268332 15.82306
vt -5.341916 0.7496644
vt -0.3669544 4.364186
vt -3.44165 -5.098754
vt 2.707741 -5.098754
vt 3.405436 1.623384
vt 3.405436 -2.95147
vt 13.24911 -4.326781
vt 4.373113 -4.326781
vt 10.63148 2.508254
vt 3.934955 2.508254
vt -0.9578615 3.786382
vt -1.553344 4.930857
vt -0.2883252 6.246115
vt -4.573161 4.930857
vt -3.44165 15.40351
vt 3.697146 6.246115
vt 2.707741 15.40351
vt 10.1866 7.950508
vt 9.381433 5.47245
vt 3.000546 13.17148
vt 0.9962801 -12.02855
vt 12.57101 -12.02855
vt 16.56227 0.2552695
vt -0.2873588 10.78268
vt 0.3641439 -13.97407
vt -8.51831 -13.97407
vt -5.483277 14.55774
vt -8.265235 -3.348249
vt -14.89701 7.718258
vt -11.30128 -3.348249
vt -11.26314 -5.526353
vt 1.275934 -9.904093
vt -3.402301 -3.974731
vt 1.361475 -3.974731
vt 10.1695 -1.655251
vt 6.105422 -1.655251
vt 8.683159 9.334941
vt 3.527883 2.318362
vt 3.087214 9.334941
vt 1.937913 2.318362
vt -12.36038 -0.5691046
vt -10.56021 7.157345
vt -8.654767 -0.5691046
vt -6.2766 0.7848703
vt -5.814864 7.157345
vt 4.567215 10.72636
vt 7.465418 10.72636
vt 5.069708 3.671824
vt 8.35244 3.671824
vt -7.064759 5.928586
vt -6.315606 8.234243
vt -5.798519 2.0315
vt -3.000546 10.64277
vt -4.896374 2.0315
vt -0.3669544 5.322316
vt 1.526669 7.35356
vt 0.6310745 4.597205
vt -10.18791 0.9605898
vt -8.574587 5.074696
vt -6.982165 3.784575
vt -6.985208 5.074696
vt -4.896374 10.97688
vt -6.139851 8.673244
vt -5.798519 10.97688
vt 6.41984 -0.03564198
vt 6.837652 1.250251
vt 9.148622 -0.03564198
vt 8.24565 9.238147
vt 10.75694 4.914242
vt 5.483277 11.24513
vt 3.224179 7.734675
vt 2.209759 4.612612
vt 1.937866 8.669236
vt -0.9962801 -6.169811
vt -12.57101 -6.169811
vt -0.6470798 -3.193574
vt -11.81303 -3.895797
vt -8.465243 0.9987901
vt -2.044489 0.9987901
vt 7.555179 -7.594363
vt -5.360797 -7.594363
vt 6.680084 -5.362798
vt 0.851509 -0.5595769
vt -3.340533 -0.5595769
vt 0.7482321 -0.02384057
vt -1.296258 -7.361871
vt -3.078987 -0.02384057
vt -3.45529 7.358543
vt -4.459448 -2.016055
vt -5.879601 7.358543
vt -0.2883252 -6.621292
vt 3.697146 -6.621292
vt 1.27911 -11.44536
vt 4.509704 -11.44536
vt 4.765234 -3.334057
vt 7.605989 -9.195778
vt 8.604298 -6.1233
vt -6.570378 -4.84125
vt -12.99289 -4.84125
vt -6.663416 -0.1057821
vt -11.04578 -0.1057821
vt -10.65783 -3.727485
vt -10.34304 -2.431469
vt -1.775373 -3.727485
vt -6.395324 4.083297
vt -3.16473 4.083297
vt 0.3079147 -7.284667
vt 2.793182 -2.317447
vt 11.94393 -7.284667
vt 7.997798 -2.317447
vt 11.0339 -4.801057
vt -12.69604 -0.612751
vt -7.27844 3.323369
vt -11.40063 -4.599619
vt -8.465243 -8.35156
vt -7.17274 1.16071
vt -4.573161 -6.839971
vt -2.044489 -8.35156
vt -1.553344 -6.839971
vt -6.689765 1.511612
vt 3.425251 10.14622
vt 2.191619 10.14622
vt 2.862076 15.88136
vt -1.800854 15.88136
vt -4.371199 6.767803
vt 0.9234928 3.188428
vt -4.796898 3.188428
vt 4.120758 -8.48924
vt -7.515256 -8.48924
vt 2.173656 -3.753771
vt -6.336144 -6.121505
vt -1.240825 -3.753771

usemtl rock

f 3/3/1 2/2/1 1/1/1
f 6/6/2 5/5/2 4/4/2
f 5/5/2 6/6/2 7/7/2
f 7/7/2 6/6/2 8/8/2
f 11/11/3 10/10/3 9/9/3
f 10/10/3 11/11/3 12/12/3
f 15/15/6 14/14/5 13/13/4
f 18/18/7 17/17/7 16/16/7
f 17/17/7 18/18/7 19/19/7
f 17/17/7 19/19/7 20/20/7
f 23/23/8 22/22/8 21/21/8
f 22/22/8 23/23/8 24/24/8
f 24/24/8 23/23/8 25/25/8
f 24/24/8 25/25/8 26/26/8
f 26/26/8 25/25/8 4/27/8
f 4/27/8 25/25/8 6/28/8
f 29/31/9 28/30/9 27/29/9
f 28/30/9 29/31/9 14/32/5
f 14/32/5 29/31/9 17/33/9
f 14/32/5 17/33/9 13/34/4
f 13/34/4 17/33/9 20/35/9
f 13/34/4 20/35/9 30/36/9
f 33/39/10 32/38/10 31/37/10
f 32/38/10 33/39/10 34/40/10
f 34/40/10 33/39/10 35/41/10
f 34/40/10 35/41/10 36/42/10
f 38/45/11 31/44/11 37/43/11
f 31/44/11 38/45/11 33/46/11
f 33/46/11 38/45/11 39/47/11
f 12/50/12 22/49/12 10/48/12
f 22/49/12 12/50/12 21/51/12
f 21/51/12 12/50/12 40/52/12
f 40/52/12 12/50/12 41/53/12
f 41/53/12 12/50/12 42/54/12
f 11/57/13 42/56/13 12/55/13
f 42/56/13 11/57/13 28/58/13
f 42/56/13 28/58/13 15/59/13
f 15/59/13 28/58/13 14/60/13
f 44/63/14 26/62/14 43/61/14
f 26/62/14 44/63/14 24/64/14
f 35/67/15 45/66/15 36/65/15
f 45/66/15 35/67/15 9/68/15
f 9/68/15 35/67/15 11/69/15
f 11/69/15 35/67/15 27/70/15
f 11/69/15 27/70/15 28/71/15
f 5/74/16 26/73/16 4/72/16
f 32/75/16 26/73/16 5/74/16
f 46/76/16 26/73/16 32/75/16
f 26/73/16 46/76/16 43/77/16
f 32/75/16 5/74/16 47/78/16
f 32/75/16 47/78/16 31/79/16
f 31/79/16 47/78/16 37/80/16
f 37/80/16 47/78/16 48/81/16
f 37/80/16 48/81/16 16/82/16
f 49/83/16 16/82/16 48/81/16
f 16/82/16 49/83/16 18/84/16
f 37/80/16 16/82/16 50/85/16
f 53/88/17 52/87/17 51/86/17
f 7/91/18 47/90/18 5/89/18
f 47/90/18 7/91/18 54/92/18
f 55/93/18 54/92/18 7/91/18
f 54/92/18 55/93/18 56/94/18
f 16/97/19 57/96/19 50/95/19
f 57/96/19 16/97/19 17/98/19
f 57/96/19 17/98/19 29/99/19
f 59/102/20 55/101/20 58/100/20
f 55/101/20 59/102/20 56/103/20
f 23/106/13 8/105/13 25/104/13
f 8/105/13 23/106/13 7/107/13
f 7/107/13 23/106/13 40/108/13
f 7/107/13 40/108/13 41/109/13
f 7/107/13 41/109/13 55/110/13
f 55/110/13 41/109/13 58/111/13
f 36/114/21 60/113/21 34/112/21
f 60/113/21 36/114/21 45/115/21
f 23/118/22 21/117/22 40/116/22
f 19/121/13 30/120/13 20/119/13
f 30/120/13 19/121/13 2/122/13
f 2/122/13 19/121/13 1/123/13
f 61/124/13 30/120/13 2/122/13
f 56/125/13 30/120/13 61/124/13
f 30/120/13 56/125/13 59/126/13
f 61/124/13 54/127/13 56/125/13
f 34/130/23 46/129/23 32/128/23
f 46/129/23 34/130/23 51/131/23
f 51/131/23 34/130/23 53/132/23
f 53/132/23 34/130/23 60/133/23
f 51/136/24 43/135/24 46/134/24
f 43/135/24 51/136/24 52/137/24
f 43/135/24 52/137/24 44/138/24
f 39/141/25 38/140/25 62/139/25
f 8/144/26 6/143/26 25/142/26
f 33/147/13 27/146/13 35/145/13
f 27/146/13 33/147/13 39/148/13
f 27/146/13 39/148/13 29/149/13
f 29/149/13 39/148/13 62/150/13
f 29/149/13 62/150/13 57/151/13
f 54/154/27 48/153/27 47/152/27
f 48/153/27 54/154/27 61/155/27
f 50/158/28 38/157/28 37/156/28
f 38/157/28 50/158/28 62/159/28
f 62/159/28 50/158/28 57/160/28
f 49/163/29 19/162/29 18/161/29
f 19/162/29 49/163/29 1/164/29
f 1/164/29 49/163/29 3/165/29
f 52/168/13 24/167/13 44/166/13
f 24/167/13 52/168/13 53/169/13
f 24/167/13 53/169/13 10/170/13
f 10/170/13 53/169/13 9/171/13
f 9/171/13 53/169/13 60/172/13
f 9/171/13 60/172/13 45/173/13
f 22/174/13 24/167/13 10/170/13
f 42/177/30 58/176/30 41/175/30
f 15/178/30 58/176/30 42/177/30
f 13/179/30 58/176/30 15/178/30
f 13/179/30 59/180/30 58/176/30
f 59/180/30 13/179/30 30/181/30
f 61/184/31 49/183/31 48/182/31
f 49/183/31 61/184/31 3/185/31
f 3/185/31 61/184/31 2/186/31

