# Created by Kenney (www.kenney.nl)

mtllib structureCloth.mtl

g structureCloth

v 0.8490422 1.951058 -0.8490425
v 0.86794 1.56 -0.8450013
v 0.82888 0 -0.8288803
v 1 0 -0.8288803
v 0.85027 2.069867 -0.8502702
v 0.86794 1.653 -0.8459623
v 0.96094 1.56 -0.8450013
v 0.97861 2.069867 -0.8502702
v 0.96094 1.653 -0.8459623
v 0.85027 2.069867 -0.9786103
v 0.97861 2.069867 -0.9786103
v 1 0 -1
v 0.82888 0 -1
v 0.845001 1.56 -0.8679402
v 0.8459621 1.653 -0.8679402
v 0.8459621 1.653 -0.9609402
v 0.845001 1.56 -0.9609402
v -0.97861 2.069867 0.8502702
v -0.85027 2.069867 0.8502702
v -0.97861 2.069867 0.9786103
v -0.85027 2.069867 0.9786103
v -1 0 1
v -0.82888 0 1
v -0.845001 1.56 0.8679402
v -0.82888 0 0.8288803
v -0.8490422 1.951058 0.8490425
v -0.845001 1.56 0.9609402
v -0.8459621 1.653 0.8679402
v -0.8459621 1.653 0.9609402
v -1 0 0.8288803
v -0.96094 1.653 0.8459623
v -0.86794 1.653 0.8459623
v -0.86794 1.56 0.8450013
v -0.96094 1.56 0.8450013
v 0.8288803 0 0.82888
v 0.8450013 1.56 0.9609399
v 0.8288803 0 0.9999999
v 0.8502702 2.069867 0.97861
v 0.8459623 1.653 0.9609399
v 0.8459623 1.653 0.86794
v 0.8490425 1.951058 0.8490422
v 0.8502702 2.069867 0.85027
v 0.8450013 1.56 0.86794
v 0.9786103 2.069867 0.8502699
v 0.9786103 2.069867 0.97861
v 0.8679402 1.653 0.8459621
v 0.9609402 1.653 0.845962
v 0.9609402 1.56 0.845001
v 0.8679402 1.56 0.845001
v 1 0 0.82888
v 1 0 0.9999999
v -1 0 -0.82888
v -1 0 -0.9999999
v -0.9786103 2.069867 -0.8502699
v -0.9786103 2.069867 -0.97861
v -0.9609402 1.56 -0.845001
v -0.8288803 0 -0.82888
v -0.9609402 1.653 -0.845962
v -0.8679402 1.56 -0.845001
v -0.8490425 1.951058 -0.8490422
v -0.8502702 2.069867 -0.85027
v -0.8679402 1.653 -0.8459621
v -0.8450013 1.56 -0.9609399
v -0.8288803 0 -0.9999999
v -0.8502702 2.069867 -0.97861
v -0.8450013 1.56 -0.86794
v -0.8459623 1.653 -0.9609399
v -0.8459623 1.653 -0.86794
v -0.9144401 1.712518 1.192093E-07
v 0.9144401 1.712518 -1.192093E-07
v -0.9144401 1.720416 0.1602145
v 0.9144401 1.720416 0.1602144
v -0.9144401 1.720416 -0.1602144
v 0.9144401 1.720416 -0.1602145
v -0.9144402 1.783195 -0.4752277
v 0.91444 1.783195 -0.475228
v -0.9144402 1.744041 -0.3190721
v 0.91444 1.744041 -0.3190723
v -0.91444 1.744041 0.3190723
v 0.9144402 1.744041 0.3190721
v -0.91444 1.783195 0.475228
v 0.9144402 1.783195 0.4752277
v -0.91444 1.837545 0.6273592
v 0.9144402 1.837545 0.627359
v -0.91444 1.906631 0.7741777
v 0.9144402 1.906631 0.7741775
v -0.9144402 1.906631 -0.7741775
v 0.91444 1.906631 -0.7741777
v -0.9144402 1.837545 -0.627359
v 0.91444 1.837545 -0.6273592
v -0.91444 1.951058 0.8490425
v -0.8494433 1.989867 0.9144402
v 0.8494436 1.989867 0.9144399
v 0.9144402 1.951058 0.8490422
v -0.9144402 1.951058 -0.8490422
v 0.91444 1.951058 -0.8490425
v 0.8494433 1.989867 -0.9144402
v -0.8494436 1.989867 -0.9144399

vn 1.192093E-07 0.01033344 0.9999467
vn 0 1 0
vn 0 -1 0
vn 0.9999467 0.01033344 -1.192093E-07
vn -0.9999467 0.01033344 1.192093E-07
vn -1.192093E-07 0.01033344 -0.9999467
vn 1 0 -1.192093E-07
vn -1 0 1.192093E-07
vn 1.192093E-07 0 1
vn -1.192093E-07 0 -1
vn -1.490116E-08 0.9951581 -0.09828702
vn 1.490116E-08 -0.9951581 0.09828702
vn 1.490116E-08 0.9951581 0.09828702
vn -1.490116E-08 -0.9951581 -0.09828702
vn 2.980232E-08 0.9569775 0.2901623
vn 2.980232E-08 0.9807258 0.1953886
vn -2.980232E-08 -0.9807258 -0.1953886
vn -2.980232E-08 -0.9569775 -0.2901623
vn -2.980232E-08 0.9807258 -0.1953886
vn 2.980232E-08 -0.9807258 0.1953886
vn -2.980232E-08 0.9569775 -0.2901623
vn 2.980232E-08 -0.9569775 0.2901623
vn -5.960464E-08 0.9243495 -0.3815468
vn -5.960464E-08 0.8834145 -0.4685926
vn 5.960464E-08 -0.8834145 0.4685926
vn 5.960464E-08 -0.9243495 0.3815468
vn 5.960464E-08 0.8834145 0.4685926
vn 5.960464E-08 0.9243495 0.3815468
vn -5.960464E-08 -0.9243495 -0.3815468
vn -5.960464E-08 -0.8834145 -0.4685926
vn -5.960464E-08 0.8599728 -0.51034
vn 5.960464E-08 -0.8599728 0.51034
vn 5.960464E-08 0.8599728 0.51034
vn -5.960464E-08 -0.8599728 -0.51034

vt 8.356715 19.28866
vt 8.542717 15.43945
vt 8.158268 0.08430299
vt 9.84252 0.08430299
vt 8.368799 20.4581
vt 8.542717 16.35486
vt 9.458071 15.43945
vt 9.631989 20.4581
vt 9.458071 16.35486
vt -9.631989 8.368799
vt -9.631989 9.631989
vt -8.368799 8.368799
vt -8.368799 9.631989
vt 9.84252 9.84252
vt 9.84252 8.158268
vt 8.158268 9.84252
vt 8.158268 8.158268
vt 9.84252 -0.1017071
vt 8.158268 -0.1017071
vt 9.631989 20.27209
vt 8.368799 20.27209
vt -9.84252 0.08430299
vt -8.542717 15.43945
vt -8.158268 0.08430299
vt -8.356715 19.28866
vt -8.542717 16.35486
vt -9.458071 16.35486
vt -9.458071 15.43945
vt -9.631989 20.4581
vt -8.368799 20.4581
vt -8.158268 -0.1017071
vt -9.84252 -0.1017071
vt -8.368799 20.27209
vt -9.631989 20.27209
vt 8.368799 -9.631989
vt 8.368799 -8.368799
vt 9.631989 -9.631989
vt 9.631989 -8.368799
vt -8.158268 -8.158268
vt -8.158268 -9.84252
vt -9.84252 -8.158268
vt -9.84252 -9.84252
vt 8.368799 8.368799
vt 8.368799 9.631989
vt 9.631989 8.368799
vt 9.631989 9.631989
vt -8.158268 9.84252
vt -8.158268 8.158268
vt -9.84252 9.84252
vt -9.84252 8.158268
vt 9.84252 -8.158268
vt 9.84252 -9.84252
vt 8.158268 -8.158268
vt 8.158268 -9.84252
vt -9.631989 -9.631989
vt -9.631989 -8.368799
vt -8.368799 -9.631989
vt -8.368799 -8.368799
vt 8.316939 15.35433
vt -8.316939 15.35433
vt 8.326399 16.26969
vt -8.326399 16.26969
vt -8.326399 -8.542716
vt 8.326399 -8.542716
vt -8.326399 -9.458071
vt 8.326399 -9.458071
vt -9.458071 -8.326399
vt -9.458071 8.326399
vt -8.542717 -8.326399
vt -8.542717 8.326399
vt 8.542716 -8.326399
vt 8.542716 8.326399
vt 9.458071 -8.326399
vt 9.458071 8.326399
vt 8.316939 -8.542716
vt 8.316939 -9.458071
vt -8.316939 -8.542716
vt -8.316939 -9.458071
vt 8.316939 9.458071
vt 8.316939 8.542717
vt -8.316939 9.458071
vt -8.316939 8.542717
vt -8.326399 9.458071
vt 8.326399 9.458071
vt -8.326399 8.542717
vt 8.326399 8.542717
vt -8.542716 -8.316939
vt -9.458071 -8.316939
vt -8.542716 8.316939
vt -9.458071 8.316939
vt 9.458071 -8.316939
vt 8.542717 -8.316939
vt 9.458071 8.316939
vt 8.542717 8.316939
vt 9.000394 0.82985
vt -9.000394 0.82985
vt 9.000394 2.408678
vt -9.000394 2.408678
vt -9.000394 8.805519
vt 9.000394 8.805519
vt -9.000394 7.220978
vt 9.000394 7.220978
vt 9.000394 4.050688
vt -9.000394 4.050688
vt 9.000394 5.631444
vt -9.000394 5.631444
vt 9.000394 13.28767
vt -9.000394 13.28767
vt 9.000394 14.88472
vt -9.000394 14.88472
vt -9.000394 11.89956
vt 9.000394 11.89956
vt -9.000394 10.30952
vt 9.000394 10.30952
vt 9.000394 16.12993
vt -9.000394 16.12993
vt 9.000394 16.98677
vt 8.356715 16.98677
vt -8.356715 16.98677
vt 8.360662 17.73526
vt -8.360662 17.73526
vt -9.000394 16.98677

usemtl wood

f 3/3/1 2/2/1 1/1/1
f 2/2/1 3/3/1 4/4/1
f 1/1/1 2/2/1 5/5/1
f 5/5/1 2/2/1 6/6/1
f 2/2/1 4/4/1 7/7/1
f 7/7/1 4/4/1 8/8/1
f 6/6/1 8/8/1 5/5/1
f 8/8/1 6/6/1 9/9/1
f 8/8/1 9/9/1 7/7/1
f 5/12/2 11/11/2 10/10/2
f 11/11/2 5/12/2 8/13/2
f 4/16/3 13/15/3 12/14/3
f 13/15/3 4/16/3 3/17/3
f 11/20/4 4/19/4 12/18/4
f 4/19/4 11/20/4 8/21/4
f 3/24/5 14/23/5 13/22/5
f 14/23/5 3/24/5 1/25/5
f 14/23/5 1/25/5 15/26/5
f 15/26/5 1/25/5 16/27/5
f 17/28/5 13/22/5 14/23/5
f 13/22/5 17/28/5 10/29/5
f 10/29/5 17/28/5 16/27/5
f 10/29/5 16/27/5 1/25/5
f 10/29/5 1/25/5 5/30/5
f 10/33/6 12/32/6 13/31/6
f 12/32/6 10/33/6 11/34/6
f 20/37/2 19/36/2 18/35/2
f 19/36/2 20/37/2 21/38/2
f 23/31/1 20/34/1 22/32/1
f 20/34/1 23/31/1 21/33/1
f 25/24/4 24/23/4 23/22/4
f 24/23/4 25/24/4 26/25/4
f 23/22/4 24/23/4 27/28/4
f 24/23/4 26/25/4 28/26/4
f 27/28/4 21/29/4 23/22/4
f 21/29/4 28/26/4 26/25/4
f 21/29/4 27/28/4 29/27/4
f 21/29/4 29/27/4 28/26/4
f 21/29/4 26/25/4 19/30/4
f 20/20/5 30/19/5 22/18/5
f 30/19/5 20/20/5 18/21/5
f 19/5/6 31/9/6 18/8/6
f 31/9/6 19/5/6 32/6/6
f 32/6/6 19/5/6 33/2/6
f 34/7/6 18/8/6 31/9/6
f 34/7/6 30/4/6 18/8/6
f 30/4/6 34/7/6 25/3/6
f 25/3/6 34/7/6 33/2/6
f 25/3/6 33/2/6 26/1/6
f 26/1/6 33/2/6 19/5/6
f 23/41/3 30/40/3 25/39/3
f 30/40/3 23/41/3 22/42/3
f 37/4/5 36/7/5 35/3/5
f 36/7/5 37/4/5 38/8/5
f 36/7/5 38/8/5 39/9/5
f 39/9/5 38/8/5 40/6/5
f 40/6/5 38/8/5 41/1/5
f 41/1/5 38/8/5 42/5/5
f 35/3/5 43/2/5 41/1/5
f 43/2/5 35/3/5 36/7/5
f 41/1/5 43/2/5 40/6/5
f 38/45/2 44/44/2 42/43/2
f 44/44/2 38/45/2 45/46/2
f 44/29/6 46/26/6 42/30/6
f 46/26/6 44/29/6 47/27/6
f 47/27/6 44/29/6 48/28/6
f 49/23/6 42/30/6 46/26/6
f 49/23/6 41/25/6 42/30/6
f 49/23/6 35/24/6 41/25/6
f 35/24/6 49/23/6 50/22/6
f 50/22/6 49/23/6 48/28/6
f 50/22/6 48/28/6 44/29/6
f 51/49/3 35/48/3 50/47/3
f 35/48/3 51/49/3 37/50/3
f 44/33/4 51/32/4 50/31/4
f 51/32/4 44/33/4 45/34/4
f 51/18/1 38/21/1 37/19/1
f 38/21/1 51/18/1 45/20/1
f 54/33/5 53/32/5 52/31/5
f 53/32/5 54/33/5 55/34/5
f 52/22/1 56/28/1 54/29/1
f 56/28/1 52/22/1 57/24/1
f 54/29/1 56/28/1 58/27/1
f 56/28/1 57/24/1 59/23/1
f 59/23/1 57/24/1 60/25/1
f 59/23/1 60/25/1 61/30/1
f 58/27/1 61/30/1 54/29/1
f 61/30/1 58/27/1 62/26/1
f 61/30/1 62/26/1 59/23/1
f 64/4/4 63/7/4 57/3/4
f 63/7/4 64/4/4 65/8/4
f 57/3/4 63/7/4 66/2/4
f 63/7/4 65/8/4 67/9/4
f 67/9/4 65/8/4 60/1/4
f 66/2/4 60/1/4 57/3/4
f 60/1/4 65/8/4 61/5/4
f 60/1/4 66/2/4 68/6/4
f 60/1/4 68/6/4 67/9/4
f 55/20/6 64/19/6 53/18/6
f 64/19/6 55/20/6 65/21/6
f 57/53/3 53/52/3 64/51/3
f 53/52/3 57/53/3 52/54/3
f 54/57/2 65/56/2 55/55/2
f 65/56/2 54/57/2 61/58/2
f 9/61/7 48/60/7 7/59/7
f 48/60/7 9/61/7 47/62/7
f 34/59/8 58/62/8 56/60/8
f 58/62/8 34/59/8 31/61/8
f 62/61/7 33/60/7 59/59/7
f 33/60/7 62/61/7 32/62/7
f 58/65/2 32/64/2 62/63/2
f 32/64/2 58/65/2 31/66/2
f 68/69/2 16/68/2 67/67/2
f 16/68/2 68/69/2 15/70/2
f 29/73/2 40/72/2 28/71/2
f 40/72/2 29/73/2 39/74/2
f 27/60/9 39/61/9 29/62/9
f 39/61/9 27/60/9 36/59/9
f 33/77/3 56/76/3 59/75/3
f 56/76/3 33/77/3 34/78/3
f 48/81/3 2/80/3 7/79/3
f 2/80/3 48/81/3 49/82/3
f 6/85/2 47/84/2 9/83/2
f 47/84/2 6/85/2 46/86/2
f 43/89/3 27/88/3 24/87/3
f 27/88/3 43/89/3 36/90/3
f 16/62/10 63/59/10 67/61/10
f 63/59/10 16/62/10 17/60/10
f 17/93/3 66/92/3 63/91/3
f 66/92/3 17/93/3 14/94/3
f 66/60/9 15/61/9 68/62/9
f 15/61/9 66/60/9 14/59/9
f 40/62/10 24/59/10 28/61/10
f 24/59/10 40/62/10 43/60/10
f 49/59/8 6/62/8 2/60/8
f 6/62/8 49/59/8 46/61/8

usemtl cloth

f 71/97/11 70/96/2 69/95/2
f 70/96/2 71/97/11 72/98/11
f 69/95/3 70/96/3 71/97/12
f 72/98/12 71/97/12 70/96/3
f 69/96/2 74/97/13 73/98/13
f 74/97/13 69/96/2 70/95/2
f 73/98/14 74/97/14 69/96/3
f 70/95/3 69/96/3 74/97/14
f 77/101/16 76/100/15 75/99/15
f 76/100/15 77/101/16 78/102/16
f 75/99/18 76/100/18 77/101/17
f 78/102/17 77/101/17 76/100/18
f 79/105/19 72/104/11 71/103/11
f 72/104/11 79/105/19 80/106/19
f 71/103/12 72/104/12 79/105/20
f 80/106/20 79/105/20 72/104/12
f 81/100/21 80/101/19 79/102/19
f 80/101/19 81/100/21 82/99/21
f 79/102/20 80/101/20 81/100/22
f 82/99/22 81/100/22 80/101/20
f 85/109/24 84/108/23 83/107/23
f 84/108/23 85/109/24 86/110/24
f 83/107/26 84/108/26 85/109/25
f 86/110/25 85/109/25 84/108/26
f 89/108/28 88/109/27 87/110/27
f 88/109/27 89/108/28 90/107/28
f 87/110/30 88/109/30 89/108/29
f 90/107/29 89/108/29 88/109/30
f 75/113/15 90/112/28 89/111/28
f 90/112/28 75/113/15 76/114/15
f 89/111/29 90/112/29 75/113/18
f 76/114/18 75/113/18 90/112/29
f 73/104/13 78/105/16 77/106/16
f 78/105/16 73/104/13 74/103/13
f 77/106/17 78/105/17 73/104/14
f 74/103/14 73/104/14 78/105/17
f 83/112/23 82/113/21 81/114/21
f 82/113/21 83/112/23 84/111/23
f 81/114/22 82/113/22 83/112/26
f 84/111/26 83/112/26 82/113/22
f 91/117/31 86/116/24 85/115/24
f 86/116/24 91/117/31 26/118/31
f 41/119/31 86/116/24 26/118/31
f 92/120/31 41/119/31 26/118/31
f 41/119/31 92/120/31 93/121/31
f 86/116/24 41/119/31 94/122/31
f 85/115/25 86/116/25 91/117/32
f 26/118/32 91/117/32 86/116/25
f 26/118/32 86/116/25 41/119/32
f 26/118/32 41/119/32 92/120/32
f 93/121/32 92/120/32 41/119/32
f 94/122/32 41/119/32 86/116/25
f 87/116/27 60/119/33 95/122/33
f 88/115/27 60/119/33 87/116/27
f 96/117/33 60/119/33 88/115/27
f 1/118/33 60/119/33 96/117/33
f 97/120/33 60/119/33 1/118/33
f 60/119/33 97/120/33 98/121/33
f 95/122/34 60/119/34 87/116/30
f 87/116/30 60/119/34 88/115/30
f 88/115/30 60/119/34 96/117/34
f 96/117/34 60/119/34 1/118/34
f 1/118/34 60/119/34 97/120/34
f 98/121/34 97/120/34 60/119/34

