# Created by Kenney (www.kenney.nl)

mtllib structure.mtl

g structure

v 0.85027 2.069867 -0.8502702
v 0.86794 1.56 -0.8450013
v 0.82888 0 -0.8288803
v 1 0 -0.8288803
v 0.86794 1.653 -0.8459623
v 0.96094 1.56 -0.8450013
v 0.97861 2.069867 -0.8502702
v 0.96094 1.653 -0.8459623
v 0.85027 2.069867 -0.9786103
v 0.97861 2.069867 -0.9786103
v 1 0 -1
v 0.82888 0 -1
v 0.845001 1.56 -0.8679402
v 0.8459621 1.653 -0.8679402
v 0.8459621 1.653 -0.9609402
v 0.845001 1.56 -0.9609402
v -0.97861 2.069867 0.8502702
v -0.85027 2.069867 0.8502702
v -0.97861 2.069867 0.9786103
v -0.85027 2.069867 0.9786103
v -1 0 1
v -0.82888 0 1
v -0.845001 1.56 0.8679402
v -0.82888 0 0.8288803
v -0.845001 1.56 0.9609402
v -0.8459621 1.653 0.8679402
v -0.8459621 1.653 0.9609402
v -1 0 0.8288803
v -0.96094 1.653 0.8459623
v -0.86794 1.653 0.8459623
v -0.86794 1.56 0.8450013
v -0.96094 1.56 0.8450013
v 0.8288803 0 0.82888
v 0.8450013 1.56 0.9609399
v 0.8288803 0 0.9999999
v 0.8502702 2.069867 0.97861
v 0.8459623 1.653 0.9609399
v 0.8459623 1.653 0.86794
v 0.8450013 1.56 0.86794
v 0.8502702 2.069867 0.85027
v 0.9786103 2.069867 0.8502699
v 0.9786103 2.069867 0.97861
v 0.8679402 1.653 0.8459621
v 0.9609402 1.653 0.845962
v 0.9609402 1.56 0.845001
v 0.8679402 1.56 0.845001
v 1 0 0.82888
v 1 0 0.9999999
v -1 0 -0.82888
v -1 0 -0.9999999
v -0.9786103 2.069867 -0.8502699
v -0.9786103 2.069867 -0.97861
v -0.9609402 1.56 -0.845001
v -0.8288803 0 -0.82888
v -0.9609402 1.653 -0.845962
v -0.8679402 1.56 -0.845001
v -0.8502702 2.069867 -0.85027
v -0.8679402 1.653 -0.8459621
v -0.8450013 1.56 -0.9609399
v -0.8288803 0 -0.9999999
v -0.8502702 2.069867 -0.97861
v -0.8450013 1.56 -0.86794
v -0.8459623 1.653 -0.9609399
v -0.8459623 1.653 -0.86794

vn 1.192093E-07 0.01033344 0.9999467
vn 0 1 0
vn 0 -1 0
vn 0.9999467 0.01033344 -1.192093E-07
vn -0.9999467 0.01033344 1.192093E-07
vn -1.192093E-07 0.01033344 -0.9999467
vn 1 0 -1.192093E-07
vn -1 0 1.192093E-07
vn 1.192093E-07 0 1
vn -1.192093E-07 0 -1

vt 8.368799 20.4581
vt 8.542717 15.43945
vt 8.158268 0.08430299
vt 9.84252 0.08430299
vt 8.542717 16.35486
vt 9.458071 15.43945
vt 9.631989 20.4581
vt 9.458071 16.35486
vt -9.631989 8.368799
vt -9.631989 9.631989
vt -8.368799 8.368799
vt -8.368799 9.631989
vt 9.84252 9.84252
vt 9.84252 8.158268
vt 8.158268 9.84252
vt 8.158268 8.158268
vt 9.84252 -0.1017071
vt 8.158268 -0.1017071
vt 9.631989 20.27209
vt 8.368799 20.27209
vt -9.84252 0.08430299
vt -8.542717 15.43945
vt -8.158268 0.08430299
vt -8.368799 20.4581
vt -8.542717 16.35486
vt -9.458071 16.35486
vt -9.458071 15.43945
vt -9.631989 20.4581
vt -8.158268 -0.1017071
vt -9.84252 -0.1017071
vt -8.368799 20.27209
vt -9.631989 20.27209
vt 8.368799 -9.631989
vt 8.368799 -8.368799
vt 9.631989 -9.631989
vt 9.631989 -8.368799
vt -8.158268 -8.158268
vt -8.158268 -9.84252
vt -9.84252 -8.158268
vt -9.84252 -9.84252
vt 8.368799 8.368799
vt 8.368799 9.631989
vt 9.631989 8.368799
vt 9.631989 9.631989
vt -8.158268 9.84252
vt -8.158268 8.158268
vt -9.84252 9.84252
vt -9.84252 8.158268
vt 9.84252 -8.158268
vt 9.84252 -9.84252
vt 8.158268 -8.158268
vt 8.158268 -9.84252
vt -9.631989 -9.631989
vt -9.631989 -8.368799
vt -8.368799 -9.631989
vt -8.368799 -8.368799
vt 8.316939 15.35433
vt -8.316939 15.35433
vt 8.326399 16.26969
vt -8.326399 16.26969
vt -8.326399 -8.542716
vt 8.326399 -8.542716
vt -8.326399 -9.458071
vt 8.326399 -9.458071
vt -9.458071 -8.326399
vt -9.458071 8.326399
vt -8.542717 -8.326399
vt -8.542717 8.326399
vt 8.542716 -8.326399
vt 8.542716 8.326399
vt 9.458071 -8.326399
vt 9.458071 8.326399
vt 8.316939 -8.542716
vt 8.316939 -9.458071
vt -8.316939 -8.542716
vt -8.316939 -9.458071
vt 8.316939 9.458071
vt 8.316939 8.542717
vt -8.316939 9.458071
vt -8.316939 8.542717
vt -8.326399 9.458071
vt 8.326399 9.458071
vt -8.326399 8.542717
vt 8.326399 8.542717
vt -8.542716 -8.316939
vt -9.458071 -8.316939
vt -8.542716 8.316939
vt -9.458071 8.316939
vt 9.458071 -8.316939
vt 8.542717 -8.316939
vt 9.458071 8.316939
vt 8.542717 8.316939

usemtl wood

f 3/3/1 2/2/1 1/1/1
f 2/2/1 3/3/1 4/4/1
f 1/1/1 2/2/1 5/5/1
f 2/2/1 4/4/1 6/6/1
f 6/6/1 4/4/1 7/7/1
f 5/5/1 7/7/1 1/1/1
f 7/7/1 5/5/1 8/8/1
f 7/7/1 8/8/1 6/6/1
f 1/11/2 10/10/2 9/9/2
f 10/10/2 1/11/2 7/12/2
f 4/15/3 12/14/3 11/13/3
f 12/14/3 4/15/3 3/16/3
f 10/19/4 4/18/4 11/17/4
f 4/18/4 10/19/4 7/20/4
f 3/23/5 13/22/5 12/21/5
f 13/22/5 3/23/5 1/24/5
f 13/22/5 1/24/5 14/25/5
f 14/25/5 1/24/5 15/26/5
f 16/27/5 12/21/5 13/22/5
f 12/21/5 16/27/5 9/28/5
f 9/28/5 16/27/5 15/26/5
f 9/28/5 15/26/5 1/24/5
f 9/31/6 11/30/6 12/29/6
f 11/30/6 9/31/6 10/32/6
f 19/35/2 18/34/2 17/33/2
f 18/34/2 19/35/2 20/36/2
f 22/29/1 19/32/1 21/30/1
f 19/32/1 22/29/1 20/31/1
f 24/23/4 23/22/4 22/21/4
f 23/22/4 24/23/4 18/24/4
f 22/21/4 23/22/4 25/27/4
f 23/22/4 18/24/4 26/25/4
f 25/27/4 20/28/4 22/21/4
f 20/28/4 26/25/4 18/24/4
f 20/28/4 25/27/4 27/26/4
f 20/28/4 27/26/4 26/25/4
f 19/19/5 28/18/5 21/17/5
f 28/18/5 19/19/5 17/20/5
f 18/1/6 29/8/6 17/7/6
f 29/8/6 18/1/6 30/5/6
f 30/5/6 18/1/6 31/2/6
f 32/6/6 17/7/6 29/8/6
f 32/6/6 28/4/6 17/7/6
f 28/4/6 32/6/6 24/3/6
f 24/3/6 32/6/6 31/2/6
f 24/3/6 31/2/6 18/1/6
f 22/39/3 28/38/3 24/37/3
f 28/38/3 22/39/3 21/40/3
f 35/4/5 34/6/5 33/3/5
f 34/6/5 35/4/5 36/7/5
f 34/6/5 36/7/5 37/8/5
f 37/8/5 36/7/5 38/5/5
f 39/2/5 33/3/5 34/6/5
f 33/3/5 39/2/5 40/1/5
f 40/1/5 39/2/5 38/5/5
f 40/1/5 38/5/5 36/7/5
f 36/43/2 41/42/2 40/41/2
f 41/42/2 36/43/2 42/44/2
f 41/28/6 43/25/6 40/24/6
f 43/25/6 41/28/6 44/26/6
f 44/26/6 41/28/6 45/27/6
f 46/22/6 40/24/6 43/25/6
f 46/22/6 33/23/6 40/24/6
f 33/23/6 46/22/6 47/21/6
f 47/21/6 46/22/6 45/27/6
f 47/21/6 45/27/6 41/28/6
f 48/47/3 33/46/3 47/45/3
f 33/46/3 48/47/3 35/48/3
f 41/31/4 48/30/4 47/29/4
f 48/30/4 41/31/4 42/32/4
f 48/17/1 36/20/1 35/18/1
f 36/20/1 48/17/1 42/19/1
f 51/31/5 50/30/5 49/29/5
f 50/30/5 51/31/5 52/32/5
f 49/21/1 53/27/1 51/28/1
f 53/27/1 49/21/1 54/23/1
f 51/28/1 53/27/1 55/26/1
f 53/27/1 54/23/1 56/22/1
f 56/22/1 54/23/1 57/24/1
f 55/26/1 57/24/1 51/28/1
f 57/24/1 55/26/1 58/25/1
f 57/24/1 58/25/1 56/22/1
f 60/4/4 59/6/4 54/3/4
f 59/6/4 60/4/4 61/7/4
f 54/3/4 59/6/4 62/2/4
f 59/6/4 61/7/4 63/8/4
f 62/2/4 57/1/4 54/3/4
f 57/1/4 63/8/4 61/7/4
f 57/1/4 62/2/4 64/5/4
f 57/1/4 64/5/4 63/8/4
f 52/19/6 60/18/6 50/17/6
f 60/18/6 52/19/6 61/20/6
f 54/51/3 50/50/3 60/49/3
f 50/50/3 54/51/3 49/52/3
f 51/55/2 61/54/2 52/53/2
f 61/54/2 51/55/2 57/56/2
f 8/59/7 45/58/7 6/57/7
f 45/58/7 8/59/7 44/60/7
f 32/57/8 55/60/8 53/58/8
f 55/60/8 32/57/8 29/59/8
f 58/59/7 31/58/7 56/57/7
f 31/58/7 58/59/7 30/60/7
f 55/63/2 30/62/2 58/61/2
f 30/62/2 55/63/2 29/64/2
f 64/67/2 15/66/2 63/65/2
f 15/66/2 64/67/2 14/68/2
f 27/71/2 38/70/2 26/69/2
f 38/70/2 27/71/2 37/72/2
f 25/58/9 37/59/9 27/60/9
f 37/59/9 25/58/9 34/57/9
f 31/75/3 53/74/3 56/73/3
f 53/74/3 31/75/3 32/76/3
f 45/79/3 2/78/3 6/77/3
f 2/78/3 45/79/3 46/80/3
f 5/83/2 44/82/2 8/81/2
f 44/82/2 5/83/2 43/84/2
f 39/87/3 25/86/3 23/85/3
f 25/86/3 39/87/3 34/88/3
f 15/60/10 59/57/10 63/59/10
f 59/57/10 15/60/10 16/58/10
f 16/91/3 62/90/3 59/89/3
f 62/90/3 16/91/3 13/92/3
f 62/58/9 14/59/9 64/60/9
f 14/59/9 62/58/9 13/57/9
f 38/60/10 23/57/10 26/59/10
f 23/57/10 38/60/10 39/58/10
f 46/57/8 5/60/8 2/58/8
f 5/60/8 46/57/8 43/59/8

