# Created by Kenney (www.kenney.nl)

mtllib tentClosed.mtl

g tentClosed

v -0.907 0.9730394 0.3814509
v 0.9070001 0.9730394 0.3814507
v -0.907 1.022931 0.4599354
v 0.9070001 1.022931 0.4599352
v -0.907 0.8945549 0.4313425
v -0.907 0.9444466 0.5098271
v 0.9070001 0.8945549 0.4313424
v 0.9070001 0.9444466 0.5098269
v 1.12468 1.573099 -0.04650009
v 1.12468 1.573099 0.04649985
v 1.12468 1.666099 -0.04650009
v 1.12468 1.666099 0.04649985
v -1.12468 1.573099 0.04650009
v -1.12468 1.573099 -0.04649985
v -1.12468 1.666099 0.04650009
v -1.12468 1.666099 -0.04649985
v 0.907 0.9444466 -0.5098271
v -0.9070001 0.9444465 -0.5098269
v 0.907 0.8945549 -0.4313425
v -0.9070001 0.8945549 -0.4313424
v 0.907 1.022931 -0.4599354
v 0.907 0.9730394 -0.3814509
v -0.9070001 1.022931 -0.4599352
v -0.9070001 0.9730394 -0.3814507
v -1 0 1
v -1 0.04989166 1.078485
v -0.9069999 2.495897E-10 1
v -0.9069999 0.04989166 1.078485
v -1 1.78911 -0.1373152
v -0.9070001 1.78911 -0.1373152
v -1 1.839002 -0.05883062
v -0.9070001 1.839002 -0.05883062
v -0.9070001 1.329044 -0.1551429
v -0.9070001 1.659777 -0.0550999
v -0.9070001 1.351165 -0.1465079
v -0.9070001 1.504506 -0.09634984
v -0.9070001 1.502901 -0.04462379
v -0.9070001 1.573099 -0.04649991
v -0.9070001 1.573099 1.192093E-07
v -0.9070001 1.666099 -0.04649991
v -0.9070001 1.666099 0.04650015
v -0.9070001 1.746455 1.192093E-07
v -0.9070001 1.78911 0.1373154
v -0.9070001 1.659777 0.05510014
v -0.9070001 1.573099 0.04650015
v -0.9070001 1.504506 0.09635007
v -0.9070001 1.351165 0.1465081
v -0.9070001 1.329044 0.1551431
v -0.9070001 1.839002 0.05883086
v -1 1.573099 1.192093E-07
v -1 1.573099 0.04650015
v -1 1.659777 0.05510014
v -1 1.666099 0.04650015
v -1 1.78911 0.1373154
v -1 1.666099 -0.04649985
v -1 1.746455 1.192093E-07
v -1 1.839002 0.05883086
v -1 1.659777 -0.05509996
v -1 1.573099 -0.04649985
v -1 0.04989166 -1.078484
v -1 0 -0.9999999
v -0.9069999 0.1531395 0.9553975
v -0.9069999 0.2636345 0.8378381
v -0.9069999 0.2808415 0.8214728
v 0.9070001 1.78911 -0.1373154
v 1 1.78911 -0.1373154
v 0.9070001 1.839002 -0.05883086
v 1 1.839002 -0.05883086
v 1 0 0.9999999
v 0.9070002 -1.529403E-10 1
v 1 0.04989166 1.078484
v 0.9070002 0.04989166 1.078485
v 1 0 -1
v 1 1.573099 -1.192093E-07
v 1 0.04989166 -1.078485
v 1 1.573099 -0.04650015
v 1 1.659777 -0.05510014
v 1 1.666099 -0.04650015
v 1 1.666099 0.04649985
v 1 1.746455 -1.192093E-07
v 1 1.78911 0.1373152
v 1 1.659777 0.05509996
v 1 1.573099 0.04649985
v 1 1.839002 0.05883062
v 0.9070001 1.573099 -1.192093E-07
v 0.9070001 1.502901 -0.04462403
v 0.9070001 1.573099 -0.04650015
v 0.9070001 1.504506 -0.09635007
v 0.9070001 1.351165 -0.1465081
v 0.9070001 1.329044 -0.1551431
v 0.9070001 1.659777 -0.05510014
v 0.9070001 1.666099 -0.04650015
v 0.9070001 1.746455 -1.192093E-07
v 0.9070001 1.78911 0.1373152
v 0.9070001 1.666099 0.04649991
v 0.9070001 1.659777 0.0550999
v 0.9070001 1.573099 0.04649991
v 0.9070001 1.504506 0.09634984
v 0.9070001 1.351165 0.1465079
v 0.9070001 1.329044 0.1551429
v 0.9070001 1.839002 0.05883062
v 0.9070002 0.1531395 0.9553974
v 0.9070002 0.2636345 0.8378378
v 0.9070002 0.2808415 0.8214725
v 0.9069999 0.04989166 -1.078485
v 0.9069999 -1.529371E-10 -1
v 0.9069999 0.1227651 -0.922244
v 0.9069999 0.1230318 -0.9217904
v 0.9069999 0.1531395 -0.9553975
v 0.9069999 0.2636345 -0.8378381
v 0.9069999 0.2808415 -0.8214728
v -0.9070002 0.04989166 -1.078485
v -0.9070002 2.495929E-10 -1
v -0.9070002 0.1531395 -0.9553974
v -0.9070002 0.2636345 -0.8378378
v -0.9070002 0.2808415 -0.8214725
v -0.9070002 0.1227651 -0.9222438
v -0.9070002 0.1230318 -0.9217901
v -0.9070001 1.052675 -0.2727244
v 0.9070001 1.052675 -0.2727247
v -0.9070001 1.200357 -0.2053766
v 0.9070001 1.200357 -0.2053769
v -0.9070001 0.9086999 -0.3482864
v 0.9070001 0.9086999 -0.3482866
v -0.9070001 0.7689993 -0.4317651
v 0.907 0.7689993 -0.4317653
v -0.9070001 0.5046 -0.6211288
v 0.907 0.5046 -0.621129
v -0.9070001 0.6341224 -0.5228319
v 0.907 0.6341224 -0.5228322
v -0.9070001 0.3809419 -0.7262685
v 0.907 0.3809419 -0.7262688
v -0.9070001 0.9086999 0.3482866
v -0.9070001 1.052675 0.2727247
v 0.9070001 0.9086999 0.3482864
v 0.9070001 1.052675 0.2727244
v -0.907 0.7689993 0.4317653
v 0.9070001 0.7689993 0.4317651
v -0.907 0.3809419 0.7262688
v -0.907 0.5046 0.621129
v 0.9070001 0.3809419 0.7262685
v 0.9070001 0.5046 0.6211288
v -0.9070001 1.200357 0.2053769
v 0.9070001 1.200357 0.2053766
v -0.907 0.6341224 0.5228322
v 0.9070001 0.6341224 0.5228319

vn -5.960464E-08 0.8439198 -0.5364695
vn 5.960464E-08 -0.8439198 0.5364695
vn 1 0 -1.192093E-07
vn -1 0 1.192093E-07
vn -5.960464E-08 -0.8439198 -0.5364695
vn 5.960464E-08 0.8439198 0.5364695
vn 1.192093E-07 -0.5364695 0.8439199
vn -1.192093E-07 0.5364695 -0.8439199
vn -1.192093E-07 -0.5364695 -0.8439199
vn 1.192093E-07 0.5364695 0.8439199
vn -1.192093E-07 0 -1
vn 1.192093E-07 0 1
vn 0 -1 0
vn 0 1 0
vn -1.192093E-07 0.337394 -0.9413636
vn -1.192093E-07 0.2839378 -0.9588428
vn 1.192093E-07 -0.2839378 0.9588428
vn 1.192093E-07 -0.337394 0.9413636
vn -5.960464E-08 0.747704 -0.6640323
vn -5.960464E-08 0.7091901 -0.7050173
vn 5.960464E-08 -0.747704 0.6640323
vn 5.960464E-08 -0.7091901 0.7050173
vn -5.960464E-08 0.7661506 -0.6426612
vn 5.960464E-08 -0.7661506 0.6426612
vn -1.192093E-07 0.256758 -0.9664758
vn 1.192093E-07 -0.256758 0.9664758
vn -1.192093E-07 0.4399884 -0.8980036
vn -1.192093E-07 0.389429 -0.9210566
vn 1.192093E-07 -0.389429 0.9210566
vn 1.192093E-07 -0.4399884 0.8980036
vn -1.192093E-07 0.4890198 -0.8722729
vn 1.192093E-07 -0.4890198 0.8722729
vn -1.192093E-07 0.363632 -0.9315428
vn 1.192093E-07 -0.363632 0.9315428
vn -1.192093E-07 0.6263875 -0.7795119
vn -1.192093E-07 0.5822801 -0.8129884
vn 1.192093E-07 -0.5822801 0.8129884
vn 1.192093E-07 -0.6263875 0.7795119
vn -5.960464E-08 0.6891622 -0.7246072
vn -5.960464E-08 0.6687189 -0.7435154
vn 5.960464E-08 -0.6687189 0.7435154
vn 5.960464E-08 -0.6891622 0.7246072
vn 1.192093E-07 0.4890198 0.8722729
vn 1.192093E-07 0.4399884 0.8980036
vn -1.192093E-07 -0.4890198 -0.8722729
vn -1.192093E-07 -0.4399884 -0.8980036
vn 5.960464E-08 0.747704 0.6640323
vn 5.960464E-08 0.747704 0.6640323
vn 5.960464E-08 0.7661506 0.6426612
vn -5.960464E-08 -0.7661506 -0.6426612
vn -5.960464E-08 -0.747704 -0.6640323
vn -5.960464E-08 -0.747704 -0.6640323
vn 5.960464E-08 0.6687189 0.7435154
vn 1.192093E-07 0.6263875 0.7795119
vn -5.960464E-08 -0.6687189 -0.7435154
vn -1.192093E-07 -0.6263875 -0.7795119
vn 5.960464E-08 0.7091901 0.7050173
vn -5.960464E-08 -0.7091901 -0.7050173
vn 1.192093E-07 0.256758 0.9664758
vn 1.192093E-07 0.2839378 0.9588428
vn -1.192093E-07 -0.2839378 -0.9588428
vn -1.192093E-07 -0.256758 -0.9664758
vn 1.192093E-07 0.389429 0.9210566
vn -1.192093E-07 -0.389429 -0.9210566
vn 5.960464E-08 0.6891622 0.7246072
vn -5.960464E-08 -0.6891622 -0.7246072
vn 1.192093E-07 0.337394 0.9413636
vn -1.192093E-07 -0.337394 -0.9413636
vn 1.192093E-07 0.5822801 0.8129884
vn -1.192093E-07 -0.5822801 -0.8129884
vn 1.192093E-07 0.363632 0.9315428
vn -1.192093E-07 -0.363632 -0.9315428

vt 8.927165 8.306296
vt -8.927165 8.306296
vt 8.927165 9.221651
vt -8.927165 9.221651
vt 0.4576772 15.48326
vt -0.4576772 15.48326
vt 0.4576772 16.39861
vt -0.4576772 16.39861
vt -9.84252 8.306296
vt -9.84252 9.221651
vt 9.84252 8.306296
vt 9.84252 9.221651
vt 3.754436 9.57716
vt 1.526998 13.08114
vt 4.526922 10.06822
vt 0.5423232 16.33639
vt 1.442007 13.29887
vt 0.948326 14.80813
vt 0.4392118 14.79234
vt 0.4576772 15.48326
vt 4.186954E-08 15.48326
vt 0.4576772 16.39861
vt 1.351528 17.60935
vt 1.23551E-08 17.18952
vt 0.5790424 18.10041
vt -1.351528 17.60935
vt -0.5423232 16.33639
vt -0.9483261 14.80813
vt -1.442007 13.29887
vt -1.526998 13.08114
vt -4.526922 10.06822
vt -3.754436 9.57716
vt -0.5790424 18.10041
vt 9.84252 -7.595493E-09
vt 1.155253E-09 15.48326
vt 10.61501 0.4910596
vt 0.5423231 16.33639
vt 1.155139E-09 17.18952
vt 0.5790425 18.10041
vt -0.5423231 16.33639
vt -10.61501 0.4910596
vt -9.84252 -7.595493E-09
vt -9.403517 1.507278
vt -9.84252 1.674062E-09
vt -8.246435 2.594827
vt -8.08536 2.764188
vt -5.017982 9.295734
vt -4.245496 8.804674
vt 9.84252 2.203148E-09
vt -7.155361E-10 15.48326
vt -1.20203E-09 17.18952
vt -9.84252 2.203148E-09
vt 3.319193E-08 15.48326
vt -0.4392117 14.79234
vt -0.9483259 14.80813
vt -1.442007 13.29887
vt -1.526998 13.08114
vt 1.059375E-08 17.18952
vt 0.5423231 16.33639
vt 0.9483259 14.80813
vt 1.442007 13.29887
vt 1.526998 13.08114
vt 4.526922 10.06822
vt 3.754436 9.57716
vt -3.754436 9.57716
vt 10.61501 0.4910596
vt 9.403517 1.507278
vt 5.017982 9.295734
vt 8.246435 2.594827
vt 8.08536 2.764188
vt 4.245496 8.804674
vt 9.84252 -2.243477E-08
vt 8.927165 14.07754
vt 8.927165 15.58593
vt 9.84252 14.07754
vt 9.84252 15.58593
vt -10.61501 0.4910597
vt -9.077203 1.208318
vt -9.84252 7.436089E-09
vt -9.072738 1.210943
vt -9.403517 1.507278
vt -8.246435 2.594827
vt -8.08536 2.764188
vt -9.84252 14.07754
vt -9.84252 15.58593
vt -8.927165 14.07754
vt -8.927165 15.58593
vt 9.84252 14.50657
vt 8.927165 14.50657
vt 10.61501 0.4910597
vt 5.017982 9.295733
vt 8.246435 2.594827
vt 8.08536 2.764188
vt 9.077203 1.208318
vt 9.84252 -3.478615E-08
vt 9.072738 1.210943
vt -8.927165 -5.280211
vt -8.927165 -2.004796
vt -8.927165 -3.845308
vt -9.84252 13.06663
vt -9.84252 -5.280211
vt -8.927165 6.068214
vt -8.927165 5.15286
vt 8.927165 6.068214
vt 8.927165 5.15286
vt 8.927165 10.22025
vt 8.927165 12.24792
vt 8.927165 13.06663
vt 9.84252 13.06663
vt 9.84252 -5.280211
vt 8.927165 -3.845308
vt 8.927165 -5.280211
vt 8.927165 -2.004796
vt -8.927165 13.06663
vt -8.927165 10.22025
vt -8.927165 12.24792
vt 9.84252 -5.280211
vt 8.927165 -5.280211
vt 8.927165 10.22025
vt -8.927165 10.22025
vt -9.84252 -5.280211
vt -8.927165 -5.280211
vt 8.927165 13.49566
vt 9.84252 13.49566
vt -9.84252 13.49566
vt -8.927165 13.49566
vt -8.927165 14.50657
vt -9.84252 14.50657
vt 11.06968 16.39861
vt 11.06968 15.48326
vt 9.84252 16.39861
vt 9.84252 15.48326
vt 0.4576772 11.06969
vt 0.4576772 9.84252
vt -0.4576772 11.06969
vt -1.880458E-09 9.84252
vt -0.4576772 9.84252
vt -9.84252 16.39861
vt -9.84252 15.48326
vt -11.06968 16.39861
vt -11.06968 15.48326
vt -0.4576772 11.06968
vt 0.4576772 11.06968
vt 0.4576772 8.927165
vt 0.4576772 -8.927165
vt -1.123888E-08 8.927165
vt 1.875708E-08 -8.927165
vt -0.4576772 -8.927165
vt -0.4576772 8.927165
vt -8.927165 16.39861
vt 8.927165 16.39861
vt -8.927165 15.48326
vt 8.927165 15.48326
vt 0.4576772 -9.84252
vt 0.4576772 -11.06968
vt 8.525349E-13 -9.84252
vt -0.4576772 -11.06968
vt -0.4576772 -9.84252
vt 8.927165 12.19154
vt -8.927165 12.19154
vt 8.927165 13.7795
vt -8.927165 13.7795
vt -8.927165 -5.819685
vt -8.927165 -4.23173
vt 8.927165 -5.819685
vt 8.927165 -4.23173
vt 8.927165 -7.817108
vt -8.927165 -7.817108
vt 8.927165 -6.235841
vt -8.927165 -6.235841
vt 8.927165 15.64948
vt 8.927165 14.06821
vt -8.927165 15.64948
vt -8.927165 14.06821
vt 8.927165 8.313212
vt -8.927165 8.313212
vt 8.927165 9.910788
vt -8.927165 9.910788
vt 8.927165 6.326419
vt -8.927165 6.326419
vt 8.927165 7.926798
vt -8.927165 7.926798
vt 8.927165 11.63038
vt 8.927165 10.27069
vt 8.927165 11.8641
vt -8.927165 10.27069
vt -8.927165 11.8641
vt -8.927165 11.63038
vt 8.927165 4.317405
vt -8.927165 4.317405
vt 8.927165 5.919197
vt -8.927165 5.919197
vt 8.927165 0.2604136
vt -8.927165 0.2604136
vt 8.927165 1.860793
vt -8.927165 1.860793
vt 8.927165 -3.569174
vt 8.927165 -3.802901
vt 8.927165 -2.209486
vt -8.927165 -3.802901
vt -8.927165 -2.209486
vt -8.927165 -3.569174
vt 8.927165 -1.773881
vt -8.927165 -1.773881
vt 8.927165 -0.1763052
vt -8.927165 -0.1763052
vt 8.927165 2.293118
vt -8.927165 2.293118
vt 8.927165 3.894909
vt -8.927165 3.894909
vt -8.927165 -6.235841
vt 8.927165 -1.773881
vt 8.927165 -0.1763052
vt -8.927165 -3.569174
vt 8.927165 -3.569174
vt -8.927165 11.63038
vt 8.927165 11.63038

usemtl wood

f 3/3/1 2/2/1 1/1/1
f 2/2/1 3/3/1 4/4/1
f 7/1/2 6/4/2 5/2/2
f 6/4/2 7/1/2 8/3/2
f 11/7/3 10/6/3 9/5/3
f 10/6/3 11/7/3 12/8/3
f 15/7/4 14/6/4 13/5/4
f 14/6/4 15/7/4 16/8/4
f 19/2/5 18/3/5 17/4/5
f 18/3/5 19/2/5 20/1/5
f 23/4/6 22/1/6 21/3/6
f 22/1/6 23/4/6 24/2/6
f 27/2/2 26/10/2 25/9/2
f 26/10/2 27/2/2 28/4/2
f 31/12/1 30/1/1 29/11/1
f 30/1/1 31/12/1 32/3/1
f 23/15/3 33/14/3 24/13/3
f 33/14/3 23/15/3 34/16/3
f 33/14/3 34/16/3 35/17/3
f 35/17/3 34/16/3 36/18/3
f 35/17/3 37/19/3 33/14/3
f 37/19/3 35/17/3 36/18/3
f 37/19/3 36/18/3 38/20/3
f 38/20/3 36/18/3 34/16/3
f 38/20/3 39/21/3 37/19/3
f 38/20/3 34/16/3 40/22/3
f 40/22/3 34/16/3 30/23/3
f 40/22/3 30/23/3 41/8/3
f 41/8/3 30/23/3 42/24/3
f 42/24/3 30/23/3 32/25/3
f 43/26/3 41/8/3 42/24/3
f 44/27/3 41/8/3 43/26/3
f 44/27/3 45/6/3 41/8/3
f 46/28/3 39/21/3 45/6/3
f 46/28/3 45/6/3 44/27/3
f 44/27/3 47/29/3 46/28/3
f 47/29/3 39/21/3 46/28/3
f 44/27/3 48/30/3 47/29/3
f 39/21/3 47/29/3 48/30/3
f 3/31/3 48/30/3 44/27/3
f 48/30/3 3/31/3 1/32/3
f 43/26/3 42/24/3 49/33/3
f 26/36/4 50/35/4 25/34/4
f 50/35/4 26/36/4 51/5/4
f 52/37/4 51/5/4 26/36/4
f 51/5/4 52/37/4 53/7/4
f 53/7/4 52/37/4 54/23/4
f 53/7/4 54/23/4 55/8/4
f 55/8/4 54/23/4 56/38/4
f 56/38/4 54/23/4 57/39/4
f 29/26/4 55/8/4 56/38/4
f 58/40/4 55/8/4 29/26/4
f 58/40/4 59/6/4 55/8/4
f 60/41/4 50/35/4 59/6/4
f 59/6/4 58/40/4 60/41/4
f 50/35/4 60/41/4 61/42/4
f 29/26/4 56/38/4 31/33/4
f 27/44/3 62/43/3 28/41/3
f 62/43/3 27/44/3 63/45/3
f 63/45/3 27/44/3 64/46/3
f 62/43/3 6/47/3 28/41/3
f 6/47/3 62/43/3 63/45/3
f 6/47/3 63/45/3 64/46/3
f 6/47/3 64/46/3 5/48/3
f 67/4/1 66/9/1 65/2/1
f 66/9/1 67/4/1 68/10/1
f 71/12/2 70/1/2 69/11/2
f 70/1/2 71/12/2 72/3/2
f 75/36/3 74/50/3 73/49/3
f 74/50/3 75/36/3 76/5/3
f 76/5/3 75/36/3 77/37/3
f 76/5/3 77/37/3 78/7/3
f 78/7/3 77/37/3 66/23/3
f 78/7/3 66/23/3 79/8/3
f 79/8/3 66/23/3 80/51/3
f 80/51/3 66/23/3 68/25/3
f 81/26/3 79/8/3 80/51/3
f 82/40/3 79/8/3 81/26/3
f 82/40/3 83/6/3 79/8/3
f 71/41/3 74/50/3 83/6/3
f 71/41/3 83/6/3 82/40/3
f 74/50/3 71/41/3 69/52/3
f 81/26/3 80/51/3 84/33/3
f 87/6/4 86/54/4 85/53/4
f 88/55/4 86/54/4 87/6/4
f 89/56/4 86/54/4 88/55/4
f 86/54/4 89/56/4 90/57/4
f 88/55/4 87/6/4 91/40/4
f 91/40/4 90/57/4 89/56/4
f 91/40/4 89/56/4 88/55/4
f 91/40/4 87/6/4 92/8/4
f 91/40/4 92/8/4 65/26/4
f 65/26/4 92/8/4 93/58/4
f 92/8/4 94/23/4 93/58/4
f 95/7/4 94/23/4 92/8/4
f 95/7/4 96/59/4 94/23/4
f 97/5/4 96/59/4 95/7/4
f 85/53/4 98/60/4 97/5/4
f 97/5/4 98/60/4 96/59/4
f 99/61/4 96/59/4 98/60/4
f 85/53/4 99/61/4 98/60/4
f 100/62/4 96/59/4 99/61/4
f 100/62/4 4/63/4 96/59/4
f 4/63/4 100/62/4 2/64/4
f 99/61/4 85/53/4 100/62/4
f 93/58/4 94/23/4 101/39/4
f 65/26/4 93/58/4 67/33/4
f 21/31/4 90/57/4 91/40/4
f 90/57/4 21/31/4 22/65/4
f 8/68/4 102/67/4 72/66/4
f 102/67/4 8/68/4 103/69/4
f 103/69/4 8/68/4 104/70/4
f 104/70/4 8/68/4 7/71/4
f 70/72/4 103/69/4 104/70/4
f 103/69/4 70/72/4 102/67/4
f 102/67/4 70/72/4 72/66/4
f 73/9/5 105/4/5 75/10/5
f 105/4/5 73/9/5 106/2/5
f 101/3/6 81/11/6 84/12/6
f 81/11/6 101/3/6 94/1/6
f 82/75/7 94/74/7 96/73/7
f 94/74/7 82/75/7 81/76/7
f 106/79/4 107/78/4 105/77/4
f 107/78/4 106/79/4 108/80/4
f 107/78/4 109/81/4 105/77/4
f 109/81/4 107/78/4 108/80/4
f 109/81/4 108/80/4 110/82/4
f 110/82/4 108/80/4 111/83/4
f 109/81/4 17/47/4 105/77/4
f 17/47/4 109/81/4 110/82/4
f 17/47/4 110/82/4 111/83/4
f 17/47/4 111/83/4 19/48/4
f 113/1/5 60/12/5 112/3/5
f 60/12/5 113/1/5 61/11/5
f 44/86/7 54/85/7 52/84/7
f 54/85/7 44/86/7 43/87/7
f 57/10/6 43/2/6 49/4/6
f 43/2/6 57/10/6 54/9/6
f 57/76/8 42/89/8 56/88/8
f 42/89/8 57/76/8 49/74/8
f 18/91/3 114/67/3 112/90/3
f 114/67/3 18/91/3 115/92/3
f 115/92/3 18/91/3 116/93/3
f 116/93/3 18/91/3 20/71/3
f 114/67/3 117/94/3 112/90/3
f 117/94/3 113/95/3 112/90/3
f 113/95/3 117/94/3 118/96/3
f 117/94/3 114/67/3 118/96/3
f 118/96/3 114/67/3 115/92/3
f 118/96/3 115/92/3 116/93/3
f 118/99/7 116/98/7 113/97/7
f 50/100/7 113/97/7 116/98/7
f 113/97/7 50/100/7 61/101/7
f 50/100/7 116/98/7 24/102/7
f 20/103/7 24/102/7 116/98/7
f 24/102/7 20/103/7 22/104/7
f 22/104/7 20/103/7 19/105/7
f 22/104/7 19/105/7 90/106/7
f 90/106/7 19/105/7 86/107/7
f 86/107/7 19/105/7 85/108/7
f 85/108/7 19/105/7 74/109/7
f 19/105/7 73/110/7 74/109/7
f 108/111/7 73/110/7 19/105/7
f 73/110/7 108/111/7 106/112/7
f 19/105/7 111/113/7 108/111/7
f 50/100/7 24/102/7 39/114/7
f 39/114/7 24/102/7 33/115/7
f 39/114/7 33/115/7 37/116/7
f 50/109/9 27/118/9 25/117/9
f 27/118/9 50/109/9 1/104/9
f 1/104/9 50/109/9 39/108/9
f 27/118/9 1/104/9 64/113/9
f 1/104/9 39/108/9 48/119/9
f 1/104/9 5/105/9 64/113/9
f 5/105/9 1/104/9 2/102/9
f 5/105/9 2/102/9 7/103/9
f 7/103/9 2/102/9 100/120/9
f 7/103/9 100/120/9 85/114/9
f 69/121/9 7/103/9 85/114/9
f 69/121/9 104/98/9 7/103/9
f 104/98/9 69/121/9 70/122/9
f 69/121/9 85/114/9 74/100/9
f 29/76/9 34/73/9 58/75/9
f 34/73/9 29/76/9 30/74/9
f 71/110/10 8/105/10 72/112/10
f 8/105/10 71/110/10 96/123/10
f 96/123/10 71/110/10 82/124/10
f 4/104/10 8/105/10 96/123/10
f 4/104/10 6/103/10 8/105/10
f 3/102/10 6/103/10 4/104/10
f 6/103/10 3/102/10 28/97/10
f 52/125/10 28/97/10 3/102/10
f 28/97/10 52/125/10 26/101/10
f 52/125/10 3/102/10 44/126/10
f 101/87/8 80/128/8 93/127/8
f 80/128/8 101/87/8 84/85/8
f 58/124/8 112/118/8 60/117/8
f 112/118/8 58/124/8 23/104/8
f 23/104/8 58/124/8 34/123/8
f 23/104/8 18/105/8 112/118/8
f 18/105/8 23/104/8 21/102/8
f 18/105/8 21/102/8 17/103/8
f 17/103/8 21/102/8 91/126/8
f 75/121/8 17/103/8 91/126/8
f 17/103/8 75/121/8 105/122/8
f 75/121/8 91/126/8 77/125/8
f 55/131/11 14/130/11 16/129/11
f 14/130/11 55/131/11 59/132/11
f 83/132/12 12/129/12 79/131/12
f 12/129/12 83/132/12 10/130/12
f 10/135/13 76/134/13 9/133/13
f 76/134/13 10/135/13 74/136/13
f 74/136/13 10/135/13 83/137/13
f 65/87/9 77/84/9 91/86/9
f 77/84/9 65/87/9 66/85/9
f 11/140/11 76/139/11 78/138/11
f 76/139/11 11/140/11 9/141/11
f 79/134/14 11/142/14 78/137/14
f 11/142/14 79/134/14 12/143/14
f 93/89/10 68/76/10 67/74/10
f 68/76/10 93/89/10 80/88/10
f 85/146/13 38/145/13 87/144/13
f 38/145/13 85/146/13 39/147/13
f 39/147/13 85/146/13 45/148/13
f 45/148/13 85/146/13 97/149/13
f 45/152/12 95/151/12 41/150/12
f 95/151/12 45/152/12 97/153/12
f 56/128/10 32/87/10 31/85/10
f 32/87/10 56/128/10 42/127/10
f 13/141/12 53/138/12 15/140/12
f 53/138/12 13/141/12 51/139/12
f 41/145/14 92/149/14 40/148/14
f 92/149/14 41/145/14 95/144/14
f 50/156/13 14/155/13 59/154/13
f 14/155/13 50/156/13 13/157/13
f 13/157/13 50/156/13 51/158/13
f 15/155/14 55/158/14 16/157/14
f 55/158/14 15/155/14 53/154/14
f 92/150/11 38/153/11 40/151/11
f 38/153/11 92/150/11 87/152/11

usemtl cloth

f 36/161/16 89/160/15 35/159/15
f 89/160/15 36/161/16 88/162/16
f 35/159/18 89/160/18 36/161/17
f 88/162/17 36/161/17 89/160/18
f 114/165/19 110/164/20 109/163/19
f 110/164/20 114/165/19 115/166/20
f 109/163/21 110/164/22 114/165/21
f 115/166/22 114/165/21 110/164/22
f 114/169/19 105/168/23 112/167/23
f 105/168/23 114/169/19 109/170/19
f 112/167/24 105/168/24 114/169/21
f 109/170/21 114/169/21 105/168/24
f 91/173/25 36/172/16 34/171/25
f 36/172/16 91/173/25 88/174/16
f 34/171/26 36/172/17 91/173/26
f 88/174/17 91/173/26 36/172/17
f 121/177/28 120/176/27 119/175/27
f 120/176/27 121/177/28 122/178/28
f 119/175/30 120/176/30 121/177/29
f 122/178/29 121/177/29 120/176/30
f 119/181/27 124/180/31 123/179/31
f 124/180/31 119/181/27 120/182/27
f 123/179/32 124/180/32 119/181/30
f 120/182/30 119/181/30 124/180/32
f 35/185/15 121/184/28 33/183/33
f 121/184/28 35/185/15 122/186/28
f 122/186/28 35/185/15 89/187/15
f 122/186/28 89/187/15 90/188/33
f 33/183/34 121/184/29 35/185/18
f 122/186/29 35/185/18 121/184/29
f 89/187/18 35/185/18 122/186/29
f 90/188/34 89/187/18 122/186/29
f 123/191/31 126/190/8 125/189/8
f 126/190/8 123/191/31 124/192/31
f 125/189/7 126/190/7 123/191/32
f 124/192/32 123/191/32 126/190/7
f 129/195/36 128/194/35 127/193/35
f 128/194/35 129/195/36 130/196/36
f 127/193/38 128/194/38 129/195/37
f 130/196/37 129/195/37 128/194/38
f 131/199/40 115/198/20 116/197/39
f 115/198/20 131/199/40 110/200/20
f 110/200/20 131/199/40 132/201/40
f 110/200/20 132/201/40 111/202/39
f 116/197/42 115/198/22 131/199/41
f 110/200/22 131/199/41 115/198/22
f 132/201/41 131/199/41 110/200/22
f 111/202/42 132/201/41 110/200/22
f 127/205/35 132/204/40 131/203/40
f 132/204/40 127/205/35 128/206/35
f 131/203/41 132/204/41 127/205/38
f 128/206/38 127/205/38 132/204/41
f 125/209/8 130/208/36 129/207/36
f 130/208/36 125/209/8 126/210/8
f 129/207/37 130/208/37 125/209/7
f 126/210/7 125/209/7 130/208/37
f 135/179/43 134/182/44 133/180/43
f 134/182/44 135/179/43 136/181/44
f 133/180/45 134/182/46 135/179/45
f 136/181/46 135/179/45 134/182/46
f 28/168/49 102/169/48 62/211/47
f 102/169/48 28/168/49 72/167/49
f 62/211/52 102/169/51 28/168/50
f 72/167/50 28/168/50 102/169/51
f 138/189/10 133/192/43 137/190/10
f 133/192/43 138/189/10 135/191/43
f 137/190/9 133/192/45 138/189/9
f 135/191/45 138/189/9 133/192/45
f 141/212/53 140/206/54 139/204/53
f 140/206/54 141/212/53 142/213/54
f 139/204/55 140/206/56 141/212/55
f 142/213/56 141/212/55 140/206/56
f 62/163/47 103/166/57 63/164/57
f 103/166/57 62/163/47 102/165/48
f 63/164/58 103/166/58 62/163/52
f 102/165/51 62/163/52 103/166/58
f 46/174/60 96/171/59 44/173/59
f 96/171/59 46/174/60 98/172/60
f 44/173/62 96/171/62 46/174/61
f 98/172/61 46/174/61 96/171/62
f 136/175/44 143/178/63 134/176/44
f 143/178/63 136/175/44 144/177/63
f 134/176/46 143/178/64 136/175/46
f 144/177/64 136/175/46 143/178/64
f 63/200/57 139/201/53 64/214/65
f 139/201/53 63/200/57 103/198/57
f 139/201/53 103/198/57 141/199/53
f 141/199/53 103/198/57 104/215/65
f 64/214/66 139/201/55 63/200/58
f 103/198/58 63/200/58 139/201/55
f 141/199/55 103/198/58 139/201/55
f 104/215/66 103/198/58 141/199/55
f 99/159/67 46/162/60 47/160/67
f 46/162/60 99/159/67 98/161/60
f 47/160/68 46/162/61 99/159/68
f 98/161/61 99/159/68 46/162/61
f 146/207/69 137/210/10 145/208/69
f 137/210/10 146/207/69 138/209/10
f 145/208/70 137/210/9 146/207/70
f 138/209/9 146/207/70 137/210/9
f 142/193/54 145/196/69 140/194/54
f 145/196/69 142/193/54 146/195/69
f 140/194/56 145/196/70 142/193/56
f 146/195/70 142/193/56 145/196/70
f 143/186/63 47/187/67 48/216/71
f 47/187/67 143/186/63 144/184/63
f 47/187/67 144/184/63 99/185/67
f 99/185/67 144/184/63 100/217/71
f 48/216/72 47/187/68 143/186/64
f 144/184/64 143/186/64 47/187/68
f 99/185/68 144/184/64 47/187/68
f 100/217/72 144/184/64 99/185/68

