# Created by Kenney (www.kenney.nl)

mtllib workbench.mtl

g workbench

v 0.5208 0 -0.5208001
v 0.3348 0 -0.5208001
v 0.5208 0 -0.3348001
v 0.3348 0 -0.4278001
v -0.3348001 0 -0.4278
v -0.5208001 0 -0.3347999
v -0.5208001 0 -0.5207999
v -0.3348001 0 -0.5208
v 0.4278 0 -0.3348001
v -0.4278001 0 -0.3348
v 0.4278001 0 0.3348
v -0.4278 0 0.3348001
v 0.3348001 0 0.4278
v 0.5208001 0 0.5207999
v 0.5208001 0 0.3347999
v -0.5208 0 0.3348001
v 0.3348001 0 0.5208
v -0.3348 0 0.4278001
v -0.5208 0 0.5208001
v -0.3348 0 0.5208001
v 0.4278 0.7812 -0.3580501
v 0.4278001 0.7812 0.35805
v -0.4278 0.7812 0.3580501
v -0.4278001 0.7812 -0.35805
v -0.3580501 0.7812 -0.4278
v 0.35805 0.7812 -0.4278001
v -0.35805 0.7812 0.4278001
v 0.3580501 0.7812 0.4278
v -0.49755 0.7812 0.4975501
v -0.35805 0.7812 0.4975501
v -0.49755 0.7812 0.3580501
v 0.49755 0.7812 -0.3580501
v 0.49755 0.7812 -0.4975501
v 0.35805 0.7812 -0.4975501
v 0.4975501 0.7812 0.3580499
v 0.4975501 0.7812 0.49755
v 0.3580501 0.7812 0.49755
v -0.4975501 0.7812 -0.3580499
v -0.3580501 0.7812 -0.49755
v -0.4975501 0.7812 -0.49755
v -0.5375501 0.8611999 -0.5375499
v -0.5375501 0.7812 -0.5375499
v 0.53755 0.8611999 -0.5375501
v 0.53755 0.7812 -0.5375501
v -0.53755 0.8611999 -0.1532663
v -0.2155218 0.8611999 0.4668179
v -0.53755 0.8611999 0.5375501
v -0.2637204 0.8611999 0.5375501
v 0.5375501 0.8611999 0.5375499
v 0.53755 0.8611999 -0.1650359
v -0.4668179 0.8611999 -0.2014649
v 0.4668178 0.8611999 -0.2132345
v -0.5375501 0.8611999 -0.2496635
v 0.53755 0.8611999 -0.2614331
v -0.1673232 0.8611999 0.53755
v 0.53755 0.7812 -0.2614331
v 0.4668178 0.7812 -0.2132345
v 0.53755 0.7812 -0.1650359
v -0.5375501 0.7812 -0.2496635
v 0.5375501 0.7812 0.5375499
v -0.1673232 0.7812 0.53755
v -0.2155218 0.7812 0.4668179
v -0.2637204 0.7812 0.5375501
v -0.4668179 0.7812 -0.2014649
v -0.53755 0.7812 -0.1532663
v -0.53755 0.7812 0.5375501

vn 0 -1 0
vn 1 0 -1.192093E-07
vn -1 0 1.192093E-07
vn -1.192093E-07 0 -1
vn 1.192093E-07 0 1
vn 1.192093E-07 0.02974873 0.9995576
vn -0.9995576 0.02974873 1.192093E-07
vn 0.9995576 0.02974873 -1.192093E-07
vn -1.192093E-07 0.02974873 -0.9995576
vn 0 1 0
vn 0.5631143 0 0.8263793
vn -0.563114 0 0.8263794
vn 0.563114 0 -0.8263794
vn 0.8263794 0 0.563114
vn -0.8263792 0 0.5631143
vn -0.5631143 0 -0.8263793

vt 5.125984 5.125984
vt 5.125984 3.295276
vt 3.295276 5.125984
vt 4.21063 3.295276
vt 4.21063 -3.295276
vt 3.295276 -5.125984
vt 5.125984 -5.125984
vt 5.125984 -3.295276
vt 3.295276 4.21063
vt 3.295276 -4.21063
vt -3.295276 4.21063
vt -3.295276 -4.21063
vt -4.21063 3.295276
vt -5.125984 5.125984
vt -3.295276 5.125984
vt -3.295276 -5.125984
vt -5.125984 3.295276
vt -4.21063 -3.295276
vt -5.125984 -5.125984
vt -5.125984 -3.295276
vt 3.295276 0
vt -3.295276 0
vt 3.524114 7.688976
vt -3.524114 7.688976
vt -5.125984 -0.1524915
vt -4.897146 7.539889
vt -3.295276 -0.1524915
vt -3.524114 7.539889
vt 5.125984 -0.1524915
vt 3.295276 -0.1524915
vt 4.897146 7.539889
vt 3.524114 7.539889
vt -4.21063 0.09803027
vt -5.125984 0.09803027
vt -4.21063 7.790411
vt -4.897146 7.790411
vt 5.125984 0.09803027
vt 4.21063 0.09803027
vt 4.897146 7.790411
vt 4.21063 7.790411
vt 5.290846 8.476377
vt 5.290846 7.688976
vt -5.290846 8.476377
vt -5.290846 7.688976
vt -1.508527 -5.290846
vt 4.594663 -2.121278
vt 5.290846 -5.290846
vt 5.290846 -2.595673
vt 5.290846 5.290846
vt -1.624368 5.290846
vt -1.982923 -4.594663
vt -2.098764 4.594663
vt -2.457318 -5.290846
vt -2.573159 5.290846
vt -5.290846 5.290846
vt -5.290846 -5.290846
vt 5.290846 -1.646882
vt 4.897146 3.524114
vt 4.897146 -3.524114
vt 4.21063 3.524114
vt 4.21063 -3.524114
vt 4.897146 -4.897146
vt 4.897146 4.897146
vt 2.573159 5.290846
vt 3.524114 4.897146
vt 3.524114 4.21063
vt 2.098764 4.594663
vt -3.524114 4.21063
vt 1.624368 5.290846
vt -3.524114 4.897146
vt 2.457318 -5.290846
vt 3.524114 -4.897146
vt -4.897146 4.897146
vt -4.897146 3.524114
vt -5.290846 -1.646882
vt -4.594663 -2.121278
vt -4.21063 -3.524114
vt -4.21063 3.524114
vt -4.897146 -3.524114
vt -5.290846 -2.595673
vt -4.897146 -4.897146
vt 1.982923 -4.594663
vt 3.524114 -4.21063
vt -3.524114 -4.21063
vt 1.508527 -5.290846
vt -3.524114 -4.897146
vt 2.573159 7.688976
vt 2.573159 8.476377
vt 4.978777 7.688976
vt 4.978777 8.476377
vt 5.821228 7.688976
vt 5.821228 8.476377
vt -1.508527 7.688976
vt -1.508527 8.476377
vt 1.624368 7.688976
vt 1.624368 8.476377
vt -5.755996 7.688976
vt -5.755996 8.476377
vt -4.913546 7.688976
vt -4.913546 8.476377
vt -2.61509 8.476377
vt -2.61509 7.688976
vt -3.457541 8.476377
vt -3.457541 7.688976
vt -2.457318 7.688976
vt -2.457318 8.476377
vt -4.991455 7.688976
vt -5.833906 7.688976
vt -4.991455 8.476377
vt -5.833906 8.476377
vt -1.646882 7.688976
vt -1.646882 8.476377
vt 2.602412 7.688976
vt 2.602412 8.476377
vt 3.444863 7.688976
vt 3.444863 8.476377
vt -2.595673 7.688976
vt -2.595673 8.476377
vt 3.522772 8.476377
vt 3.522772 7.688976
vt 2.680322 8.476377
vt 2.680322 7.688976

usemtl woodDark

f 3/3/1 2/2/1 1/1/1
f 2/2/1 3/3/1 4/4/1
f 4/4/1 3/3/1 5/5/1
f 6/6/1 5/5/1 3/3/1
f 7/7/1 5/5/1 6/6/1
f 5/5/1 7/7/1 8/8/1
f 6/6/1 3/3/1 9/9/1
f 6/6/1 9/9/1 10/10/1
f 11/11/1 10/10/1 9/9/1
f 10/10/1 11/11/1 12/12/1
f 11/11/1 13/13/1 12/12/1
f 11/11/1 14/14/1 13/13/1
f 14/14/1 11/11/1 15/15/1
f 12/12/1 13/13/1 16/16/1
f 13/13/1 14/14/1 17/17/1
f 18/18/1 16/16/1 13/13/1
f 16/16/1 18/18/1 19/19/1
f 19/19/1 18/18/1 20/20/1
f 21/23/2 11/22/2 9/21/2
f 11/22/2 21/23/2 22/24/2
f 23/23/3 10/22/3 12/21/3
f 10/22/3 23/23/3 24/24/3
f 26/24/4 5/21/4 25/23/4
f 5/21/4 26/24/4 4/22/4
f 18/22/5 28/23/5 27/24/5
f 28/23/5 18/22/5 13/21/5

usemtl wood

f 20/27/6 29/26/6 19/25/6
f 29/26/6 20/27/6 30/28/6
f 29/31/7 16/30/7 19/29/7
f 16/30/7 29/31/7 31/32/7
f 27/35/8 20/34/8 18/33/8
f 20/34/8 27/35/8 30/36/8
f 31/39/9 12/38/9 16/37/9
f 12/38/9 31/39/9 23/40/9
f 3/37/6 21/40/6 9/38/6
f 21/40/6 3/37/6 32/39/6
f 33/31/8 3/30/8 1/29/8
f 3/30/8 33/31/8 32/32/8
f 34/28/9 1/25/9 2/27/9
f 1/25/9 34/28/9 33/26/9
f 35/36/9 11/33/9 22/35/9
f 11/33/9 35/36/9 15/34/9
f 35/28/8 14/25/8 15/27/8
f 14/25/8 35/28/8 36/26/8
f 14/29/6 37/32/6 17/30/6
f 37/32/6 14/29/6 36/31/6
f 10/33/6 38/36/6 6/34/6
f 38/36/6 10/33/6 24/35/6
f 39/39/8 5/38/8 8/37/8
f 5/38/8 39/39/8 25/40/8
f 38/28/7 7/25/7 6/27/7
f 7/25/7 38/28/7 40/26/7
f 40/31/9 8/30/9 7/29/9
f 8/30/9 40/31/9 39/32/9
f 26/35/7 2/34/7 4/33/7
f 2/34/7 26/35/7 34/36/7
f 37/39/7 13/38/7 17/37/7
f 13/38/7 37/39/7 28/40/7
f 43/43/4 42/42/4 41/41/4
f 42/42/4 43/43/4 44/44/4
f 47/47/10 46/46/10 45/45/10
f 46/46/10 47/47/10 48/48/10
f 49/49/10 45/45/10 46/46/10
f 50/50/10 45/45/10 49/49/10
f 50/50/10 51/51/10 45/45/10
f 52/52/10 51/51/10 50/50/10
f 52/52/10 53/53/10 51/51/10
f 54/54/10 53/53/10 52/52/10
f 43/55/10 53/53/10 54/54/10
f 53/53/10 43/55/10 41/56/10
f 49/49/10 46/46/10 55/57/10
f 26/60/1 39/59/1 34/58/1
f 39/59/1 26/60/1 25/61/1
f 40/62/1 34/58/1 39/59/1
f 40/62/1 33/63/1 34/58/1
f 40/62/1 42/47/1 33/63/1
f 44/49/1 33/63/1 42/47/1
f 33/63/1 44/49/1 56/64/1
f 33/63/1 56/64/1 32/65/1
f 32/65/1 56/64/1 21/66/1
f 21/66/1 56/64/1 57/67/1
f 21/66/1 57/67/1 22/68/1
f 22/68/1 57/67/1 58/69/1
f 22/68/1 58/69/1 35/70/1
f 42/47/1 40/62/1 59/71/1
f 59/71/1 40/62/1 38/72/1
f 60/55/1 35/70/1 58/69/1
f 35/70/1 60/55/1 36/73/1
f 36/73/1 60/55/1 37/74/1
f 61/75/1 37/74/1 60/55/1
f 62/76/1 37/74/1 61/75/1
f 27/77/1 37/74/1 62/76/1
f 37/74/1 27/77/1 28/78/1
f 62/76/1 30/79/1 27/77/1
f 30/79/1 62/76/1 63/80/1
f 30/79/1 63/80/1 29/81/1
f 38/72/1 64/82/1 59/71/1
f 24/83/1 64/82/1 38/72/1
f 64/82/1 24/83/1 23/84/1
f 64/82/1 23/84/1 65/85/1
f 65/85/1 23/84/1 31/86/1
f 65/85/1 31/86/1 66/56/1
f 66/56/1 31/86/1 29/81/1
f 66/56/1 29/81/1 63/80/1
f 43/41/2 56/87/2 44/42/2
f 56/87/2 43/41/2 54/88/2
f 56/91/11 52/90/11 57/89/11
f 52/90/11 56/91/11 54/92/11
f 47/41/3 65/93/3 66/42/3
f 65/93/3 47/41/3 45/94/3
f 50/96/2 60/44/2 58/95/2
f 60/44/2 50/96/2 49/43/2
f 64/99/12 53/98/12 59/97/12
f 53/98/12 64/99/12 51/100/12
f 50/103/13 57/102/13 52/101/13
f 57/102/13 50/103/13 58/104/13
f 53/106/3 42/44/3 59/105/3
f 42/44/3 53/106/3 41/43/3
f 46/109/14 63/108/14 62/107/14
f 63/108/14 46/109/14 48/110/14
f 60/42/5 55/112/5 61/111/5
f 55/112/5 60/42/5 49/41/5
f 61/115/15 46/114/15 62/113/15
f 46/114/15 61/115/15 55/116/15
f 63/117/5 47/43/5 66/44/5
f 47/43/5 63/117/5 48/118/5
f 51/121/16 65/120/16 45/119/16
f 65/120/16 51/121/16 64/122/16

g hammer

v 0.4134119 0.8611999 0.2214685
v 0.2402068 0.8611999 0.1214685
v 0.2516085 0.8611999 0.5017202
v 0.07840342 0.8611999 0.4017202
v 0.07840342 0.907231 0.4017202
v 0.1385817 0.9008433 0.2974883
v 0.1385817 0.9815566 0.2974883
v 0.1033862 1.0212 0.3584487
v 0.1800285 0.9815566 0.2257005
v 0.1800285 0.9008433 0.2257005
v 0.2402068 1.0212 0.1214685
v 0.1417352 1.0212 0.4382849
v 0.2516085 1.0212 0.5017202
v 0.4134119 1.0212 0.2214685
v 0.3449442 0.9169859 0.340058
v 0.3449442 0.9654139 0.340058
v 0.3200762 0.9654139 0.3831308
v 0.3200762 0.9169859 0.3831308
v -0.1302571 0.9169859 0.1231307
v -0.1053891 0.9169859 0.08005799
v -0.1302571 0.9654139 0.1231307
v -0.1053891 0.9654139 0.08005799
v 0.3770984 0.9218287 0.3643652
v 0.357204 0.9218287 0.3988235
v 0.3770984 0.9605711 0.3643652
v 0.357204 0.9605711 0.3988235

vn -0.8660256 0 -0.4999999
vn -0.5 0 0.8660256
vn -0.8475788 0.3403742 0.4071311
vn 0.5 0 -0.8660256
vn 0.8660256 0 0.4999999
vn -0.04363192 -0.99873 -0.0251909
vn 0.4545231 0 -0.8907351
vn -0.04363192 0.99873 -0.0251909
vn -0.5441376 0 0.8389962
vn 0.1040897 0.9927506 0.06009617
vn -0.3893203 0 0.9211026
vn 0.1040897 -0.9927506 0.06009617
vn 0.603038 0 -0.7977126

vt 1.592553 2.362205
vt 1.592553 0.3937008
vt -1.592553 2.362205
vt -1.592553 0.3937008
vt 1.592553 -1.160203E-15
vt -1.592553 -1.160203E-15
vt 1.592553 0.4530616
vt 0.4079401 0.3901901
vt 0.4079401 1.184613
vt 1.100765 1.574803
vt -0.4079401 1.184613
vt -0.4079401 0.3901901
vt -1.592553 1.574803
vt 0.3937008 -4.945805E-15
vt 0.3937008 0.4530616
vt 2.362205 -4.945805E-15
vt 1.113477 1.574803
vt 2.362205 1.574803
vt 1.223499 0.05403848
vt 0.9460598 1.247012
vt 1.817801 1.247012
vt -0.3937008 1.574803
vt -0.3937008 0
vt -2.362205 1.574803
vt -2.362205 0
vt 1.100765 0.3937008
vt 1.592553 1.113477
vt -1.592553 0
vt 0.2447641 0.5490747
vt 1.592553 0
vt 1.592553 1.574803
vt 0.2447641 1.025728
vt -0.2447641 1.025728
vt -0.2447641 0.5490747
vt -0.4079401 -0.3735423
vt -0.2447641 2.780069
vt 0.4079401 -0.3735423
vt 0.2447641 2.780069
vt 2.739551 1.025728
vt 2.739551 0.5490747
vt -0.4142799 1.184613
vt -0.4142799 0.3901901
vt -0.4079401 0.4528837
vt 0.4079401 0.4528837
vt -0.2447641 -2.700727
vt 0.2447641 -2.700727
vt -2.739551 0.5490747
vt -2.739551 1.025728
vt 0.4142799 0.3901901
vt 0.4142799 1.184613
vt 0.1958113 0.5967401
vt -0.1958113 0.5967401
vt 0.1958113 0.978063
vt -0.1958113 0.978063
vt 0.2447641 -2.221796
vt 0.1958113 -2.618371
vt -0.2447641 -2.221796
vt -0.1958113 -2.618371
vt 2.313952 0.5490747
vt 2.313952 1.025728
vt 2.710685 0.5967401
vt 2.710685 0.978063
vt 0.2447641 2.411075
vt -0.2447641 2.411075
vt 0.1958113 2.807651
vt -0.1958113 2.807651
vt -2.313952 1.025728
vt -2.313952 0.5490747
vt -2.710685 0.978063
vt -2.710685 0.5967401

usemtl metal

f 69/125/1 68/124/1 67/123/1
f 68/124/1 69/125/1 70/126/1
f 71/129/17 68/128/17 70/127/17
f 68/128/17 71/129/17 72/130/17
f 72/130/17 71/129/17 73/131/17
f 73/131/17 71/129/17 74/132/17
f 73/131/17 74/132/17 75/133/17
f 76/134/17 68/128/17 72/130/17
f 68/128/17 76/134/17 77/135/17
f 77/135/17 76/134/17 75/133/17
f 77/135/17 75/133/17 74/132/17
f 69/138/18 71/137/18 70/136/18
f 71/137/18 69/138/18 78/139/18
f 78/139/18 69/138/18 79/140/18
f 78/143/19 74/142/19 71/141/19
f 80/146/20 68/145/20 77/144/20
f 68/145/20 80/146/20 67/147/20
f 77/126/10 79/123/10 80/125/10
f 79/123/10 77/126/10 74/148/10
f 79/123/10 74/148/10 78/149/10
f 67/152/21 81/151/21 69/150/21
f 81/151/21 67/152/21 80/153/21
f 81/151/21 80/153/21 82/154/21
f 82/154/21 80/153/21 83/155/21
f 84/156/21 69/150/21 81/151/21
f 69/150/21 84/156/21 79/135/21
f 79/135/21 84/156/21 83/155/21
f 79/135/21 83/155/21 80/153/21

usemtl wood

f 87/154/17 86/156/17 85/151/17
f 86/156/17 87/154/17 88/155/17
f 72/159/22 86/158/22 76/157/22
f 86/158/22 72/159/22 85/160/22
f 75/163/23 86/162/23 88/161/23
f 86/162/23 75/163/23 76/164/23
f 88/167/24 73/166/24 75/165/24
f 73/166/24 88/167/24 87/168/24
f 72/171/25 87/170/25 85/169/25
f 87/170/25 72/171/25 73/172/25
f 91/175/21 90/174/21 89/173/21
f 90/174/21 91/175/21 92/176/21
f 83/179/26 91/178/26 82/177/26
f 91/178/26 83/179/26 92/180/26
f 90/183/27 83/182/27 84/181/27
f 83/182/27 90/183/27 92/184/27
f 89/187/28 84/186/28 81/185/28
f 84/186/28 89/187/28 90/188/28
f 91/191/29 81/190/29 82/189/29
f 81/190/29 91/191/29 89/192/29

g paper

v 0.05016064 0.9513326 -0.616865
v 0.05134728 0.9588585 -0.6175501
v 0.3301607 0.9513326 -0.1318907
v 0.3313473 0.9588585 -0.1325758
v 0.04662101 0.9439353 -0.6148214
v 0.3266211 0.9439353 -0.1298471
v 0.04078894 0.9367935 -0.6114543
v 0.320789 0.9367935 -0.12648
v 0.3127644 0.9300292 -0.1218469
v 0.0327643 0.9300292 -0.6068212
v 0.3026844 0.9237581 -0.1160272
v 0.02268432 0.9237581 -0.6010016
v 0.2907216 0.9180877 -0.1091205
v 0.01072152 0.9180877 -0.5940948
v 0.2770806 0.9131148 -0.1012449
v -0.00291951 0.9131148 -0.5862193
v 0.2619949 0.9089247 -0.09253511
v -0.01800527 0.9089247 -0.5775095
v 0.2457224 0.9055889 -0.08314024
v -0.03427764 0.9055889 -0.5681146
v 0.2285419 0.9031646 -0.07322101
v -0.05145826 0.9031646 -0.5581954
v 0.210747 0.9016932 -0.06294714
v -0.06925311 0.9016932 -0.5479215
v 0.1926424 0.9011999 -0.05249442
v -0.08735775 0.9011999 -0.5374687
v -0.2575501 0.9011999 0.2074243
v -0.5375502 0.9011999 -0.27755

vn -0.8157426 0.3357862 0.4709693
vn -0.8520195 0.1791207 0.4919138
vn 0.8157426 -0.3357862 -0.4709693
vn 0.8520195 -0.1791207 -0.4919138
vn -0.6995633 0.5894758 0.4038932
vn 0.6995633 -0.5894758 -0.4038932
vn -0.5727825 0.7500404 0.3306961
vn 0.5727825 -0.7500404 -0.3306961
vn -0.4617693 0.8459859 0.2666027
vn 0.4617693 -0.8459859 -0.2666027
vn -0.3703285 0.9039593 0.2138093
vn 0.3703285 -0.9039593 -0.2138093
vn -0.2950596 0.94017 0.1703528
vn 0.2950596 -0.94017 -0.1703528
vn -0.2317755 0.9635214 0.1338157
vn 0.2317755 -0.9635214 -0.1338157
vn -0.177041 0.9788814 0.1022147
vn 0.177041 -0.9788814 -0.1022147
vn -0.1282621 0.9889718 0.07405218
vn 0.1282621 -0.9889718 -0.07405218
vn -0.08347934 0.9953433 0.04819683
vn 0.08347934 -0.9953433 -0.04819683
vn -0.04115436 0.9988702 0.02376048
vn 0.04115436 -0.9988702 -0.02376048
vn -0.02042875 0.9997217 0.01179455
vn 0.02042875 -0.9997217 -0.01179455

vt -2.755906 1.469788
vt -2.755906 1.545081
vt 2.755906 1.469788
vt 2.755906 1.545081
vt -2.755906 2.305199
vt -2.755906 2.388381
vt 2.755906 2.305199
vt 2.755906 2.388381
vt -2.755906 2.754812
vt -2.755906 2.851427
vt 2.755906 2.754812
vt 2.755906 2.851427
vt 2.755906 2.931735
vt -2.755906 2.931735
vt 2.755906 3.044653
vt -2.755906 3.044653
vt 2.755906 3.081467
vt 2.755906 2.951337
vt -2.755906 3.081467
vt -2.755906 2.951337
vt 2.755906 2.881269
vt -2.755906 2.881269
vt 2.755906 3.028239
vt -2.755906 3.028239
vt 2.755906 2.91947
vt 2.755906 2.756895
vt -2.755906 2.91947
vt -2.755906 2.756895
vt 2.755906 2.773507
vt 2.755906 2.597164
vt -2.755906 2.773507
vt -2.755906 2.597164
vt 2.755906 2.413146
vt -2.755906 2.413146
vt 2.755906 2.600976
vt -2.755906 2.600976
vt 2.755906 2.212074
vt -2.755906 2.212074
vt 2.755906 2.408787
vt -2.755906 2.408787
vt 2.755906 1.999235
vt -2.755906 1.999235
vt 2.755906 2.201994
vt -2.755906 2.201994
vt 2.755906 1.984666
vt 2.755906 1.778847
vt -2.755906 1.984666
vt -2.755906 1.778847
vt -2.755906 3.346457
vt 2.755906 3.346457
vt -2.755906 -1.770052
vt 2.755906 -1.770052

usemtl rock

f 95/195/30 94/194/31 93/193/30
f 94/194/31 95/195/30 96/196/31
f 93/193/32 94/194/33 95/195/32
f 96/196/33 95/195/32 94/194/33
f 98/199/34 93/198/30 97/197/34
f 93/198/30 98/199/34 95/200/30
f 97/197/35 93/198/32 98/199/35
f 95/200/32 98/199/35 93/198/32
f 100/203/36 97/202/34 99/201/36
f 97/202/34 100/203/36 98/204/34
f 99/201/37 97/202/35 100/203/37
f 98/204/35 100/203/37 97/202/35
f 100/207/36 102/206/38 101/205/38
f 102/206/38 100/207/36 99/208/36
f 101/205/39 102/206/39 100/207/37
f 99/208/37 100/207/37 102/206/39
f 102/211/38 103/210/40 101/209/38
f 103/210/40 102/211/38 104/212/40
f 101/209/39 103/210/41 102/211/39
f 104/212/41 102/211/39 103/210/41
f 103/215/40 106/214/42 105/213/42
f 106/214/42 103/215/40 104/216/40
f 105/213/43 106/214/43 103/215/41
f 104/216/41 103/215/41 106/214/43
f 106/219/42 107/218/44 105/217/42
f 107/218/44 106/219/42 108/220/44
f 105/217/43 107/218/45 106/219/43
f 108/220/45 106/219/43 107/218/45
f 108/223/44 109/222/46 107/221/44
f 109/222/46 108/223/44 110/224/46
f 107/221/45 109/222/47 108/223/45
f 110/224/47 108/223/45 109/222/47
f 109/227/46 112/226/48 111/225/48
f 112/226/48 109/227/46 110/228/46
f 111/225/49 112/226/49 109/227/47
f 110/228/47 109/227/47 112/226/49
f 111/231/48 114/230/50 113/229/50
f 114/230/50 111/231/48 112/232/48
f 113/229/51 114/230/51 111/231/49
f 112/232/49 111/231/49 114/230/51
f 113/235/50 116/234/52 115/233/52
f 116/234/52 113/235/50 114/236/50
f 115/233/53 116/234/53 113/235/51
f 114/236/51 113/235/51 116/234/53
f 116/239/52 117/238/54 115/237/52
f 117/238/54 116/239/52 118/240/54
f 115/237/53 117/238/55 116/239/53
f 118/240/55 116/239/53 117/238/55
f 117/243/10 120/242/10 119/241/10
f 120/242/10 117/243/10 118/244/10

