# Apple ModelIO OBJ File: tent_smallOpen
mtllib tent_smallOpen.mtl
g 
v 0.169241 0.266425 0.0416188
v 0.100159 0.369114 -0.0730882
v 0.157226 0.284285 -0.0898304
v 0.112174 0.351254 0.058361
v 0.189369 0.236505 0.0845069
v 0.147569 0.298641 0.174406
v 0.152342 0.291546 0.0785866
v 0.184596 0.2436 0.180326
v -0.2738 0.111 -0.3182
v 0.2738 0 -0.3182
v -0.2738 0 -0.3182
v 0.2738 0.111 -0.3182
v -0.0647214 0.1945 -0.3182
v -0.0647214 0.2745 -0.3182
v 4.98119e-14 0.518 -0.3182
v 0.0647214 0.2745 -0.3182
v 0.0647214 0.1945 -0.3182
v -4.0427e-14 0.518 0.2886
v 0.014208 0.49688 0.260184
v -3.60956e-14 0.518 0.260184
v 0.014208 0.49688 0.2886
v -4.47585e-14 0.518 0.3182
v 0.014208 0.49688 -0.261368
v 4.11489e-14 0.518 -0.261368
v 0.210235 0.205489 0.0639406
v 0.237833 0.164464 -0.00442662
v 0.014208 0.49688 -0.289784
v 4.54804e-14 0.518 -0.289784
v 0.2738 0.111 0.3182
v 0.239131 0.162535 0.0621328
v 0.208938 0.207417 -0.00261883
v 0.1369 0 0.3482
v 0.1369 0 0.3182
v 0.20535 0 0.3182
v -4.47585e-14 0.444136 0.3182
v 0.2738 0 0.3182
v -0.2738 0.111 0.3182
v -0.20535 0 0.3182
v -0.2738 0 0.3182
v -0.1369 0 0.3182
v -0.177384 0.254322 -0.11998
v -0.225337 0.18304 -0.213939
v -0.184331 0.243995 -0.222829
v -0.21839 0.193367 -0.111089
v -0.1369 0 0.3482
v -0.156405 0.285505 -0.0862929
v -0.189484 0.236335 -0.0141218
v -0.185176 0.242738 -0.0914377
v -0.160713 0.279102 -0.00897707
v -0.014208 0.49688 0.2886
v -0.014208 0.49688 0.260184
v -0.014208 0.49688 -0.289784
v -0.014208 0.49688 -0.261368
vn -0.829722 -0.558177 0
vn -0.829723 -0.558176 -2.54325e-07
vn 0 0 -1
vn 0 0 1
vn 0.829722 0.558177 0
vn 0.829722 0.558177 0
vn -0.829722 -0.558177 0
vn -0.829722 -0.558177 0
vn 0 -1 0
vn 0.829723 -0.558176 6.98347e-07
vn 0.394675 0.182481 0.900518
vn -0.394675 0.182481 0.900518
vn -0.829722 0.558177 0
vn -0.829722 0.558177 0
vn 0.829722 -0.558177 0
vn 0.955632 -0.294563 0
vn -0.955632 -0.294563 0
vn -0.829723 -0.558176 0
vn -1 0 0
vn 1 0 0
vt 1.63854 4.98394
vt -2.87749 9.85653
vt -3.53663 5.8314
vt 2.29767 9.00906
vt 3.32704 3.56425
vt 6.86636 6.5126
vt 3.09396 6.17592
vt 7.09945 3.90093
vt 10.7795 4.37008
vt -10.7795 0
vt 10.7795 0
vt -10.7795 4.37008
vt 2.54808 7.65748
vt 2.54808 10.8071
vt -1.63439e-13 20.3937
vt -2.54808 10.8071
vt -2.54808 7.65748
vt -11.3622 16.9211
vt -10.2435 15.919
vt -10.2435 16.9211
vt -11.3622 15.919
vt -12.5276 16.9211
vt -7.09945 3.90092
vt -6.86637 6.51259
vt -3.09396 6.17591
vt -2.29768 9.00906
vt 2.87749 9.85653
vt 10.2901 15.919
vt 10.2901 16.9211
vt 3.53663 5.8314
vt -2.51735 2.09252
vt 0.174277 0.145904
vt 11.4088 15.919
vt 12.5276 -2.39093
vt 11.4088 16.9211
vt 12.5276 16.9211
vt -12.5276 -2.39093
vt -2.44617 0.0543963
vt -3.32704 3.56424
vt 0.103104 2.18403
vt -1.63854 4.98394
vt 5.38976 13.7087
vt 5.38976 12.5276
vt 8.08465 12.5276
vt 3.55127e-14 17.4857
vt 5.38976 0
vt 8.08465 0
vt 3.55127e-14 20.3937
vt -8.08465 0
vt -5.38976 0
vt 4.7236 4.40964
vt 8.4228 1.02735
vt 8.7728 3.91963
vt 4.3736 1.51736
vt -8.08465 12.5276
vt -5.38976 12.5276
vt -5.38976 13.7087
vt -5.02876 15.0983
vt -0.566403 -2.68599
vt 2.37594 -2.68599
vt 5.02876 15.0983
vt -2.37594 -2.68599
vt 0.566403 -2.68599
vt 3.39735 5.88929
vt 0.555971 3.55618
vt 3.5999 3.86001
vt 0.353422 5.58547
vt 11.3622 15.919
vt 10.2435 16.9211
vt 10.2435 15.919
vt 11.3622 16.9211
vt -0.353428 5.58547
vt -0.555978 3.55618
vt -3.59991 3.86001
vt -4.3736 1.51735
vt -8.4228 1.02734
vt -11.4088 15.919
vt -10.2901 15.919
vt -8.77281 3.91963
vt -10.2901 16.9211
vt -3.39736 5.8893
vt -4.72361 4.40964
vt -11.4088 16.9211
vt -13.7087 -1.58763
vt -12.5276 -1.58763
vt -12.5276 16.7099
vt 13.7087 -1.58763
vt 12.5276 16.7099
vt 12.5276 -1.58763
vt 2.44617 0.0544063
vt -0.103103 2.18404
vt -0.174275 0.145914
vt 2.51735 2.09253
vt 12.5276 0
vt -12.5276 4.37008
vt -12.5276 0
vt 12.5276 4.37008
usemtl material_1
f 1/1/1 2/2/1 3/3/1
f 2/2/1 1/1/1 4/4/1
f 5/5/2 6/6/2 7/7/2
f 6/6/2 5/5/2 8/8/2
f 9/9/3 10/10/3 11/11/3
f 10/10/3 9/9/3 12/12/3
f 12/12/3 9/9/3 13/13/3
f 13/13/3 9/9/3 14/14/3
f 14/14/3 9/9/3 15/15/3
f 14/14/3 15/15/3 16/16/3
f 12/12/3 16/16/3 15/15/3
f 16/16/3 12/12/3 17/17/3
f 17/17/3 12/12/3 13/13/3
f 11/11/4 10/10/4 9/9/4
f 12/12/4 9/9/4 10/10/4
f 13/13/4 9/9/4 12/12/4
f 14/14/4 9/9/4 13/13/4
f 15/15/4 9/9/4 14/14/4
f 16/16/4 15/15/4 14/14/4
f 15/15/4 16/16/4 12/12/4
f 17/17/4 12/12/4 16/16/4
f 13/13/4 12/12/4 17/17/4
f 18/18/5 19/19/5 20/20/5
f 19/19/5 18/18/5 21/21/5
f 22/22/6 21/21/5 18/18/5
f 19/19/5 8/23/6 20/20/5
f 6/24/6 20/20/5 8/23/6
f 7/25/6 20/20/5 6/24/6
f 4/26/6 20/20/5 7/25/6
f 2/27/6 20/20/5 4/26/6
f 23/28/6 20/20/5 2/27/6
f 20/20/5 23/28/6 24/29/6
f 23/28/6 2/27/6 3/30/6
f 4/26/6 7/25/6 25/31/6
f 26/32/6 23/28/6 3/30/6
f 26/32/6 27/33/6 23/28/6
f 12/34/6 27/33/6 26/32/6
f 12/34/6 28/35/6 27/33/6
f 28/35/6 12/34/6 15/36/6
f 12/34/6 26/32/6 29/37/6
f 29/37/6 26/32/6 30/38/6
f 29/37/6 30/38/6 25/31/6
f 29/37/6 25/31/6 5/39/6
f 5/39/6 25/31/6 7/25/6
f 29/37/6 5/39/6 8/23/6
f 29/37/6 8/23/6 19/19/5
f 29/37/6 19/19/5 21/21/5
f 29/37/6 21/21/5 22/22/6
f 3/30/6 31/40/6 26/32/6
f 31/40/6 3/30/6 1/41/6
f 31/40/6 1/41/6 25/31/6
f 25/31/6 1/41/6 4/26/6
f 20/20/7 19/19/7 18/18/7
f 21/21/7 18/18/7 19/19/7
f 18/18/7 21/21/7 22/22/8
f 20/20/7 8/23/8 19/19/7
f 8/23/8 20/20/7 6/24/8
f 6/24/8 20/20/7 7/25/8
f 7/25/8 20/20/7 4/26/8
f 4/26/8 20/20/7 2/27/8
f 2/27/8 20/20/7 23/28/8
f 24/29/8 23/28/8 20/20/7
f 3/30/8 2/27/8 23/28/8
f 25/31/8 7/25/8 4/26/8
f 3/30/8 23/28/8 26/32/8
f 23/28/8 27/33/8 26/32/8
f 26/32/8 27/33/8 12/34/8
f 27/33/8 28/35/8 12/34/8
f 15/36/8 12/34/8 28/35/8
f 29/37/8 26/32/8 12/34/8
f 30/38/8 26/32/8 29/37/8
f 25/31/8 30/38/8 29/37/8
f 5/39/8 25/31/8 29/37/8
f 7/25/8 25/31/8 5/39/8
f 8/23/8 5/39/8 29/37/8
f 19/19/7 8/23/8 29/37/8
f 21/21/7 19/19/7 29/37/8
f 22/22/8 21/21/7 29/37/8
f 26/32/8 31/40/8 3/30/8
f 1/41/8 3/30/8 31/40/8
f 25/31/8 1/41/8 31/40/8
f 4/26/8 1/41/8 25/31/8
f 32/42/9 33/43/9 34/44/9
f 35/45/4 33/46/4 34/47/4
f 36/11/4 35/45/4 34/47/4
f 35/45/4 36/11/4 29/9/4
f 35/45/4 29/9/4 22/48/4
f 37/12/4 35/45/4 22/48/4
f 37/12/4 38/49/4 35/45/4
f 38/49/4 37/12/4 39/10/4
f 35/45/4 38/49/4 40/50/4
f 34/47/3 33/46/3 35/45/3
f 34/47/3 35/45/3 36/11/3
f 29/9/3 36/11/3 35/45/3
f 22/48/3 29/9/3 35/45/3
f 22/48/3 35/45/3 37/12/3
f 35/45/3 38/49/3 37/12/3
f 39/10/3 37/12/3 38/49/3
f 40/50/3 38/49/3 35/45/3
f 41/51/10 42/52/10 43/53/10
f 42/52/10 41/51/10 44/54/10
f 38/55/9 40/56/9 45/57/9
f 35/58/11 32/59/11 34/60/11
f 35/61/12 38/62/12 45/63/12
f 46/64/10 47/65/10 48/66/10
f 47/65/10 46/64/10 49/67/10
f 50/68/13 20/69/13 51/70/13
f 20/69/13 50/68/13 18/71/13
f 51/70/13 37/34/14 50/68/13
f 50/68/13 37/34/14 18/71/13
f 49/72/14 37/34/14 51/70/13
f 20/69/13 49/72/14 51/70/13
f 47/73/14 37/34/14 49/72/14
f 48/74/14 37/34/14 47/73/14
f 44/75/14 37/34/14 48/74/14
f 42/76/14 37/34/14 44/75/14
f 42/76/14 9/37/14 37/34/14
f 9/37/14 42/76/14 15/22/14
f 15/22/14 42/76/14 52/77/14
f 52/77/14 42/76/14 53/78/14
f 53/78/14 42/76/14 43/79/14
f 53/78/14 43/79/14 24/80/14
f 43/79/14 20/69/13 24/80/14
f 18/71/13 37/34/14 22/36/14
f 20/69/13 43/79/14 46/81/14
f 46/81/14 44/75/14 48/74/14
f 20/69/13 46/81/14 49/72/14
f 46/81/14 43/79/14 41/82/14
f 46/81/14 41/82/14 44/75/14
f 28/83/14 15/22/14 52/77/14
f 51/70/15 20/69/15 50/68/15
f 18/71/15 50/68/15 20/69/15
f 50/68/15 37/34/10 51/70/15
f 18/71/15 37/34/10 50/68/15
f 51/70/15 37/34/10 49/72/10
f 51/70/15 49/72/10 20/69/15
f 49/72/10 37/34/10 47/73/10
f 47/73/10 37/34/10 48/74/10
f 48/74/10 37/34/10 44/75/10
f 44/75/10 37/34/10 42/76/10
f 37/34/10 9/37/10 42/76/10
f 15/22/10 42/76/10 9/37/10
f 52/77/10 42/76/10 15/22/10
f 53/78/10 42/76/10 52/77/10
f 43/79/10 42/76/10 53/78/10
f 24/80/10 43/79/10 53/78/10
f 24/80/10 20/69/15 43/79/10
f 22/36/10 37/34/10 18/71/15
f 46/81/10 43/79/10 20/69/15
f 48/74/10 44/75/10 46/81/10
f 41/82/10 43/79/10 46/81/10
f 44/75/10 41/82/10 46/81/10
f 49/72/10 46/81/10 20/69/15
f 52/77/10 15/22/10 28/83/10
f 45/84/16 40/85/16 35/86/16
f 32/87/17 35/88/17 33/89/17
f 30/90/18 31/91/18 26/92/18
f 31/91/18 30/90/18 25/93/18
f 39/94/19 9/95/19 11/96/19
f 9/95/19 39/94/19 37/97/19
f 11/96/20 9/95/20 39/94/20
f 37/97/20 39/94/20 9/95/20
f 29/95/20 10/94/20 12/97/20
f 10/94/20 29/95/20 36/96/20
f 12/97/19 10/94/19 29/95/19
f 36/96/19 29/95/19 10/94/19
s off
g _1
v 0.157226 0.284285 -0.0898304
v 0.100159 0.369114 -0.0730882
v 0.169241 0.266425 0.0416188
v 0.112174 0.351254 0.058361
v 0.152342 0.291546 0.0785866
v 0.147569 0.298641 0.174406
v 0.189369 0.236505 0.0845069
v 0.184596 0.2436 0.180326
v -0.184331 0.243995 -0.222829
v -0.225337 0.18304 -0.213939
v -0.177384 0.254322 -0.11998
v -0.21839 0.193367 -0.111089
v -0.185176 0.242738 -0.0914377
v -0.189484 0.236335 -0.0141218
v -0.156405 0.285505 -0.0862929
v -0.160713 0.279102 -0.00897707
v 0.237833 0.164464 -0.00442662
v 0.208938 0.207417 -0.00261883
v 0.239131 0.162535 0.0621328
v 0.210235 0.205489 0.0639406
vn 0.829722 0.558177 0
vn 0.829723 0.558176 2.54325e-07
vn -0.829723 0.558176 -6.98347e-07
vn -0.829722 0.558177 -7.43805e-07
vn 0.829723 0.558176 0
vt -3.53663 5.8314
vt -2.87749 9.85653
vt 1.63854 4.98394
vt 2.29767 9.00906
vt 3.09396 6.17592
vt 6.86636 6.5126
vt 3.32704 3.56425
vt 7.09945 3.90093
vt 8.7728 3.91963
vt 8.4228 1.02735
vt 4.7236 4.40964
vt 4.3736 1.51736
vt 3.5999 3.86001
vt 0.555971 3.55618
vt 3.39735 5.88929
vt 0.353422 5.58547
vt -0.174275 0.145914
vt -0.103103 2.18404
vt 2.44617 0.0544063
vt 2.51735 2.09253
usemtl material_2
f 54/98/21 55/99/21 56/100/21
f 57/101/21 56/100/21 55/99/21
f 58/102/22 59/103/22 60/104/22
f 61/105/22 60/104/22 59/103/22
f 62/106/23 63/107/23 64/108/23
f 65/109/23 64/108/23 63/107/23
f 66/110/24 67/111/24 68/112/24
f 69/113/24 68/112/24 67/111/24
f 70/114/25 71/115/25 72/116/25
f 73/117/25 72/116/25 71/115/25
s off
g _2
v 0.014208 0 -0.261368
v -0.014208 0 -0.289784
v 0.014208 0 -0.289784
v -0.014208 0 -0.261368
v -0.014208 0.561131 -0.289784
v 4.54804e-14 0.518 -0.289784
v -0.014208 0.49688 -0.289784
v 0.014208 0.561131 -0.289784
v 0.014208 0.49688 -0.289784
v 0.014208 0.561131 -0.261368
v -0.014208 0.561131 -0.261368
v -0.014208 0.561131 0.260184
v -3.60956e-14 0.518 0.260184
v -0.014208 0.49688 0.260184
v 0.014208 0.561131 0.260184
v 0.014208 0.49688 0.260184
v 0.014208 0 0.260184
v -0.014208 0 0.260184
v -0.014208 0.49688 -0.261368
v 0.014208 0.561131 0.2886
v -0.014208 0.561131 0.2886
v 0.014208 0.49688 -0.261368
v 0.014208 0.49688 0.2886
v 0.014208 0 0.2886
v -4.0427e-14 0.518 0.2886
v -0.014208 0.49688 0.2886
v -0.014208 0 0.2886
v 4.11489e-14 0.518 -0.261368
vn 0 -1 0
vn 0 0 -1
vn 0 1 0
vn -1 0 0
vn 1 0 0
vn 0 0 1
vt 0.55937 -10.2901
vt -0.55937 -11.4088
vt 0.55937 -11.4088
vt -0.55937 -10.2901
vt 0.55937 22.0918
vt -1.53444e-13 20.3937
vt 0.55937 19.5622
vt -0.55937 22.0918
vt -0.55937 19.5622
vt -0.55937 0
vt 0.55937 0
vt -4.8814e-14 20.3937
vt -10.2901 0
vt -11.4088 19.5622
vt -11.4088 0
vt -10.2901 19.5622
vt -11.4088 22.0918
vt -10.2901 22.0918
vt 0.55937 10.2435
vt -0.55937 11.3622
vt -0.55937 10.2435
vt 0.55937 11.3622
vt 10.2901 22.0918
vt 11.4088 19.5622
vt 11.4088 22.0918
vt 10.2901 19.5622
vt 11.4088 0
vt 10.2901 0
vt -11.3622 19.5622
vt -10.2435 0
vt -10.2435 19.5622
vt -11.3622 0
vt -11.3622 22.0918
vt -10.2435 22.0918
vt 3.88189e-14 20.3937
vt 11.3622 0
vt 10.2435 19.5622
vt 10.2435 0
vt 11.3622 19.5622
vt 10.2435 22.0918
vt 11.3622 22.0918
vt 1.43449e-13 20.3937
usemtl material_3
f 74/118/26 75/119/26 76/120/26
f 75/119/26 74/118/26 77/121/26
f 78/122/27 79/123/27 80/124/27
f 81/125/27 79/123/27 78/122/27
f 79/123/27 81/125/27 82/126/27
f 82/126/27 80/124/27 79/123/27
f 76/127/27 80/124/27 82/126/27
f 80/124/27 76/127/27 75/128/27
f 78/120/28 83/121/28 81/119/28
f 83/121/28 78/120/28 84/118/28
f 85/122/27 86/129/27 87/124/27
f 88/125/27 86/129/27 85/122/27
f 86/129/27 88/125/27 89/126/27
f 89/126/27 87/124/27 86/129/27
f 90/127/27 87/124/27 89/126/27
f 87/124/27 90/127/27 91/128/27
f 77/130/29 80/131/29 75/132/29
f 80/131/29 77/130/29 92/133/29
f 92/133/29 78/134/29 80/131/29
f 78/134/29 92/133/29 84/135/29
f 85/136/28 93/137/28 88/138/28
f 93/137/28 85/136/28 94/139/28
f 83/140/30 82/141/30 81/142/30
f 82/141/30 83/140/30 95/143/30
f 95/143/30 76/144/30 82/141/30
f 76/144/30 95/143/30 74/145/30
f 96/146/30 90/147/30 89/148/30
f 90/147/30 96/146/30 97/149/30
f 89/148/30 93/150/30 96/146/30
f 93/150/30 89/148/30 88/151/30
f 93/122/31 98/152/31 96/124/31
f 94/125/31 98/152/31 93/122/31
f 98/152/31 94/125/31 99/126/31
f 99/126/31 96/124/31 98/152/31
f 100/127/31 96/124/31 99/126/31
f 96/124/31 100/127/31 97/128/31
f 97/139/26 91/138/26 90/136/26
f 91/138/26 97/139/26 100/137/26
f 100/153/29 87/154/29 91/155/29
f 87/154/29 100/153/29 99/156/29
f 99/156/29 85/157/29 87/154/29
f 85/157/29 99/156/29 94/158/29
f 83/122/31 101/159/31 95/124/31
f 84/125/31 101/159/31 83/122/31
f 101/159/31 84/125/31 92/126/31
f 92/126/31 95/124/31 101/159/31
f 77/127/31 95/124/31 92/126/31
f 95/124/31 77/127/31 74/128/31
s off
